<?xml version="1.0" encoding="UTF-8"?>
<svg width="2768px" height="400px" viewBox="0 0 2768 400" version="1.1" xmlns="http://www.w3.org/2000/svg" xmlns:xlink="http://www.w3.org/1999/xlink">
    <!-- Generator: Sketch 58 (84663) - https://sketch.com -->
    <title>background-buy</title>
    <desc>Created with Sketch.</desc>
    <defs>
        <rect id="path-1" x="0" y="0" width="2767.30769" height="400"></rect>
        <polygon id="path-3" points="0 0.266968326 43.7353846 0.266968326 43.7353846 45.0067873 0 45.0067873"></polygon>
        <polygon id="path-5" points="0 0.266968326 43.7353846 0.266968326 43.7353846 45.0067873 0 45.0067873"></polygon>
        <polygon id="path-7" points="0 0.333710407 53.2430769 0.333710407 53.2430769 56.2584842 0 56.2584842"></polygon>
        <polygon id="path-9" points="0.0915384615 0.631923077 25.8069231 0.631923077 25.8069231 45.1538462 0.0915384615 45.1538462"></polygon>
        <polygon id="path-11" points="0 0.0423076923 66.4631907 0.0423076923 66.4631907 54.9802563 0 54.9802563"></polygon>
        <polygon id="path-13" points="0.0915384615 0.631923077 25.8069231 0.631923077 25.8069231 45.1538462 0.0915384615 45.1538462"></polygon>
        <polygon id="path-15" points="0 0.0423076923 66.4631907 0.0423076923 66.4631907 54.9802563 0 54.9802563"></polygon>
        <polygon id="path-17" points="0 123.076923 168.661538 123.076923 168.661538 0.721153846 0 0.721153846"></polygon>
    </defs>
    <g id="background-buy" stroke="none" stroke-width="1" fill="none" fill-rule="evenodd">
        <g id="fondo-comprar">
            <mask id="mask-2" fill="white">
                <use xlink:href="#path-1"></use>
            </mask>
            <use id="Rectangle" fill="#DEEDFF" xlink:href="#path-1"></use>
            <path d="M1340.24423,57.55 C1340.24423,47.9038462 1332.425,40.0846154 1322.77885,40.0846154 C1319.94423,40.0846154 1317.27692,40.775 1314.90769,41.975 C1314.64615,32.5576923 1306.95,25 1297.46923,25 C1288.15962,25 1280.57308,32.2884615 1280.05577,41.4692308 C1277.95962,40.5788462 1275.65385,40.0846154 1273.23462,40.0846154 C1263.58846,40.0846154 1255.76923,47.9038462 1255.76923,57.55 C1255.76923,67.1961538 1263.58846,75.0134615 1273.23462,75.0134615 L1324.17692,75.0134615 L1324.17692,74.9442308 C1333.16731,74.2307692 1340.24423,66.725 1340.24423,57.55" id="Fill-1" fill="#F9FAFB" mask="url(#mask-2)"></path>
            <path d="M1796.09288,30.6396154 C1796.09288,23.8396154 1790.58135,18.3280769 1783.78135,18.3280769 C1781.78327,18.3280769 1779.90058,18.8146154 1778.23135,19.6588462 C1778.04673,13.0203846 1772.61981,7.69153846 1765.93519,7.69153846 C1759.37365,7.69153846 1754.02558,12.83 1753.66019,19.3011538 C1752.18135,18.6742308 1750.55635,18.3280769 1748.85058,18.3280769 C1742.05058,18.3280769 1736.53712,23.8396154 1736.53712,30.6396154 C1736.53712,37.4396154 1742.05058,42.9511538 1748.85058,42.9511538 L1784.76404,42.9511538 L1784.76404,42.9030769 C1791.1025,42.3992308 1796.09288,37.1069231 1796.09288,30.6396154" id="Fill-1" fill="#FFFFFF" mask="url(#mask-2)"></path>
            <path d="M2367.24808,165.255769 C2367.24808,158.455769 2361.73654,152.944231 2354.93654,152.944231 C2352.93846,152.944231 2351.05577,153.430769 2349.38654,154.275 C2349.20192,147.636538 2343.775,142.307692 2337.09038,142.307692 C2330.52885,142.307692 2325.18077,147.446154 2324.81538,153.917308 C2323.33654,153.290385 2321.71154,152.944231 2320.00577,152.944231 C2313.20577,152.944231 2307.69231,158.455769 2307.69231,165.255769 C2307.69231,172.055769 2313.20577,177.567308 2320.00577,177.567308 L2355.91923,177.567308 L2355.91923,177.519231 C2362.25769,177.015385 2367.24808,171.723077 2367.24808,165.255769" id="Fill-1-Copy-7" fill="#FFFFFF" mask="url(#mask-2)"></path>
            <path d="M967.248077,55.6403846 C967.248077,48.8403846 961.736538,43.3288462 954.936538,43.3288462 C952.938462,43.3288462 951.055769,43.8153846 949.386538,44.6596154 C949.201923,38.0211538 943.775,32.6923077 937.090385,32.6923077 C930.528846,32.6923077 925.180769,37.8307692 924.815385,44.3019231 C923.336538,43.675 921.711538,43.3288462 920.005769,43.3288462 C913.205769,43.3288462 907.692308,48.8403846 907.692308,55.6403846 C907.692308,62.4403846 913.205769,67.9519231 920.005769,67.9519231 L955.919231,67.9519231 L955.919231,67.9038462 C962.257692,67.4 967.248077,62.1076923 967.248077,55.6403846" id="Fill-1-Copy-6" fill="#FFFFFF" mask="url(#mask-2)"></path>
            <path d="M1992.30769,103.480733 C1992.30769,99.030228 1988.7483,95.4230035 1984.35681,95.4230035 C1983.06644,95.4230035 1981.85059,95.7414361 1980.77258,96.2939733 C1980.65336,91.9491934 1977.14861,88.4615385 1972.83164,88.4615385 C1968.59415,88.4615385 1965.14033,91.8245894 1964.90436,96.0598687 C1963.94931,95.6495563 1962.89987,95.4230035 1961.79827,95.4230035 C1957.40679,95.4230035 1953.84615,99.030228 1953.84615,103.480733 C1953.84615,107.931237 1957.40679,111.538462 1961.79827,111.538462 L1984.99144,111.538462 L1984.99144,111.506996 C1989.08487,111.177236 1992.30769,107.713495 1992.30769,103.480733" id="Fill-1-Copy-9" fill="#FFFFFF" mask="url(#mask-2)"></path>
            <path d="M2478.84615,59.2499633 C2478.84615,54.7994588 2475.28676,51.1922343 2470.89527,51.1922343 C2469.6049,51.1922343 2468.38905,51.5106669 2467.31105,52.063204 C2467.19182,47.7184242 2463.68707,44.2307692 2459.3701,44.2307692 C2455.13261,44.2307692 2451.67879,47.5938201 2451.44282,51.8290995 C2450.48777,51.4187871 2449.43833,51.1922343 2448.33674,51.1922343 C2443.94525,51.1922343 2440.38462,54.7994588 2440.38462,59.2499633 C2440.38462,63.7004678 2443.94525,67.3076923 2448.33674,67.3076923 L2471.5299,67.3076923 L2471.5299,67.2762266 C2475.62333,66.9464664 2478.84615,63.4827253 2478.84615,59.2499633" id="Fill-1-Copy-10" fill="#FFFFFF" mask="url(#mask-2)"></path>
            <path d="M211.478846,147.948077 C211.478846,141.148077 205.967308,135.636538 199.167308,135.636538 C197.169231,135.636538 195.286538,136.123077 193.617308,136.967308 C193.432692,130.328846 188.005769,125 181.321154,125 C174.759615,125 169.411538,130.138462 169.046154,136.609615 C167.567308,135.982692 165.942308,135.636538 164.236538,135.636538 C157.436538,135.636538 151.923077,141.148077 151.923077,147.948077 C151.923077,154.748077 157.436538,160.259615 164.236538,160.259615 L200.15,160.259615 L200.15,160.211538 C206.488462,159.707692 211.478846,154.415385 211.478846,147.948077" id="Fill-1-Copy-8" fill="#FFFFFF" mask="url(#mask-2)"></path>
            <path d="M753.705769,128.703846 C753.705769,119.057692 745.886538,111.238462 736.240385,111.238462 C733.405769,111.238462 730.738462,111.928846 728.369231,113.128846 C728.107692,103.711538 720.411538,96.1538462 710.930769,96.1538462 C701.621154,96.1538462 694.034615,103.442308 693.517308,112.623077 C691.421154,111.732692 689.115385,111.238462 686.696154,111.238462 C677.05,111.238462 669.230769,119.057692 669.230769,128.703846 C669.230769,138.35 677.05,146.167308 686.696154,146.167308 L737.638462,146.167308 L737.638462,146.098077 C746.628846,145.384615 753.705769,137.878846 753.705769,128.703846" id="Fill-1-Copy-3" fill="#F9FAFB" mask="url(#mask-2)"></path>
            <path d="M111.398077,59.4730769 C111.398077,49.8269231 103.578846,42.0076923 93.9326923,42.0076923 C91.0980769,42.0076923 88.4307692,42.6980769 86.0615385,43.8980769 C85.8,34.4807692 78.1038462,26.9230769 68.6230769,26.9230769 C59.3134615,26.9230769 51.7269231,34.2115385 51.2096154,43.3923077 C49.1134615,42.5019231 46.8076923,42.0076923 44.3884615,42.0076923 C34.7423077,42.0076923 26.9230769,49.8269231 26.9230769,59.4730769 C26.9230769,69.1192308 34.7423077,76.9365385 44.3884615,76.9365385 L95.3307692,76.9365385 L95.3307692,76.8673077 C104.321154,76.1538462 111.398077,68.6480769 111.398077,59.4730769" id="Fill-1-Copy-5" fill="#F9FAFB" mask="url(#mask-2)"></path>
            <path d="M1653.70577,128.703846 C1653.70577,119.057692 1645.88654,111.238462 1636.24038,111.238462 C1633.40577,111.238462 1630.73846,111.928846 1628.36923,113.128846 C1628.10769,103.711538 1620.41154,96.1538462 1610.93077,96.1538462 C1601.62115,96.1538462 1594.03462,103.442308 1593.51731,112.623077 C1591.42115,111.732692 1589.11538,111.238462 1586.69615,111.238462 C1577.05,111.238462 1569.23077,119.057692 1569.23077,128.703846 C1569.23077,138.35 1577.05,146.167308 1586.69615,146.167308 L1637.63846,146.167308 L1637.63846,146.098077 C1646.62885,145.384615 1653.70577,137.878846 1653.70577,128.703846" id="Fill-1-Copy" fill="#F9FAFB" mask="url(#mask-2)"></path>
            <path d="M2038.32115,53.7038462 C2038.32115,44.0576923 2030.50192,36.2384615 2020.85577,36.2384615 C2018.02115,36.2384615 2015.35385,36.9288462 2012.98462,38.1288462 C2012.72308,28.7115385 2005.02692,21.1538462 1995.54615,21.1538462 C1986.23654,21.1538462 1978.65,28.4423077 1978.13269,37.6230769 C1976.03654,36.7326923 1973.73077,36.2384615 1971.31154,36.2384615 C1961.66538,36.2384615 1953.84615,44.0576923 1953.84615,53.7038462 C1953.84615,63.35 1961.66538,71.1673077 1971.31154,71.1673077 L2022.25385,71.1673077 L2022.25385,71.0980769 C2031.24423,70.3846154 2038.32115,62.8788462 2038.32115,53.7038462" id="Fill-1-Copy-2" fill="#F9FAFB" mask="url(#mask-2)"></path>
            <path d="M2659.475,65.2423077 C2659.475,55.5961538 2651.65577,47.7769231 2642.00962,47.7769231 C2639.175,47.7769231 2636.50769,48.4673077 2634.13846,49.6673077 C2633.87692,40.25 2626.18077,32.6923077 2616.7,32.6923077 C2607.39038,32.6923077 2599.80385,39.9807692 2599.28654,49.1615385 C2597.19038,48.2711538 2594.88462,47.7769231 2592.46538,47.7769231 C2582.81923,47.7769231 2575,55.5961538 2575,65.2423077 C2575,74.8884615 2582.81923,82.7057692 2592.46538,82.7057692 L2643.40769,82.7057692 L2643.40769,82.6365385 C2652.39808,81.9230769 2659.475,74.4173077 2659.475,65.2423077" id="Fill-1-Copy-4" fill="#F9FAFB" mask="url(#mask-2)"></path>
            <g id="Group-66" opacity="0.5" mask="url(#mask-2)">
                <g transform="translate(1098.076923, -11.538462)">
                    <polygon id="Fill-1" fill="#A9CEFF" points="217.307692 307.692308 284.615385 307.692308 284.615385 73.0769231 217.307692 73.0769231"></polygon>
                    <polygon id="Fill-2" fill="#6C8EDB" points="130.769231 321.153846 190.384615 321.153846 190.384615 90.3846154 130.769231 90.3846154"></polygon>
                    <polygon id="Fill-3" fill="#6C8EDB" points="448.076923 321.153846 498.076923 321.153846 498.076923 23.0769231 448.076923 23.0769231"></polygon>
                    <polygon id="Fill-4" fill="#6C8EDB" points="282.692308 321.153846 342.307692 321.153846 342.307692 34.6153846 282.692308 34.6153846"></polygon>
                    <polygon id="Fill-5" fill="#6C8EDB" points="378.846154 321.153846 438.461538 321.153846 438.461538 79.960487 378.846154 34.6153846"></polygon>
                    <polygon id="Fill-9" fill="#7CA7F2" points="576.923077 211.538462 646.153846 211.538462 646.153846 96.1538462 576.923077 96.1538462"></polygon>
                    <polygon id="Fill-10" fill="#6C8EDB" points="353.846154 321.153846 692.307692 321.153846 692.307692 203.846154 353.846154 203.846154"></polygon>
                    <polygon id="Fill-11" fill="#86BDDA" points="76.9230769 321.153846 134.615385 321.153846 134.615385 103.846154 76.9230769 103.846154"></polygon>
                    <polygon id="Fill-13" fill="#A9CEFF" points="407.692308 321.153846 473.076923 321.153846 473.076923 159.615385 407.692308 159.615385"></polygon>
                    <polygon id="Fill-15" fill="#A9CEFF" points="538.461538 321.153846 576.923077 321.153846 576.923077 67.3076923 538.461538 67.3076923"></polygon>
                    <polygon id="Fill-15-Copy" fill="#A9CEFF" points="842.307692 321.153846 896.153846 321.153846 896.153846 190.384615 842.307692 190.384615"></polygon>
                    <polygon id="Fill-32" fill="#D6ECEF" points="855.769231 209.615385 865.384615 209.615385 865.384615 200 855.769231 200"></polygon>
                    <polygon id="Fill-33" fill="#D6ECEF" points="873.076923 209.615385 882.692308 209.615385 882.692308 200 873.076923 200"></polygon>
                    <polygon id="Fill-34" fill="#D6ECEF" points="855.769231 226.923077 865.384615 226.923077 865.384615 217.307692 855.769231 217.307692"></polygon>
                    <polygon id="Fill-35" fill="#D6ECEF" points="873.076923 226.923077 882.692308 226.923077 882.692308 217.307692 873.076923 217.307692"></polygon>
                    <polygon id="Fill-36" fill="#D6ECEF" points="609.615385 132.692308 638.461538 132.692308 638.461538 103.846154 609.615385 103.846154"></polygon>
                    <polygon id="Fill-37" fill="#D6ECEF" points="873.076923 248.076923 882.692308 248.076923 882.692308 238.461538 873.076923 238.461538"></polygon>
                    <polygon id="Fill-37-Copy" fill="#D6ECEF" points="855.769231 248.076923 865.384615 248.076923 865.384615 238.461538 855.769231 238.461538"></polygon>
                    <polygon id="Fill-38" fill="#D6ECEF" points="855.769231 269.230769 865.384615 269.230769 865.384615 259.615385 855.769231 259.615385"></polygon>
                    <polygon id="Fill-39" fill="#D6ECEF" points="873.076923 269.230769 882.692308 269.230769 882.692308 259.615385 873.076923 259.615385"></polygon>
                    <polygon id="Fill-17" fill="#A9CEFF" points="334.615385 321.153846 382.692308 321.153846 382.692308 80.7692308 334.615385 80.7692308"></polygon>
                    <polygon id="Fill-22" fill="#D6ECEF" points="342.307692 96.1538462 380.769231 96.1538462 380.769231 88.4615385 342.307692 88.4615385"></polygon>
                    <polygon id="Fill-23" fill="#D6ECEF" points="342.307692 109.615385 380.769231 109.615385 380.769231 101.923077 342.307692 101.923077"></polygon>
                    <polygon id="Fill-24" fill="#D6ECEF" points="342.307692 123.076923 380.769231 123.076923 380.769231 115.384615 342.307692 115.384615"></polygon>
                    <polygon id="Fill-25" fill="#D6ECEF" points="342.307692 134.615385 380.769231 134.615385 380.769231 126.923077 342.307692 126.923077"></polygon>
                    <polygon id="Fill-26" fill="#D6ECEF" points="342.307692 150 380.769231 150 380.769231 142.307692 342.307692 142.307692"></polygon>
                    <polygon id="Fill-27" fill="#D6ECEF" points="342.307692 161.538462 380.769231 161.538462 380.769231 153.846154 342.307692 153.846154"></polygon>
                    <polygon id="Fill-28" fill="#D6ECEF" points="342.307692 176.923077 380.769231 176.923077 380.769231 169.230769 342.307692 169.230769"></polygon>
                    <polygon id="Fill-29" fill="#D6ECEF" points="342.307692 188.461538 380.769231 188.461538 380.769231 180.769231 342.307692 180.769231"></polygon>
                    <polygon id="Fill-185" fill="#D6ECEF" points="342.307692 201.923077 380.769231 201.923077 380.769231 194.230769 342.307692 194.230769"></polygon>
                    <polygon id="Fill-32" fill="#D6ECEF" points="542.307692 84.6153846 551.923077 84.6153846 551.923077 78.8461538 542.307692 78.8461538"></polygon>
                    <polygon id="Fill-33" fill="#D6ECEF" points="559.615385 84.6153846 569.230769 84.6153846 569.230769 78.8461538 559.615385 78.8461538"></polygon>
                    <polygon id="Fill-34" fill="#D6ECEF" points="542.307692 94.2307692 551.923077 94.2307692 551.923077 88.4615385 542.307692 88.4615385"></polygon>
                    <polygon id="Fill-35" fill="#D6ECEF" points="559.615385 94.2307692 569.230769 94.2307692 569.230769 88.4615385 559.615385 88.4615385"></polygon>
                    <polygon id="Fill-36" fill="#D6ECEF" points="542.307692 105.769231 551.923077 105.769231 551.923077 100 542.307692 100"></polygon>
                    <polygon id="Fill-37" fill="#D6ECEF" points="559.615385 105.769231 569.230769 105.769231 569.230769 100 559.615385 100"></polygon>
                    <polygon id="Fill-38" fill="#D6ECEF" points="542.307692 119.230769 551.923077 119.230769 551.923077 113.461538 542.307692 113.461538"></polygon>
                    <polygon id="Fill-39" fill="#D6ECEF" points="559.615385 119.230769 569.230769 119.230769 569.230769 113.461538 559.615385 113.461538"></polygon>
                    <polygon id="Fill-40" fill="#D6ECEF" points="542.307692 130.769231 551.923077 130.769231 551.923077 125 542.307692 125"></polygon>
                    <polygon id="Fill-41" fill="#D6ECEF" points="559.615385 130.769231 569.230769 130.769231 569.230769 125 559.615385 125"></polygon>
                    <polygon id="Fill-42" fill="#D6ECEF" points="542.307692 142.307692 551.923077 142.307692 551.923077 136.538462 542.307692 136.538462"></polygon>
                    <polygon id="Fill-43" fill="#D6ECEF" points="559.615385 142.307692 569.230769 142.307692 569.230769 136.538462 559.615385 136.538462"></polygon>
                    <polygon id="Fill-44" fill="#D6ECEF" points="542.307692 153.846154 551.923077 153.846154 551.923077 148.076923 542.307692 148.076923"></polygon>
                    <polygon id="Fill-45" fill="#D6ECEF" points="559.615385 153.846154 569.230769 153.846154 569.230769 148.076923 559.615385 148.076923"></polygon>
                    <polygon id="Fill-46" fill="#D6ECEF" points="542.307692 165.384615 551.923077 165.384615 551.923077 159.615385 542.307692 159.615385"></polygon>
                    <polygon id="Fill-47" fill="#D6ECEF" points="559.615385 165.384615 569.230769 165.384615 569.230769 159.615385 559.615385 159.615385"></polygon>
                    <polygon id="Fill-48" fill="#D6ECEF" points="542.307692 176.923077 551.923077 176.923077 551.923077 171.153846 542.307692 171.153846"></polygon>
                    <polygon id="Fill-49" fill="#D6ECEF" points="559.615385 176.923077 569.230769 176.923077 569.230769 171.153846 559.615385 171.153846"></polygon>
                    <polygon id="Fill-50" fill="#D6ECEF" points="542.307692 188.461538 551.923077 188.461538 551.923077 182.692308 542.307692 182.692308"></polygon>
                    <polygon id="Fill-51" fill="#D6ECEF" points="559.615385 188.461538 569.230769 188.461538 569.230769 182.692308 559.615385 182.692308"></polygon>
                    <polygon id="Fill-52" fill="#D6ECEF" points="542.307692 200 551.923077 200 551.923077 194.230769 542.307692 194.230769"></polygon>
                    <polygon id="Fill-53" fill="#D6ECEF" points="559.615385 200 569.230769 200 569.230769 194.230769 559.615385 194.230769"></polygon>
                    <polygon id="Fill-54" fill="#D6ECEF" points="542.307692 213.461538 551.923077 213.461538 551.923077 207.692308 542.307692 207.692308"></polygon>
                    <polygon id="Fill-55" fill="#D6ECEF" points="559.615385 213.461538 569.230769 213.461538 569.230769 207.692308 559.615385 207.692308"></polygon>
                    <polygon id="Fill-56" fill="#D6ECEF" points="82.6923077 128.846154 100 128.846154 100 113.461538 82.6923077 113.461538"></polygon>
                    <polygon id="Fill-57" fill="#D6ECEF" points="82.6923077 180.769231 100 180.769231 100 165.384615 82.6923077 165.384615"></polygon>
                    <polygon id="Fill-58" fill="#D6ECEF" points="107.692308 157.692308 125 157.692308 125 142.307692 107.692308 142.307692"></polygon>
                    <polygon id="Fill-59" fill="#D6ECEF" points="107.692308 209.615385 125 209.615385 125 194.230769 107.692308 194.230769"></polygon>
                    <polygon id="Fill-61" fill="#6C8EDB" points="642.307692 309.615385 736.538462 309.615385 736.538462 176.923077 642.307692 176.923077"></polygon>
                    <polygon id="Fill-62" fill="#6C8EDB" points="57.6923077 323.076923 134.615385 323.076923 134.615385 190.384615 57.6923077 190.384615"></polygon>
                    <polygon id="Fill-62-Copy" fill="#6C8EDB" points="182.692308 323.076923 259.615385 323.076923 259.615385 244.230769 182.692308 244.230769"></polygon>
                    <polygon id="Fill-63" fill="#6C8EDB" points="0 311.538462 65.3846154 311.538462 65.3846154 80.7692308 0 80.7692308"></polygon>
                    <polygon id="Fill-64" fill="#6C8EDB" points="776.923077 311.538462 842.307692 311.538462 842.307692 80.7692308 776.923077 80.7692308"></polygon>
                    <polygon id="Fill-65" fill="#6C8EDB" points="732.692308 319.230769 811.538462 319.230769 811.538462 225 732.692308 225"></polygon>
                </g>
            </g>
            <g id="Group-66-Copy-2" opacity="0.5" mask="url(#mask-2)">
                <g transform="translate(203.846154, -11.538462)">
                    <polygon id="Fill-1" fill="#72B2CD" points="217.307692 307.692308 284.615385 307.692308 284.615385 73.0769231 217.307692 73.0769231"></polygon>
                    <polygon id="Fill-2" fill="#A9CEFF" points="130.769231 321.153846 190.384615 321.153846 190.384615 90.3846154 130.769231 90.3846154"></polygon>
                    <polygon id="Fill-3" fill="#7CA7F2" points="448.076923 321.153846 498.076923 321.153846 498.076923 23.0769231 448.076923 23.0769231"></polygon>
                    <polygon id="Fill-4" fill="#A9CEFF" points="282.692308 321.153846 342.307692 321.153846 342.307692 34.6153846 282.692308 34.6153846"></polygon>
                    <polygon id="Fill-5" fill="#7CA7F2" points="378.846154 321.153846 438.461538 321.153846 438.461538 79.960487 378.846154 34.6153846"></polygon>
                    <polygon id="Fill-9" fill="#A9CEFF" points="576.923077 211.538462 646.153846 211.538462 646.153846 96.1538462 576.923077 96.1538462"></polygon>
                    <polygon id="Fill-10" fill="#6C8EDB" points="353.846154 321.153846 692.307692 321.153846 692.307692 203.846154 353.846154 203.846154"></polygon>
                    <polygon id="Fill-11" fill="#86BDDA" points="76.9230769 321.153846 134.615385 321.153846 134.615385 103.846154 76.9230769 103.846154"></polygon>
                    <polygon id="Fill-13" fill="#A9CEFF" points="407.692308 321.153846 473.076923 321.153846 473.076923 159.615385 407.692308 159.615385"></polygon>
                    <polygon id="Fill-15" fill="#A9CEFF" points="538.461538 321.153846 576.923077 321.153846 576.923077 67.3076923 538.461538 67.3076923"></polygon>
                    <polygon id="Fill-15-Copy" fill="#86BDDA" points="842.307692 321.153846 896.153846 321.153846 896.153846 190.384615 842.307692 190.384615"></polygon>
                    <polygon id="Fill-32" fill="#D6ECEF" points="855.769231 209.615385 865.384615 209.615385 865.384615 200 855.769231 200"></polygon>
                    <polygon id="Fill-33" fill="#D6ECEF" points="873.076923 209.615385 882.692308 209.615385 882.692308 200 873.076923 200"></polygon>
                    <polygon id="Fill-34" fill="#D6ECEF" points="855.769231 226.923077 865.384615 226.923077 865.384615 217.307692 855.769231 217.307692"></polygon>
                    <polygon id="Fill-35" fill="#D6ECEF" points="873.076923 226.923077 882.692308 226.923077 882.692308 217.307692 873.076923 217.307692"></polygon>
                    <polygon id="Fill-36" fill="#D6ECEF" points="855.769231 248.076923 865.384615 248.076923 865.384615 238.461538 855.769231 238.461538"></polygon>
                    <polygon id="Fill-37" fill="#D6ECEF" points="873.076923 248.076923 882.692308 248.076923 882.692308 238.461538 873.076923 238.461538"></polygon>
                    <polygon id="Fill-38" fill="#D6ECEF" points="855.769231 269.230769 865.384615 269.230769 865.384615 259.615385 855.769231 259.615385"></polygon>
                    <polygon id="Fill-39" fill="#D6ECEF" points="873.076923 269.230769 882.692308 269.230769 882.692308 259.615385 873.076923 259.615385"></polygon>
                    <polygon id="Fill-17" fill="#A9CEFF" points="334.615385 321.153846 382.692308 321.153846 382.692308 80.7692308 334.615385 80.7692308"></polygon>
                    <polygon id="Fill-22" fill="#D6ECEF" points="342.307692 96.1538462 380.769231 96.1538462 380.769231 88.4615385 342.307692 88.4615385"></polygon>
                    <polygon id="Fill-23" fill="#D6ECEF" points="342.307692 109.615385 380.769231 109.615385 380.769231 101.923077 342.307692 101.923077"></polygon>
                    <polygon id="Fill-24" fill="#D6ECEF" points="342.307692 123.076923 380.769231 123.076923 380.769231 115.384615 342.307692 115.384615"></polygon>
                    <polygon id="Fill-25" fill="#D6ECEF" points="342.307692 134.615385 380.769231 134.615385 380.769231 126.923077 342.307692 126.923077"></polygon>
                    <polygon id="Fill-26" fill="#D6ECEF" points="342.307692 150 380.769231 150 380.769231 142.307692 342.307692 142.307692"></polygon>
                    <polygon id="Fill-27" fill="#D6ECEF" points="342.307692 161.538462 380.769231 161.538462 380.769231 153.846154 342.307692 153.846154"></polygon>
                    <polygon id="Fill-28" fill="#D6ECEF" points="342.307692 176.923077 380.769231 176.923077 380.769231 169.230769 342.307692 169.230769"></polygon>
                    <polygon id="Fill-29" fill="#D6ECEF" points="342.307692 188.461538 380.769231 188.461538 380.769231 180.769231 342.307692 180.769231"></polygon>
                    <polygon id="Fill-185" fill="#D6ECEF" points="342.307692 201.923077 380.769231 201.923077 380.769231 194.230769 342.307692 194.230769"></polygon>
                    <polygon id="Fill-32" fill="#D6ECEF" points="542.307692 84.6153846 551.923077 84.6153846 551.923077 78.8461538 542.307692 78.8461538"></polygon>
                    <polygon id="Fill-33" fill="#D6ECEF" points="559.615385 84.6153846 569.230769 84.6153846 569.230769 78.8461538 559.615385 78.8461538"></polygon>
                    <polygon id="Fill-34" fill="#D6ECEF" points="542.307692 94.2307692 551.923077 94.2307692 551.923077 88.4615385 542.307692 88.4615385"></polygon>
                    <polygon id="Fill-35" fill="#D6ECEF" points="559.615385 94.2307692 569.230769 94.2307692 569.230769 88.4615385 559.615385 88.4615385"></polygon>
                    <polygon id="Fill-36" fill="#D6ECEF" points="542.307692 105.769231 551.923077 105.769231 551.923077 100 542.307692 100"></polygon>
                    <polygon id="Fill-37" fill="#D6ECEF" points="559.615385 105.769231 569.230769 105.769231 569.230769 100 559.615385 100"></polygon>
                    <polygon id="Fill-38" fill="#D6ECEF" points="542.307692 119.230769 551.923077 119.230769 551.923077 113.461538 542.307692 113.461538"></polygon>
                    <polygon id="Fill-39" fill="#D6ECEF" points="559.615385 119.230769 569.230769 119.230769 569.230769 113.461538 559.615385 113.461538"></polygon>
                    <polygon id="Fill-40" fill="#D6ECEF" points="542.307692 130.769231 551.923077 130.769231 551.923077 125 542.307692 125"></polygon>
                    <polygon id="Fill-41" fill="#D6ECEF" points="559.615385 130.769231 569.230769 130.769231 569.230769 125 559.615385 125"></polygon>
                    <polygon id="Fill-42" fill="#D6ECEF" points="542.307692 142.307692 551.923077 142.307692 551.923077 136.538462 542.307692 136.538462"></polygon>
                    <polygon id="Fill-43" fill="#D6ECEF" points="559.615385 142.307692 569.230769 142.307692 569.230769 136.538462 559.615385 136.538462"></polygon>
                    <polygon id="Fill-44" fill="#D6ECEF" points="542.307692 153.846154 551.923077 153.846154 551.923077 148.076923 542.307692 148.076923"></polygon>
                    <polygon id="Fill-45" fill="#D6ECEF" points="559.615385 153.846154 569.230769 153.846154 569.230769 148.076923 559.615385 148.076923"></polygon>
                    <polygon id="Fill-46" fill="#D6ECEF" points="542.307692 165.384615 551.923077 165.384615 551.923077 159.615385 542.307692 159.615385"></polygon>
                    <polygon id="Fill-47" fill="#D6ECEF" points="559.615385 165.384615 569.230769 165.384615 569.230769 159.615385 559.615385 159.615385"></polygon>
                    <polygon id="Fill-48" fill="#D6ECEF" points="542.307692 176.923077 551.923077 176.923077 551.923077 171.153846 542.307692 171.153846"></polygon>
                    <polygon id="Fill-49" fill="#D6ECEF" points="559.615385 176.923077 569.230769 176.923077 569.230769 171.153846 559.615385 171.153846"></polygon>
                    <polygon id="Fill-50" fill="#D6ECEF" points="542.307692 188.461538 551.923077 188.461538 551.923077 182.692308 542.307692 182.692308"></polygon>
                    <polygon id="Fill-51" fill="#D6ECEF" points="559.615385 188.461538 569.230769 188.461538 569.230769 182.692308 559.615385 182.692308"></polygon>
                    <polygon id="Fill-52" fill="#D6ECEF" points="542.307692 200 551.923077 200 551.923077 194.230769 542.307692 194.230769"></polygon>
                    <polygon id="Fill-53" fill="#D6ECEF" points="559.615385 200 569.230769 200 569.230769 194.230769 559.615385 194.230769"></polygon>
                    <polygon id="Fill-54" fill="#D6ECEF" points="542.307692 213.461538 551.923077 213.461538 551.923077 207.692308 542.307692 207.692308"></polygon>
                    <polygon id="Fill-55" fill="#D6ECEF" points="559.615385 213.461538 569.230769 213.461538 569.230769 207.692308 559.615385 207.692308"></polygon>
                    <polygon id="Fill-56" fill="#D6ECEF" points="82.6923077 128.846154 100 128.846154 100 113.461538 82.6923077 113.461538"></polygon>
                    <polygon id="Fill-57" fill="#D6ECEF" points="82.6923077 180.769231 100 180.769231 100 165.384615 82.6923077 165.384615"></polygon>
                    <polygon id="Fill-58" fill="#D6ECEF" points="107.692308 157.692308 125 157.692308 125 142.307692 107.692308 142.307692"></polygon>
                    <polygon id="Fill-59" fill="#D6ECEF" points="107.692308 209.615385 125 209.615385 125 194.230769 107.692308 194.230769"></polygon>
                    <polygon id="Fill-61" fill="#6C8EDB" points="642.307692 309.615385 736.538462 309.615385 736.538462 176.923077 642.307692 176.923077"></polygon>
                    <polygon id="Fill-62" fill="#A9CEFF" points="57.6923077 323.076923 134.615385 323.076923 134.615385 190.384615 57.6923077 190.384615"></polygon>
                    <polygon id="Fill-62-Copy" fill="#7CA7F2" points="182.692308 323.076923 259.615385 323.076923 259.615385 244.230769 182.692308 244.230769"></polygon>
                    <polygon id="Fill-63" fill="#A9CEFF" points="0 311.538462 65.3846154 311.538462 65.3846154 80.7692308 0 80.7692308"></polygon>
                    <polygon id="Fill-64" fill="#6C8EDB" points="776.923077 311.538462 842.307692 311.538462 842.307692 80.7692308 776.923077 80.7692308"></polygon>
                    <polygon id="Fill-65" fill="#6C8EDB" points="746.153846 319.230769 811.538462 319.230769 811.538462 186.538462 746.153846 186.538462"></polygon>
                </g>
            </g>
            <g id="Group-66-Copy-3" opacity="0.5" mask="url(#mask-2)">
                <g transform="translate(-692.307692, -11.538462)">
                    <polygon id="Fill-15-Copy" fill="#6C8EDB" points="842.307692 321.153846 896.153846 321.153846 896.153846 190.384615 842.307692 190.384615"></polygon>
                    <polygon id="Fill-32" fill="#D6ECEF" points="855.769231 209.615385 865.384615 209.615385 865.384615 200 855.769231 200"></polygon>
                    <polygon id="Fill-33" fill="#D6ECEF" points="873.076923 209.615385 882.692308 209.615385 882.692308 200 873.076923 200"></polygon>
                    <polygon id="Fill-34" fill="#D6ECEF" points="855.769231 226.923077 865.384615 226.923077 865.384615 217.307692 855.769231 217.307692"></polygon>
                    <polygon id="Fill-35" fill="#D6ECEF" points="873.076923 226.923077 882.692308 226.923077 882.692308 217.307692 873.076923 217.307692"></polygon>
                    <polygon id="Fill-36" fill="#D6ECEF" points="855.769231 248.076923 865.384615 248.076923 865.384615 238.461538 855.769231 238.461538"></polygon>
                    <polygon id="Fill-37" fill="#D6ECEF" points="873.076923 248.076923 882.692308 248.076923 882.692308 238.461538 873.076923 238.461538"></polygon>
                    <polygon id="Fill-38" fill="#D6ECEF" points="855.769231 269.230769 865.384615 269.230769 865.384615 259.615385 855.769231 259.615385"></polygon>
                    <polygon id="Fill-39" fill="#D6ECEF" points="873.076923 269.230769 882.692308 269.230769 882.692308 259.615385 873.076923 259.615385"></polygon>
                    <polygon id="Fill-61" fill="#6C8EDB" points="642.307692 309.615385 736.538462 309.615385 736.538462 176.923077 642.307692 176.923077"></polygon>
                    <polygon id="Fill-64" fill="#6C8EDB" points="776.923077 311.538462 842.307692 311.538462 842.307692 80.7692308 776.923077 80.7692308"></polygon>
                    <polygon id="Fill-65" fill="#6C8EDB" points="746.153846 319.230769 811.538462 319.230769 811.538462 186.538462 746.153846 186.538462"></polygon>
                </g>
            </g>
            <g id="Group-66-Copy" opacity="0.5" mask="url(#mask-2)">
                <g transform="translate(1994.230769, -11.538462)">
                    <polygon id="Fill-1" fill="#A9CEFF" points="217.307692 307.692308 284.615385 307.692308 284.615385 73.0769231 217.307692 73.0769231"></polygon>
                    <polygon id="Fill-2" fill="#6C8EDB" points="130.769231 321.153846 190.384615 321.153846 190.384615 90.3846154 130.769231 90.3846154"></polygon>
                    <polygon id="Fill-3" fill="#6C8EDB" points="448.076923 321.153846 498.076923 321.153846 498.076923 109.615385 448.076923 109.615385"></polygon>
                    <polygon id="Fill-4" fill="#6C8EDB" points="282.692308 321.153846 342.307692 321.153846 342.307692 34.6153846 282.692308 34.6153846"></polygon>
                    <polygon id="Fill-5" fill="#6C8EDB" points="378.846154 321.153846 438.461538 321.153846 438.461538 79.960487 378.846154 34.6153846"></polygon>
                    <polygon id="Fill-9" fill="#6C8EDB" points="576.923077 211.538462 646.153846 211.538462 646.153846 96.1538462 576.923077 96.1538462"></polygon>
                    <polygon id="Fill-10" fill="#6C8EDB" points="353.846154 321.153846 692.307692 321.153846 692.307692 203.846154 353.846154 203.846154"></polygon>
                    <polygon id="Fill-11" fill="#86BDDA" points="76.9230769 321.153846 134.615385 321.153846 134.615385 103.846154 76.9230769 103.846154"></polygon>
                    <polygon id="Fill-13" fill="#A9CEFF" points="407.692308 321.153846 473.076923 321.153846 473.076923 159.615385 407.692308 159.615385"></polygon>
                    <polygon id="Fill-15" fill="#A9CEFF" points="538.461538 321.153846 576.923077 321.153846 576.923077 67.3076923 538.461538 67.3076923"></polygon>
                    <polygon id="Fill-17" fill="#A9CEFF" points="334.615385 321.153846 382.692308 321.153846 382.692308 80.7692308 334.615385 80.7692308"></polygon>
                    <polygon id="Fill-22" fill="#D6ECEF" points="342.307692 96.1538462 380.769231 96.1538462 380.769231 88.4615385 342.307692 88.4615385"></polygon>
                    <polygon id="Fill-23" fill="#D6ECEF" points="342.307692 109.615385 380.769231 109.615385 380.769231 101.923077 342.307692 101.923077"></polygon>
                    <polygon id="Fill-24" fill="#D6ECEF" points="342.307692 123.076923 380.769231 123.076923 380.769231 115.384615 342.307692 115.384615"></polygon>
                    <polygon id="Fill-25" fill="#D6ECEF" points="342.307692 134.615385 380.769231 134.615385 380.769231 126.923077 342.307692 126.923077"></polygon>
                    <polygon id="Fill-26" fill="#D6ECEF" points="342.307692 150 380.769231 150 380.769231 142.307692 342.307692 142.307692"></polygon>
                    <polygon id="Fill-27" fill="#D6ECEF" points="342.307692 161.538462 380.769231 161.538462 380.769231 153.846154 342.307692 153.846154"></polygon>
                    <polygon id="Fill-28" fill="#D6ECEF" points="342.307692 176.923077 380.769231 176.923077 380.769231 169.230769 342.307692 169.230769"></polygon>
                    <polygon id="Fill-29" fill="#D6ECEF" points="342.307692 188.461538 380.769231 188.461538 380.769231 180.769231 342.307692 180.769231"></polygon>
                    <polygon id="Fill-185" fill="#D6ECEF" points="342.307692 201.923077 380.769231 201.923077 380.769231 194.230769 342.307692 194.230769"></polygon>
                    <polygon id="Fill-32" fill="#D6ECEF" points="542.307692 84.6153846 551.923077 84.6153846 551.923077 78.8461538 542.307692 78.8461538"></polygon>
                    <polygon id="Fill-33" fill="#D6ECEF" points="559.615385 84.6153846 569.230769 84.6153846 569.230769 78.8461538 559.615385 78.8461538"></polygon>
                    <polygon id="Fill-34" fill="#D6ECEF" points="542.307692 94.2307692 551.923077 94.2307692 551.923077 88.4615385 542.307692 88.4615385"></polygon>
                    <polygon id="Fill-35" fill="#D6ECEF" points="559.615385 94.2307692 569.230769 94.2307692 569.230769 88.4615385 559.615385 88.4615385"></polygon>
                    <polygon id="Fill-36" fill="#D6ECEF" points="542.307692 105.769231 551.923077 105.769231 551.923077 100 542.307692 100"></polygon>
                    <polygon id="Fill-37" fill="#D6ECEF" points="559.615385 105.769231 569.230769 105.769231 569.230769 100 559.615385 100"></polygon>
                    <polygon id="Fill-38" fill="#D6ECEF" points="542.307692 119.230769 551.923077 119.230769 551.923077 113.461538 542.307692 113.461538"></polygon>
                    <polygon id="Fill-39" fill="#D6ECEF" points="559.615385 119.230769 569.230769 119.230769 569.230769 113.461538 559.615385 113.461538"></polygon>
                    <polygon id="Fill-40" fill="#D6ECEF" points="542.307692 130.769231 551.923077 130.769231 551.923077 125 542.307692 125"></polygon>
                    <polygon id="Fill-41" fill="#D6ECEF" points="559.615385 130.769231 569.230769 130.769231 569.230769 125 559.615385 125"></polygon>
                    <polygon id="Fill-42" fill="#D6ECEF" points="542.307692 142.307692 551.923077 142.307692 551.923077 136.538462 542.307692 136.538462"></polygon>
                    <polygon id="Fill-43" fill="#D6ECEF" points="559.615385 142.307692 569.230769 142.307692 569.230769 136.538462 559.615385 136.538462"></polygon>
                    <polygon id="Fill-44" fill="#D6ECEF" points="542.307692 153.846154 551.923077 153.846154 551.923077 148.076923 542.307692 148.076923"></polygon>
                    <polygon id="Fill-45" fill="#D6ECEF" points="559.615385 153.846154 569.230769 153.846154 569.230769 148.076923 559.615385 148.076923"></polygon>
                    <polygon id="Fill-46" fill="#D6ECEF" points="542.307692 165.384615 551.923077 165.384615 551.923077 159.615385 542.307692 159.615385"></polygon>
                    <polygon id="Fill-47" fill="#D6ECEF" points="559.615385 165.384615 569.230769 165.384615 569.230769 159.615385 559.615385 159.615385"></polygon>
                    <polygon id="Fill-48" fill="#D6ECEF" points="542.307692 176.923077 551.923077 176.923077 551.923077 171.153846 542.307692 171.153846"></polygon>
                    <polygon id="Fill-49" fill="#D6ECEF" points="559.615385 176.923077 569.230769 176.923077 569.230769 171.153846 559.615385 171.153846"></polygon>
                    <polygon id="Fill-50" fill="#D6ECEF" points="542.307692 188.461538 551.923077 188.461538 551.923077 182.692308 542.307692 182.692308"></polygon>
                    <polygon id="Fill-51" fill="#D6ECEF" points="559.615385 188.461538 569.230769 188.461538 569.230769 182.692308 559.615385 182.692308"></polygon>
                    <polygon id="Fill-52" fill="#D6ECEF" points="542.307692 200 551.923077 200 551.923077 194.230769 542.307692 194.230769"></polygon>
                    <polygon id="Fill-53" fill="#D6ECEF" points="559.615385 200 569.230769 200 569.230769 194.230769 559.615385 194.230769"></polygon>
                    <polygon id="Fill-54" fill="#D6ECEF" points="542.307692 213.461538 551.923077 213.461538 551.923077 207.692308 542.307692 207.692308"></polygon>
                    <polygon id="Fill-55" fill="#D6ECEF" points="559.615385 213.461538 569.230769 213.461538 569.230769 207.692308 559.615385 207.692308"></polygon>
                    <polygon id="Fill-56" fill="#D6ECEF" points="82.6923077 128.846154 100 128.846154 100 113.461538 82.6923077 113.461538"></polygon>
                    <polygon id="Fill-57" fill="#D6ECEF" points="82.6923077 180.769231 100 180.769231 100 165.384615 82.6923077 165.384615"></polygon>
                    <polygon id="Fill-58" fill="#D6ECEF" points="107.692308 157.692308 125 157.692308 125 142.307692 107.692308 142.307692"></polygon>
                    <polygon id="Fill-59" fill="#D6ECEF" points="107.692308 209.615385 125 209.615385 125 194.230769 107.692308 194.230769"></polygon>
                    <polygon id="Fill-61" fill="#6C8EDB" points="642.307692 309.615385 736.538462 309.615385 736.538462 176.923077 642.307692 176.923077"></polygon>
                    <polygon id="Fill-62" fill="#6C8EDB" points="57.6923077 323.076923 134.615385 323.076923 134.615385 190.384615 57.6923077 190.384615"></polygon>
                    <polygon id="Fill-62-Copy" fill="#6C8EDB" points="182.692308 323.076923 259.615385 323.076923 259.615385 244.230769 182.692308 244.230769"></polygon>
                    <polygon id="Fill-63" fill="#6C8EDB" points="0 311.538462 65.3846154 311.538462 65.3846154 80.7692308 0 80.7692308"></polygon>
                    <polygon id="Fill-65" fill="#6C8EDB" points="726.923077 319.230769 811.538462 319.230769 811.538462 246.153846 726.923077 246.153846"></polygon>
                </g>
            </g>
            <g id="Group-19" mask="url(#mask-2)">
                <g transform="translate(903.846154, 305.153846)">
                    <polygon id="Fill-1" stroke="none" fill="#A7A7A7" fill-rule="evenodd" points="1.8189894e-12 94.2307692 961.538462 94.2307692 961.538462 17.3076923 1.8189894e-12 17.3076923"></polygon>
                    <path d="M36.5384615,55.7692308 L57.6923077,55.7692308 M94.2307692,55.7692308 L115.384615,55.7692308 M151.923077,55.7692308 L173.076923,55.7692308 M209.615385,55.7692308 L230.769231,55.7692308 M267.307692,55.7692308 L288.461538,55.7692308 M325,55.7692308 L346.153846,55.7692308 M382.692308,55.7692308 L403.846154,55.7692308 M440.384615,55.7692308 L461.538462,55.7692308 M500,55.7692308 L521.153846,55.7692308 M557.692308,55.7692308 L578.846154,55.7692308 M615.384615,55.7692308 L636.538462,55.7692308 M673.076923,55.7692308 L694.230769,55.7692308 M730.769231,55.7692308 L751.923077,55.7692308 M788.461538,55.7692308 L809.615385,55.7692308 M846.153846,55.7692308 L867.307692,55.7692308 M903.846154,55.7692308 L925,55.7692308" id="Combined-Shape" stroke="#D7D7D7" stroke-width="3.84615385" fill="none"></path>
                    <polygon id="Fill-18" stroke="none" fill="#D7D7D7" fill-rule="evenodd" points="1.8189894e-12 17.3076923 961.538462 17.3076923 961.538462 0 1.8189894e-12 0"></polygon>
                </g>
            </g>
            <g id="Group-19-Copy-2" mask="url(#mask-2)">
                <g transform="translate(-38.461538, 305.153846)">
                    <polygon id="Fill-1" stroke="none" fill="#A7A7A7" fill-rule="evenodd" points="1.8189894e-12 94.2307692 961.538462 94.2307692 961.538462 17.3076923 1.8189894e-12 17.3076923"></polygon>
                    <path d="M36.5384615,55.7692308 L57.6923077,55.7692308 M94.2307692,55.7692308 L115.384615,55.7692308 M151.923077,55.7692308 L173.076923,55.7692308 M209.615385,55.7692308 L230.769231,55.7692308 M267.307692,55.7692308 L288.461538,55.7692308 M325,55.7692308 L346.153846,55.7692308 M382.692308,55.7692308 L403.846154,55.7692308 M440.384615,55.7692308 L461.538462,55.7692308 M500,55.7692308 L521.153846,55.7692308 M557.692308,55.7692308 L578.846154,55.7692308 M615.384615,55.7692308 L636.538462,55.7692308 M673.076923,55.7692308 L694.230769,55.7692308 M730.769231,55.7692308 L751.923077,55.7692308 M788.461538,55.7692308 L809.615385,55.7692308 M846.153846,55.7692308 L867.307692,55.7692308 M903.846154,55.7692308 L925,55.7692308" id="Combined-Shape" stroke="#D7D7D7" stroke-width="3.84615385" fill="none"></path>
                    <polygon id="Fill-18" stroke="none" fill="#D7D7D7" fill-rule="evenodd" points="1.8189894e-12 17.3076923 961.538462 17.3076923 961.538462 0 1.8189894e-12 0"></polygon>
                </g>
            </g>
            <g id="Group-19-Copy" mask="url(#mask-2)">
                <g transform="translate(1836.538462, 305.153846)">
                    <polygon id="Fill-1" stroke="none" fill="#A7A7A7" fill-rule="evenodd" points="1.8189894e-12 94.2307692 961.538462 94.2307692 961.538462 17.3076923 1.8189894e-12 17.3076923"></polygon>
                    <path d="M36.5384615,55.7692308 L57.6923077,55.7692308 M94.2307692,55.7692308 L115.384615,55.7692308 M151.923077,55.7692308 L173.076923,55.7692308 M209.615385,55.7692308 L230.769231,55.7692308 M267.307692,55.7692308 L288.461538,55.7692308 M325,55.7692308 L346.153846,55.7692308 M382.692308,55.7692308 L403.846154,55.7692308 M440.384615,55.7692308 L461.538462,55.7692308 M500,55.7692308 L521.153846,55.7692308 M557.692308,55.7692308 L578.846154,55.7692308 M615.384615,55.7692308 L636.538462,55.7692308 M673.076923,55.7692308 L694.230769,55.7692308 M730.769231,55.7692308 L751.923077,55.7692308 M788.461538,55.7692308 L809.615385,55.7692308 M846.153846,55.7692308 L867.307692,55.7692308 M903.846154,55.7692308 L925,55.7692308" id="Combined-Shape" stroke="#D7D7D7" stroke-width="3.84615385" fill="none"></path>
                    <polygon id="Fill-18" stroke="none" fill="#D7D7D7" fill-rule="evenodd" points="1.8189894e-12 17.3076923 961.538462 17.3076923 961.538462 0 1.8189894e-12 0"></polygon>
                </g>
            </g>
            <g id="Group-11" mask="url(#mask-2)">
                <g transform="translate(1253.846154, 113.769231)">
                    <polygon id="Fill-1" fill="#D3B9C7" points="0 188.560769 144.644231 188.560769 144.644231 11.355 0 11.355"></polygon>
                    <polygon id="Fill-2" fill="#5E6187" points="0 39.4607692 144.644231 39.4607692 144.644231 27.9242308 0 27.9242308"></polygon>
                    <polygon id="Fill-3" fill="#5E6187" points="0 60.6165385 144.644231 60.6165385 144.644231 49.0780769 0 49.0780769"></polygon>
                    <polygon id="Fill-4" fill="#5E6187" points="0 81.7742308 144.644231 81.7742308 144.644231 70.2357692 0 70.2357692"></polygon>
                    <polygon id="Fill-5" fill="#5E6187" points="0 102.93 144.644231 102.93 144.644231 91.3934615 0 91.3934615"></polygon>
                    <polygon id="Fill-6" fill="#5E6187" points="0 124.085769 144.644231 124.085769 144.644231 112.547308 0 112.547308"></polygon>
                    <polygon id="Fill-7" fill="#5E6187" points="0 145.241538 144.644231 145.241538 144.644231 133.703077 0 133.703077"></polygon>
                    <polygon id="Fill-8" fill="#5E6187" points="0 166.397308 144.644231 166.397308 144.644231 154.860769 0 154.860769"></polygon>
                    <polygon id="Fill-9" fill="#5E6187" points="65.4807692 188.870385 79.1634615 188.870385 79.1634615 171.205 65.4807692 171.205"></polygon>
                    <polygon id="Fill-10" fill="#E59E97" points="15.6076923 11.3530769 72.3211538 11.3530769 72.3211538 0.999230769 15.6076923 0.999230769"></polygon>
                </g>
            </g>
            <g id="Group-5" mask="url(#mask-2)">
                <g transform="translate(1121.153846, 247.461538)">
                    <polygon id="Fill-1" fill="#FFCF77" points="17.3076923 57.6923077 25 57.6923077 25 44.2307692 17.3076923 44.2307692"></polygon>
                    <g id="Group-4" stroke-width="1" fill="none">
                        <mask id="mask-4" fill="white">
                            <use xlink:href="#path-3"></use>
                        </mask>
                        <g id="Clip-3"></g>
                        <path d="M21.8687981,0.266968326 C9.79103365,0.266968326 -0.000552884614,10.2811086 -0.000552884614,22.6368778 C-0.000552884614,34.9926471 9.79103365,45.0067873 21.8687981,45.0067873 C33.9437981,45.0067873 43.7353846,34.9926471 43.7353846,22.6368778 C43.7353846,10.2811086 33.9437981,0.266968326 21.8687981,0.266968326 Z" id="Fill-2" fill="#DDBA1F" mask="url(#mask-4)"></path>
                    </g>
                </g>
            </g>
            <g id="Group-5-Copy" mask="url(#mask-2)">
                <g transform="translate(1482.692308, 238.461538)">
                    <polygon id="Fill-1" fill="#FFCF77" points="17.3076923 57.6923077 25 57.6923077 25 44.2307692 17.3076923 44.2307692"></polygon>
                    <g id="Group-4" stroke-width="1" fill="none">
                        <mask id="mask-6" fill="white">
                            <use xlink:href="#path-5"></use>
                        </mask>
                        <g id="Clip-3"></g>
                        <path d="M43.7353846,22.6368778 C43.7353846,10.2811086 33.9437981,0.266968326 21.8687981,0.266968326 C9.79103365,0.266968326 -0.000552884614,10.2811086 -0.000552884614,22.6368778 C-0.000552884614,34.9926471 9.79103365,45.0067873 21.8687981,45.0067873 C33.9437981,45.0067873 43.7353846,34.9926471 43.7353846,22.6368778" id="Fill-2" fill="#61B251" mask="url(#mask-6)"></path>
                    </g>
                </g>
            </g>
            <g id="Group-5-Copy-2" mask="url(#mask-2)">
                <g transform="translate(2075.000000, 234.000000)">
                    <polygon id="Fill-1" fill="#FFA53D" points="21.1538462 71.1538462 30.7692308 71.1538462 30.7692308 53.8461538 21.1538462 53.8461538"></polygon>
                    <g id="Group-4" stroke-width="1" fill="none">
                        <mask id="mask-8" fill="white">
                            <use xlink:href="#path-7"></use>
                        </mask>
                        <g id="Clip-3"></g>
                        <path d="M53.2430769,28.2960973 C53.2430769,12.8513857 41.3228846,0.333710407 26.6228846,0.333710407 C11.9195192,0.333710407 -0.000673076921,12.8513857 -0.000673076921,28.2960973 C-0.000673076921,43.7408088 11.9195192,56.2584842 26.6228846,56.2584842 C41.3228846,56.2584842 53.2430769,43.7408088 53.2430769,28.2960973" id="Fill-2" fill="#BBE5B3" mask="url(#mask-8)"></path>
                    </g>
                </g>
            </g>
            <g id="Group-13" mask="url(#mask-2)">
                <g transform="translate(1748.076923, 219.615385)">
                    <g id="Group-3" stroke-width="1" fill="none" transform="translate(12.538462, 40.342885)">
                        <mask id="mask-10" fill="white">
                            <use xlink:href="#path-9"></use>
                        </mask>
                        <g id="Clip-2"></g>
                        <path d="M5.84538462,4.35692308 L6.82807692,4.87230769 C7.67807692,5.08769231 8.25884615,4.84346154 8.25884615,4.16076923 L8.25884615,0.631923077 L11.0646154,0.631923077 L11.0646154,5.79153846 C11.0646154,6.93384615 11.6396154,8.00115385 12.5915385,8.63 L12.9876923,8.88 C13.8896154,9.44538462 14.9319231,9.74923077 15.9953846,9.74923077 L16.0184615,9.74923077 C16.3896154,9.74923077 16.6915385,9.44538462 16.6915385,9.07615385 L16.6915385,0.631923077 L25.8069231,0.631923077 L25.8069231,9.74923077 L25.8069231,15.4723077 L25.8069231,45.155 L14.3665385,45.155 L14.3665385,19.8646154 C14.3665385,15.8761538 12.38,12.1492308 9.07038462,9.92423077 L3.26269231,6.02038462 C1.69346154,4.75692308 0.549230769,2.68 0.0915384615,0.631923077 L3.05307692,0.631923077 C3.605,2.12423077 4.68769231,3.58961538 5.84538462,4.35692308" id="Fill-1" fill="#FFCF77" mask="url(#mask-10)"></path>
                    </g>
                    <g id="Group-6" stroke-width="1" fill="none" transform="translate(0.000000, 0.881346)">
                        <mask id="mask-12" fill="white">
                            <use xlink:href="#path-11"></use>
                        </mask>
                        <g id="Clip-5"></g>
                        <path d="M18.9323077,14.5609615 L18.915,11.2475 C18.8861538,5.06673077 23.8842308,0.0417307692 30.0630769,0.0417307692 L32.5361538,0.0417307692 C38.715,0.0417307692 43.7323077,5.03596154 43.7592308,11.2167308 L43.7746154,14.8821154 L43.89,14.8821154 C50.0669231,14.8821154 55.0842308,19.8782692 55.1092308,26.0571154 L55.1265385,29.8128846 L55.3553846,29.8128846 C61.4707692,29.8128846 66.4361538,34.7571154 66.4611538,40.8763462 L66.4631907,41.1263462 C66.4938462,48.7859615 60.2823077,55.0032692 52.6265385,54.9802563 L41.9092308,54.9455769 C39.94,54.9398077 38.3457692,53.3398077 38.3457692,51.3705769 L38.3457692,43.6705769 C38.3457692,41.6936538 36.7457692,40.0936538 34.7707692,40.0936538 L10.9726923,40.0936538 C4.91307692,40.0936538 -0.000384615385,35.1801923 -0.000384615385,29.1186538 L-0.000384615385,28.8975 C-0.000384615385,22.8359615 4.91307692,17.9225 10.9726923,17.9225 L15.59,17.9225 C17.4438462,17.9225 18.9419231,16.4148077 18.9323077,14.5609615" id="Fill-4" fill="#61B251" mask="url(#mask-12)"></path>
                    </g>
                    <path d="M22.8253846,9.33884615 C22.8253846,12.8484615 25.6696154,15.6965385 29.1792308,15.6965385 C32.6888462,15.6965385 35.5330769,12.8484615 35.5330769,9.33884615 C35.5330769,5.82923077 32.6888462,2.98307692 29.1792308,2.98307692 C25.6696154,2.98307692 22.8253846,5.82923077 22.8253846,9.33884615" id="Fill-7" fill="#399D25"></path>
                    <path d="M66.4628207,42.0084615 C66.4953846,49.6661538 60.2819231,55.8853846 52.6261538,55.8604597 L41.9088462,55.8276923 C39.9396154,55.8219231 38.3453846,54.2219231 38.3453846,52.2507692 L38.3453846,44.5507692 C38.3453846,42.5757692 36.7453846,40.9757692 34.7723077,40.9757692 L10.9742308,40.9757692 C8.12423077,40.9757692 5.52807692,39.8873077 3.57807692,38.1084615 L65.83,38.1084615 C66.2319231,39.2488462 66.4569231,40.4757692 66.4607692,41.7565385 L66.4628207,42.0084615 Z" id="Fill-9" fill="#BBE5B3"></path>
                    <path d="M9.61365385,21.2828846 L14.0290385,21.2828846 C16.4655769,21.2828846 18.4425,23.2598077 18.4425,25.6982692 C18.4425,28.1367308 16.4655769,30.1136538 14.0290385,30.1136538 L9.61365385,30.1136538 C7.17519231,30.1136538 5.20019231,28.1367308 5.20019231,25.6982692 C5.20019231,23.2598077 7.17519231,21.2828846 9.61365385,21.2828846" id="Fill-11" fill="#399D25"></path>
                </g>
            </g>
            <g id="Group-13-Copy" mask="url(#mask-2)">
                <g transform="translate(566.500000, 263.115385) scale(-1, 1) translate(-566.500000, -263.115385) translate(533.000000, 219.615385)">
                    <g id="Group-3" stroke-width="1" fill="none" transform="translate(12.538462, 40.342885)">
                        <mask id="mask-14" fill="white">
                            <use xlink:href="#path-13"></use>
                        </mask>
                        <g id="Clip-2"></g>
                        <path d="M5.84538462,4.35692308 L6.82807692,4.87230769 C7.67807692,5.08769231 8.25884615,4.84346154 8.25884615,4.16076923 L8.25884615,0.631923077 L11.0646154,0.631923077 L11.0646154,5.79153846 C11.0646154,6.93384615 11.6396154,8.00115385 12.5915385,8.63 L12.9876923,8.88 C13.8896154,9.44538462 14.9319231,9.74923077 15.9953846,9.74923077 L16.0184615,9.74923077 C16.3896154,9.74923077 16.6915385,9.44538462 16.6915385,9.07615385 L16.6915385,0.631923077 L25.8069231,0.631923077 L25.8069231,9.74923077 L25.8069231,15.4723077 L25.8069231,45.155 L14.3665385,45.155 L14.3665385,19.8646154 C14.3665385,15.8761538 12.38,12.1492308 9.07038462,9.92423077 L3.26269231,6.02038462 C1.69346154,4.75692308 0.549230769,2.68 0.0915384615,0.631923077 L3.05307692,0.631923077 C3.605,2.12423077 4.68769231,3.58961538 5.84538462,4.35692308" id="Fill-1" fill="#FFCF77" mask="url(#mask-14)"></path>
                    </g>
                    <g id="Group-6" stroke-width="1" fill="none" transform="translate(0.000000, 0.881346)">
                        <mask id="mask-16" fill="white">
                            <use xlink:href="#path-15"></use>
                        </mask>
                        <g id="Clip-5"></g>
                        <path d="M18.9323077,14.5609615 L18.915,11.2475 C18.8861538,5.06673077 23.8842308,0.0417307692 30.0630769,0.0417307692 L32.5361538,0.0417307692 C38.715,0.0417307692 43.7323077,5.03596154 43.7592308,11.2167308 L43.7746154,14.8821154 L43.89,14.8821154 C50.0669231,14.8821154 55.0842308,19.8782692 55.1092308,26.0571154 L55.1265385,29.8128846 L55.3553846,29.8128846 C61.4707692,29.8128846 66.4361538,34.7571154 66.4611538,40.8763462 L66.4631907,41.1263462 C66.4938462,48.7859615 60.2823077,55.0032692 52.6265385,54.9802563 L41.9092308,54.9455769 C39.94,54.9398077 38.3457692,53.3398077 38.3457692,51.3705769 L38.3457692,43.6705769 C38.3457692,41.6936538 36.7457692,40.0936538 34.7707692,40.0936538 L10.9726923,40.0936538 C4.91307692,40.0936538 -0.000384615385,35.1801923 -0.000384615385,29.1186538 L-0.000384615385,28.8975 C-0.000384615385,22.8359615 4.91307692,17.9225 10.9726923,17.9225 L15.59,17.9225 C17.4438462,17.9225 18.9419231,16.4148077 18.9323077,14.5609615" id="Fill-4" fill="#61B251" mask="url(#mask-16)"></path>
                    </g>
                    <path d="M22.8253846,9.33884615 C22.8253846,12.8484615 25.6696154,15.6965385 29.1792308,15.6965385 C32.6888462,15.6965385 35.5330769,12.8484615 35.5330769,9.33884615 C35.5330769,5.82923077 32.6888462,2.98307692 29.1792308,2.98307692 C25.6696154,2.98307692 22.8253846,5.82923077 22.8253846,9.33884615" id="Fill-7" fill="#399D25"></path>
                    <path d="M66.4628207,42.0084615 C66.4953846,49.6661538 60.2819231,55.8853846 52.6261538,55.8604597 L41.9088462,55.8276923 C39.9396154,55.8219231 38.3453846,54.2219231 38.3453846,52.2507692 L38.3453846,44.5507692 C38.3453846,42.5757692 36.7453846,40.9757692 34.7723077,40.9757692 L10.9742308,40.9757692 C8.12423077,40.9757692 5.52807692,39.8873077 3.57807692,38.1084615 L65.83,38.1084615 C66.2319231,39.2488462 66.4569231,40.4757692 66.4607692,41.7565385 L66.4628207,42.0084615 Z" id="Fill-9" fill="#BBE5B3"></path>
                    <path d="M9.61365385,21.2828846 L14.0290385,21.2828846 C16.4655769,21.2828846 18.4425,23.2598077 18.4425,25.6982692 C18.4425,28.1367308 16.4655769,30.1136538 14.0290385,30.1136538 L9.61365385,30.1136538 C7.17519231,30.1136538 5.20019231,28.1367308 5.20019231,25.6982692 C5.20019231,23.2598077 7.17519231,21.2828846 9.61365385,21.2828846" id="Fill-11" fill="#399D25"></path>
                </g>
            </g>
            <g id="Group-11" mask="url(#mask-2)">
                <g transform="translate(918.230769, 235.923077)">
                    <polygon id="Fill-1" stroke="none" fill="#FEAD9A" fill-rule="evenodd" points="12.3730769 7.86538462 20.2384615 7.86538462 20.2384615 0 12.3730769 0"></polygon>
                    <polygon id="Fill-2" stroke="none" fill="#FEAD9A" fill-rule="evenodd" points="5.51923077 69.7115385 67.8615385 69.7115385 67.8615385 32.4653846 5.51923077 32.4653846"></polygon>
                    <polygon id="Fill-3" stroke="none" fill="#E59E97" fill-rule="evenodd" points="6.76865385 7.86596154 0.999423077 32.4659615 72.3782692 32.4659615 66.6109615 7.86596154"></polygon>
                    <polygon id="Fill-4" stroke="none" fill="#5E6187" fill-rule="evenodd" points="28.6326923 69.7115385 44.7442308 69.7115385 44.7442308 48.5923077 28.6326923 48.5923077"></polygon>
                    <polygon id="Fill-5" stroke="none" fill="#5E6187" fill-rule="evenodd" points="10.8673077 54.7192308 23.4076923 54.7192308 23.4076923 42.1807692 10.8673077 42.1807692"></polygon>
                    <path d="M17.1375,42.1815385 L17.1375,54.72" id="Stroke-6" stroke="#E25B6C" stroke-width="1.44230769" fill="none"></path>
                    <path d="M23.4080769,48.4503846 L10.8676923,48.4503846" id="Stroke-7" stroke="#E25B6C" stroke-width="1.44230769" fill="none"></path>
                    <polygon id="Fill-8" stroke="none" fill="#5E6187" fill-rule="evenodd" points="49.9711538 54.7192308 62.5096154 54.7192308 62.5096154 42.1807692 49.9711538 42.1807692"></polygon>
                    <path d="M56.2413462,42.1815385 L56.2413462,54.72" id="Stroke-9" stroke="#E25B6C" stroke-width="1.44230769" fill="none"></path>
                    <path d="M62.51,48.4503846 L49.9715385,48.4503846" id="Stroke-10" stroke="#E25B6C" stroke-width="1.44230769" fill="none"></path>
                </g>
            </g>
            <g id="Group-26" mask="url(#mask-2)">
                <g transform="translate(1492.307692, 112.846154)">
                    <polygon id="Fill-1" stroke="none" fill="#FFEA8A" fill-rule="evenodd" points="0 191.52 168.719231 191.52 168.719231 15.0046154 0 15.0046154"></polygon>
                    <polygon id="Fill-2" stroke="none" fill="#E25B6C" fill-rule="evenodd" points="62.1307692 15.0046154 106.588462 15.0046154 106.588462 0.000769230769 62.1307692 0.000769230769"></polygon>
                    <polygon id="Fill-3" stroke="none" fill="#E59E97" fill-rule="evenodd" points="18.9076923 15.0046154 51.825 15.0046154 51.825 9.61615385 18.9076923 9.61615385"></polygon>
                    <polygon id="Fill-4" stroke="none" fill="#E59E97" fill-rule="evenodd" points="116.894231 15.0046154 149.811538 15.0046154 149.811538 9.61615385 116.894231 9.61615385"></polygon>
                    <polygon id="Fill-5" stroke="none" fill="#F3EEEC" fill-rule="evenodd" points="0 192.210385 168.719231 192.210385 168.719231 147.264231 0 147.264231"></polygon>
                    <polygon id="Fill-6" stroke="none" fill="#5E6187" fill-rule="evenodd" points="14.4423077 59.1969231 31.1884615 59.1969231 31.1884615 29.1065385 14.4423077 29.1065385"></polygon>
                    <polygon id="Fill-7" stroke="none" fill="#5E6187" fill-rule="evenodd" points="45.2134615 59.1969231 61.9596154 59.1969231 61.9596154 29.1065385 45.2134615 29.1065385"></polygon>
                    <polygon id="Fill-8" stroke="none" fill="#5E6187" fill-rule="evenodd" points="75.9865385 59.1969231 92.7326923 59.1969231 92.7326923 29.1065385 75.9865385 29.1065385"></polygon>
                    <polygon id="Fill-9" stroke="none" fill="#5E6187" fill-rule="evenodd" points="106.757692 59.1969231 123.503846 59.1969231 123.503846 29.1065385 106.757692 29.1065385"></polygon>
                    <polygon id="Fill-10" stroke="none" fill="#5E6187" fill-rule="evenodd" points="137.530769 59.1969231 154.276923 59.1969231 154.276923 29.1065385 137.530769 29.1065385"></polygon>
                    <polygon id="Fill-11" stroke="none" fill="#5E6187" fill-rule="evenodd" points="14.4423077 97.6623077 31.1884615 97.6623077 31.1884615 67.5719231 14.4423077 67.5719231"></polygon>
                    <polygon id="Fill-12" stroke="none" fill="#5E6187" fill-rule="evenodd" points="45.2134615 97.6623077 61.9596154 97.6623077 61.9596154 67.5719231 45.2134615 67.5719231"></polygon>
                    <polygon id="Fill-13" stroke="none" fill="#5E6187" fill-rule="evenodd" points="75.9865385 97.6623077 92.7326923 97.6623077 92.7326923 67.5719231 75.9865385 67.5719231"></polygon>
                    <polygon id="Fill-14" stroke="none" fill="#5E6187" fill-rule="evenodd" points="106.757692 97.6623077 123.503846 97.6623077 123.503846 67.5719231 106.757692 67.5719231"></polygon>
                    <polygon id="Fill-15" stroke="none" fill="#5E6187" fill-rule="evenodd" points="137.530769 97.6623077 154.276923 97.6623077 154.276923 67.5719231 137.530769 67.5719231"></polygon>
                    <polygon id="Fill-16" stroke="none" fill="#5E6187" fill-rule="evenodd" points="14.4423077 136.129615 31.1884615 136.129615 31.1884615 106.037308 14.4423077 106.037308"></polygon>
                    <polygon id="Fill-17" stroke="none" fill="#5E6187" fill-rule="evenodd" points="45.2134615 136.129615 61.9596154 136.129615 61.9596154 106.037308 45.2134615 106.037308"></polygon>
                    <polygon id="Fill-18" stroke="none" fill="#5E6187" fill-rule="evenodd" points="75.9865385 136.129615 92.7326923 136.129615 92.7326923 106.037308 75.9865385 106.037308"></polygon>
                    <polygon id="Fill-19" stroke="none" fill="#5E6187" fill-rule="evenodd" points="106.757692 136.129615 123.503846 136.129615 123.503846 106.037308 106.757692 106.037308"></polygon>
                    <polygon id="Fill-20" stroke="none" fill="#5E6187" fill-rule="evenodd" points="137.530769 136.129615 154.276923 136.129615 154.276923 106.037308 137.530769 106.037308"></polygon>
                    <polygon id="Fill-21" stroke="none" fill="#5E6187" fill-rule="evenodd" points="14.4423077 182.075769 61.9596154 182.075769 61.9596154 157.396923 14.4423077 157.396923"></polygon>
                    <path d="M38.2011538,157.3975 L38.2011538,182.076346" id="Stroke-22" stroke="#F3EEEC" stroke-width="1.92307692" fill="none"></path>
                    <polygon id="Fill-23" stroke="none" fill="#5E6187" fill-rule="evenodd" points="106.757692 182.075769 154.276923 182.075769 154.276923 157.396923 106.757692 157.396923"></polygon>
                    <path d="M130.518269,157.3975 L130.518269,182.076346" id="Stroke-24" stroke="#F3EEEC" stroke-width="1.92307692" fill="none"></path>
                    <polygon id="Fill-25" stroke="none" fill="#5E6187" fill-rule="evenodd" points="71.6980769 192.210385 97.0192308 192.210385 97.0192308 169.737308 71.6980769 169.737308"></polygon>
                </g>
            </g>
            <g id="Group-36" mask="url(#mask-2)">
                <g transform="translate(1914.384615, 181.153846)">
                    <polygon id="Fill-1" fill="#E59E97" points="10.6386538 48.7882692 10.6386538 123.278654 160.625192 123.278654 160.625192 86.0325 98.2828846 86.0325 98.2828846 48.7882692"></polygon>
                    <polygon id="Fill-2" fill="#E25B6C" points="98.2830769 61.4332692 98.2830769 86.0332692 169.661923 86.0332692 160.625385 61.4332692"></polygon>
                    <polygon id="Fill-3" fill="#E25B6C" points="15.4571154 11.9090385 0.999423077 48.7878846 106.412885 48.7878846 91.9571154 11.9090385"></polygon>
                    <polygon id="Fill-4" fill="#EAE9DF" points="110.780769 123.278846 143.155769 123.278846 143.155769 102.159615 110.780769 102.159615"></polygon>
                    <polygon id="Fill-5" fill="#5E6187" points="46.9307692 123.278846 63.0442308 123.278846 63.0442308 102.159615 46.9307692 102.159615"></polygon>
                    <g id="Group-35" stroke-width="1" fill="none" transform="translate(1.000000, 0.201923)">
                        <path d="M30.1390385,56.6159615 C25.2582692,56.6159615 21.3005769,60.5717308 21.3005769,65.4525 L21.3005769,90.4486538 L38.9755769,90.4486538 L38.9755769,65.4525 C38.9755769,60.5717308 35.0178846,56.6159615 30.1390385,56.6159615" id="Fill-6" fill="#5E6187"></path>
                        <path d="M30.1390385,56.6159615 L30.1390385,90.4486538" id="Stroke-8" stroke="#E59E97" stroke-width="1.44230769"></path>
                        <path d="M21.3011538,81.4169231 L38.9742308,81.4169231" id="Stroke-10" stroke="#E59E97" stroke-width="1.44230769"></path>
                        <path d="M21.3011538,72.6523077 L38.9742308,72.6523077" id="Stroke-12" stroke="#E59E97" stroke-width="1.44230769"></path>
                        <path d="M21.3011538,63.8857692 L38.9742308,63.8857692" id="Stroke-14" stroke="#E59E97" stroke-width="1.44230769"></path>
                        <path d="M77.8367308,56.6159615 C72.9559615,56.6159615 68.9982692,60.5717308 68.9982692,65.4525 L68.9982692,90.4486538 L86.6732692,90.4486538 L86.6732692,65.4525 C86.6732692,60.5717308 82.7155769,56.6159615 77.8367308,56.6159615" id="Fill-16" fill="#5E6187"></path>
                        <path d="M77.8367308,56.6159615 L77.8367308,90.4486538" id="Stroke-18" stroke="#E59E97" stroke-width="1.44230769"></path>
                        <path d="M68.9988462,81.4169231 L86.6719231,81.4169231" id="Stroke-20" stroke="#E59E97" stroke-width="1.44230769"></path>
                        <path d="M68.9988462,72.6523077 L86.6719231,72.6523077" id="Stroke-22" stroke="#E59E97" stroke-width="1.44230769"></path>
                        <path d="M68.9988462,63.8857692 L86.6719231,63.8857692" id="Stroke-24" stroke="#E59E97" stroke-width="1.44230769"></path>
                        <mask id="mask-18" fill="white">
                            <use xlink:href="#path-17"></use>
                        </mask>
                        <g id="Clip-27"></g>
                        <polygon id="Fill-26" fill="#5E6187" mask="url(#mask-18)" points="23.8692308 111.930769 36.4076923 111.930769 36.4076923 99.3923077 23.8692308 99.3923077"></polygon>
                        <path d="M30.1390385,99.3930769 L30.1390385,111.931538" id="Stroke-28" stroke="#E59E97" stroke-width="1.44230769" mask="url(#mask-18)"></path>
                        <path d="M36.4078846,105.661923 L23.8694231,105.661923" id="Stroke-29" stroke="#E59E97" stroke-width="1.44230769" mask="url(#mask-18)"></path>
                        <polygon id="Fill-30" fill="#5E6187" mask="url(#mask-18)" points="71.5673077 111.930769 84.1057692 111.930769 84.1057692 99.3923077 71.5673077 99.3923077"></polygon>
                        <path d="M77.8367308,99.3930769 L77.8367308,111.931538" id="Stroke-31" stroke="#E59E97" stroke-width="1.44230769" mask="url(#mask-18)"></path>
                        <path d="M84.1053846,105.661923 L71.5669231,105.661923" id="Stroke-32" stroke="#E59E97" stroke-width="1.44230769" mask="url(#mask-18)"></path>
                        <path d="M58.0744231,61.2321154 C58.0744231,58.9744231 56.2436538,57.1455769 53.9878846,57.1455769 C51.7301923,57.1455769 49.9013462,58.9744231 49.9013462,61.2321154 C49.9013462,63.4898077 51.7301923,65.3186538 53.9878846,65.3186538 C56.2436538,65.3186538 58.0744231,63.4898077 58.0744231,61.2321154" id="Fill-33" fill="#EAE9DF" mask="url(#mask-18)"></path>
                        <polygon id="Fill-34" fill="#E59E97" mask="url(#mask-18)" points="22.2711538 11.7076923 30.1384615 11.7076923 30.1384615 0.721153846 22.2711538 0.721153846"></polygon>
                    </g>
                </g>
            </g>
            <g id="Group-39" mask="url(#mask-2)">
                <g transform="translate(765.384615, 12.846154)">
                    <polygon id="Fill-1" fill="#D3B9C7" points="12.2057692 41.4134615 62.8576923 41.4134615 62.8576923 20.7076923 12.2057692 20.7076923"></polygon>
                    <polygon id="Fill-2" fill="#E6D1E6" points="21.2115385 20.7076923 53.85 20.7076923 53.85 0.00192307692 21.2115385 0.00192307692"></polygon>
                    <polygon id="Fill-3" fill="#A5919D" points="0 292.290385 74.0711538 292.290385 74.0711538 41.4134615 0 41.4134615"></polygon>
                    <polygon id="Fill-4" fill="#5E6187" points="9.95192308 62.6557692 22.2673077 62.6557692 22.2673077 50.3384615 9.95192308 50.3384615"></polygon>
                    <polygon id="Fill-5" fill="#5E6187" points="31.3730769 62.6557692 43.6884615 62.6557692 43.6884615 50.3384615 31.3730769 50.3384615"></polygon>
                    <polygon id="Fill-6" fill="#5E6187" points="52.7961538 62.6557692 65.1115385 62.6557692 65.1115385 50.3384615 52.7961538 50.3384615"></polygon>
                    <polygon id="Fill-7" fill="#5E6187" points="9.95192308 84.0769231 22.2673077 84.0769231 22.2673077 71.7615385 9.95192308 71.7615385"></polygon>
                    <polygon id="Fill-8" fill="#5E6187" points="31.3730769 84.0769231 43.6884615 84.0769231 43.6884615 71.7615385 31.3730769 71.7615385"></polygon>
                    <polygon id="Fill-9" fill="#5E6187" points="52.7961538 84.0769231 65.1115385 84.0769231 65.1115385 71.7615385 52.7961538 71.7615385"></polygon>
                    <polygon id="Fill-10" fill="#5E6187" points="9.95192308 105.498077 22.2673077 105.498077 22.2673077 93.1826923 9.95192308 93.1826923"></polygon>
                    <polygon id="Fill-11" fill="#5E6187" points="31.3730769 105.498077 43.6884615 105.498077 43.6884615 93.1826923 31.3730769 93.1826923"></polygon>
                    <polygon id="Fill-12" fill="#5E6187" points="52.7961538 105.498077 65.1115385 105.498077 65.1115385 93.1826923 52.7961538 93.1826923"></polygon>
                    <polygon id="Fill-13" fill="#5E6187" points="9.95192308 126.921154 22.2673077 126.921154 22.2673077 114.605769 9.95192308 114.605769"></polygon>
                    <polygon id="Fill-14" fill="#5E6187" points="31.3730769 126.921154 43.6884615 126.921154 43.6884615 114.605769 31.3730769 114.605769"></polygon>
                    <polygon id="Fill-15" fill="#5E6187" points="52.7961538 126.921154 65.1115385 126.921154 65.1115385 114.605769 52.7961538 114.605769"></polygon>
                    <polygon id="Fill-16" fill="#5E6187" points="9.95192308 148.344231 22.2673077 148.344231 22.2673077 136.028846 9.95192308 136.028846"></polygon>
                    <polygon id="Fill-17" fill="#5E6187" points="31.3730769 148.344231 43.6884615 148.344231 43.6884615 136.028846 31.3730769 136.028846"></polygon>
                    <polygon id="Fill-18" fill="#5E6187" points="52.7961538 148.344231 65.1115385 148.344231 65.1115385 136.028846 52.7961538 136.028846"></polygon>
                    <polygon id="Fill-19" fill="#5E6187" points="9.95192308 169.765385 22.2673077 169.765385 22.2673077 157.448077 9.95192308 157.448077"></polygon>
                    <polygon id="Fill-20" fill="#5E6187" points="31.3730769 169.765385 43.6884615 169.765385 43.6884615 157.448077 31.3730769 157.448077"></polygon>
                    <polygon id="Fill-21" fill="#5E6187" points="52.7961538 169.765385 65.1115385 169.765385 65.1115385 157.448077 52.7961538 157.448077"></polygon>
                    <polygon id="Fill-22" fill="#5E6187" points="9.95192308 191.188462 22.2673077 191.188462 22.2673077 178.871154 9.95192308 178.871154"></polygon>
                    <polygon id="Fill-23" fill="#5E6187" points="31.3730769 191.188462 43.6884615 191.188462 43.6884615 178.871154 31.3730769 178.871154"></polygon>
                    <polygon id="Fill-24" fill="#5E6187" points="52.7961538 191.188462 65.1115385 191.188462 65.1115385 178.871154 52.7961538 178.871154"></polygon>
                    <polygon id="Fill-25" fill="#5E6187" points="9.95192308 212.611538 22.2673077 212.611538 22.2673077 200.294231 9.95192308 200.294231"></polygon>
                    <polygon id="Fill-26" fill="#5E6187" points="31.3730769 212.611538 43.6884615 212.611538 43.6884615 200.294231 31.3730769 200.294231"></polygon>
                    <polygon id="Fill-27" fill="#5E6187" points="52.7961538 212.611538 65.1115385 212.611538 65.1115385 200.294231 52.7961538 200.294231"></polygon>
                    <polygon id="Fill-28" fill="#5E6187" points="9.95192308 234.030769 22.2673077 234.030769 22.2673077 221.715385 9.95192308 221.715385"></polygon>
                    <polygon id="Fill-29" fill="#5E6187" points="31.3730769 234.030769 43.6884615 234.030769 43.6884615 221.715385 31.3730769 221.715385"></polygon>
                    <polygon id="Fill-30" fill="#5E6187" points="52.7961538 234.030769 65.1115385 234.030769 65.1115385 221.715385 52.7961538 221.715385"></polygon>
                    <polygon id="Fill-31" fill="#5E6187" points="9.95192308 255.453846 22.2673077 255.453846 22.2673077 243.138462 9.95192308 243.138462"></polygon>
                    <polygon id="Fill-32" fill="#5E6187" points="31.3730769 255.453846 43.6884615 255.453846 43.6884615 243.138462 31.3730769 243.138462"></polygon>
                    <polygon id="Fill-33" fill="#5E6187" points="52.7961538 255.453846 65.1115385 255.453846 65.1115385 243.138462 52.7961538 243.138462"></polygon>
                    <polygon id="Fill-34" fill="#5E6187" points="9.95192308 276.876923 22.2673077 276.876923 22.2673077 264.561538 9.95192308 264.561538"></polygon>
                    <polygon id="Fill-35" fill="#5E6187" points="31.3730769 276.876923 43.6884615 276.876923 43.6884615 264.561538 31.3730769 264.561538"></polygon>
                    <polygon id="Fill-36" fill="#5E6187" points="52.7961538 276.876923 65.1115385 276.876923 65.1115385 264.561538 52.7961538 264.561538"></polygon>
                    <polygon id="Fill-37" fill="#5E6187" points="35.5230769 41.4134615 39.5403846 41.4134615 39.5403846 34.2288462 35.5230769 34.2288462"></polygon>
                    <polygon id="Fill-38" fill="#5E6187" points="35.5230769 20.7076923 39.5403846 20.7076923 39.5403846 13.5230769 35.5230769 13.5230769"></polygon>
                </g>
            </g>
        </g>
    </g>
</svg>