<svg xmlns="http://www.w3.org/2000/svg" xmlns:xlink="http://www.w3.org/1999/xlink" version="1.1" preserveAspectRatio="none" x="0px" y="0px" viewBox="0 0 500 625"><defs><g id="b"><path fill="#000000" stroke="none" d=" M 476.25 47.5 Q 476.25 38.5 469.85 32.1 463.5 25.75 454.5 25.75 449.4 25.75 445.1 27.8 442.8 28.9 440.75 30.6 439.8 31.5 438.9 32.3 432.85 37.1 427.75 39.15 L 402.8 49.55 Q 383 57.75 355.05 60.35 L 330.75 59.75 Q 321.018359375 59.8873046875 321.15 51.4 L 321.15 25.4 Q 321.15 17.4 313.15 17.4 L 214.85 17.4 Q 206.85 17.4 206.85 25.4 L 206.85 51.4 Q 207 59.9 197.25 59.75 L 172.95 60.35 Q 145 57.75 125.2 49.55 L 100.25 39.15 Q 95.15 37.1 89.1 32.3 88.2 31.5 87.25 30.6 85.2 28.9 82.9 27.8 78.6 25.75 73.5 25.75 64.5 25.75 58.15 32.1 51.75 38.5 51.75 47.5 51.75 56.5 58.15 62.85 62.55 67.3 68.25 68.65 L 199.1 121.5 Q 206.25 126.15 206.85 138.45 L 206.85 294.55 Q 206.7 304.35 198.7 304.05 190.7 303.7 185.1 309.05 L 64.45 424.55 Q 58.8 429.7 52.45 433.7 51.45 434.2 50.5 434.85 48.75 436.05 47.2 437.6 40.8 444 40.8 453 40.8 462 47.2 468.35 51.6 472.8 57.3 474.15 59.8 474.75 62.55 474.75 71.55 474.75 77.95 468.35 79.1 467.2 80 466 L 136.8 411.3 Q 150.5 399.6 163.2 398.9 175.9 398.2 177.3 398.15 L 201.2 398.15 Q 206.5 398.15 206.85 403.45 L 206.85 466.15 Q 206.85 474.15 214.85 474.15 L 313.15 474.15 Q 321.15 474.15 321.15 466.15 L 321.15 403.45 Q 321.52265625 398.169140625 326.8 398.15 L 350.7 398.15 Q 352.1 398.2 364.8 398.9 377.5 399.6 391.2 411.3 L 448 466 Q 448.9 467.2 450.05 468.35 456.45 474.75 465.45 474.75 468.2 474.75 470.7 474.15 476.4 472.8 480.8 468.35 487.2 462 487.2 453 487.2 444 480.8 437.6 479.2322265625 436.0322265625 477.5 434.85 476.547265625 434.1994140625 475.55 433.65 469.2091796875 429.703125 463.55 424.5 L 342.9 309.05 Q 337.302734375 303.700390625 329.3 304 321.291796875 304.348828125 321.15 294.55 L 321.15 138.45 Q 321.7458984375 126.1609375 328.9 121.5 L 459.75 68.65 Q 465.45 67.3 469.85 62.85 476.25 56.5 476.25 47.5 M 446.65 47.5 Q 446.65 45.05 447.9 43.2 448.35 42.5 448.95 41.9 451.25 39.6 454.5 39.6 457.75 39.6 460.05 41.9 462.35 44.25 462.35 47.5 462.35 50.75 460.05 53.05 457.75 55.35 454.5 55.35 451.25 55.35 448.95 53.05 446.65 50.75 446.65 47.5 M 419.7 50.15 Q 422.8 48.9 425.8 50.15 428.9 51.5 430.15 54.55 L 432.45 60.3 Q 433.7 63.35 432.4 66.4 431.1 69.45 428 70.7 L 396.45 83.45 Q 393.4 84.7 390.35 83.4 387.3 82.1 386.05 79.05 L 383.75 73.3 Q 382.5 70.25 383.75 67.15 385.1 64.15 388.15 62.9 L 419.7 50.15 M 332.2 93.6 Q 330.95 90.55 332.2 87.45 333.55 84.45 336.6 83.2 L 368.15 70.45 Q 371.2 69.2 374.25 70.45 377.35 71.8 378.6 74.85 L 380.9 80.6 Q 382.15 83.65 380.85 86.7 379.5 89.75 376.45 91 L 344.9 103.75 Q 341.85 105 338.8 103.7 335.75 102.4 334.5 99.35 L 332.2 93.6 M 367.95 381.25 Q 365.5 379.1 365.25 375.8 365 372.5 367.2 370 L 371.25 365.35 Q 373.45 362.85 376.75 362.55 380 362.4 382.55 364.5 L 408.2 386.85 Q 410.7 389.05 411 392.3 411.2 395.65 409 398.2 L 404.95 402.85 Q 402.75 405.35 399.5 405.55 396.2 405.8 393.7 403.55 L 367.95 381.25 M 308.05 23.2 Q 309.75 23.2 310.9 24.35 312.1 25.55 312.1 27.25 312.1 28.95 310.9 30.1 309.75 31.3 308.05 31.3 L 219.95 31.3 Q 218.25 31.3 217.1 30.1 215.9 28.95 215.9 27.25 215.9 25.55 217.1 24.35 218.25 23.2 219.95 23.2 L 308.05 23.2 M 310.9 42.75 Q 312.1 43.9 312.1 45.6 L 312.1 132.5 Q 312.1 134.2 310.9 135.4 309.75 136.55 308.05 136.55 306.35 136.55 305.15 135.4 304 134.2 304 132.5 L 304 45.6 Q 304 43.9 305.15 42.75 306.35 41.55 308.05 41.55 309.75 41.55 310.9 42.75 M 288.55 61.7 Q 296.55 61.7 296.55 69.7 L 296.55 90.6 Q 296.55 98.6 288.55 98.6 L 239.45 98.6 Q 231.45 98.6 231.45 90.6 L 231.45 69.7 Q 231.45 61.7 239.45 61.7 L 288.55 61.7 M 215.9 45.6 Q 215.9 43.9 217.1 42.75 218.25 41.55 219.95 41.55 221.65 41.55 222.85 42.75 224 43.9 224 45.6 L 224 132.5 Q 224 134.2 222.85 135.4 221.65 136.55 219.95 136.55 218.25 136.55 217.1 135.4 215.9 134.2 215.9 132.5 L 215.9 45.6 M 195.8 87.45 Q 197.05 90.55 195.8 93.6 L 193.5 99.35 Q 192.25 102.4 189.2 103.7 186.15 105 183.1 103.75 L 151.55 91 Q 148.5 89.75 147.15 86.7 145.85 83.65 147.1 80.6 L 149.4 74.85 Q 150.65 71.8 153.75 70.45 156.8 69.2 159.85 70.45 L 191.4 83.2 Q 194.45 84.45 195.8 87.45 M 231.45 118.8 Q 231.45 110.8 239.45 110.8 L 288.55 110.8 Q 296.55 110.8 296.55 118.8 L 296.55 139.7 Q 296.55 147.7 288.55 147.7 L 239.45 147.7 Q 231.45 147.7 231.45 139.7 L 231.45 118.8 M 215.9 151.75 Q 215.9 150.05 217.1 148.9 218.25 147.7 219.95 147.7 221.65 147.7 222.85 148.9 224 150.05 224 151.75 L 224 238.65 Q 224 240.35 222.85 241.55 221.65 242.7 219.95 242.7 218.25 242.7 217.1 241.55 215.9 240.35 215.9 238.65 L 215.9 151.75 M 310.9 148.9 Q 312.1 150.05 312.1 151.75 L 312.1 238.65 Q 312.1 240.35 310.9 241.55 309.75 242.7 308.05 242.7 306.35 242.7 305.15 241.55 304 240.35 304 238.65 L 304 151.75 Q 304 150.05 305.15 148.9 306.35 147.7 308.05 147.7 309.75 147.7 310.9 148.9 M 97.85 54.55 Q 99.1 51.5 102.2 50.15 105.2 48.9 108.3 50.15 L 139.85 62.9 Q 142.9 64.15 144.25 67.15 145.5 70.25 144.25 73.3 L 141.95 79.05 Q 140.7 82.1 137.65 83.4 134.6 84.7 131.55 83.45 L 100 70.7 Q 96.9 69.45 95.6 66.4 94.3 63.35 95.55 60.3 L 97.85 54.55 M 79.05 41.9 Q 79.65 42.5 80.1 43.2 81.35 45.05 81.35 47.5 81.35 50.75 79.05 53.05 76.75 55.35 73.5 55.35 70.25 55.35 67.95 53.05 65.65 50.75 65.65 47.5 65.65 44.25 67.95 41.9 70.25 39.6 73.5 39.6 76.75 39.6 79.05 41.9 M 117 392.3 Q 117.3 389.05 119.8 386.85 L 145.45 364.5 Q 148 362.4 151.25 362.55 154.55 362.85 156.75 365.35 L 160.8 370 Q 163 372.5 162.75 375.8 162.5 379.1 160.05 381.25 L 134.3 403.55 Q 131.8 405.8 128.5 405.55 125.25 405.35 123.05 402.85 L 119 398.2 Q 116.8 395.65 117 392.3 M 305.15 253.1 Q 306.35 251.9 308.05 251.9 309.75 251.9 310.9 253.1 312.1 254.25 312.1 255.95 L 312.1 342.85 Q 312.1 344.55 310.9 345.75 309.75 346.9 308.05 346.9 306.35 346.9 305.15 345.75 304 344.55 304 342.85 L 304 255.95 Q 304 254.25 305.15 253.1 M 219.95 251.9 Q 221.65 251.9 222.85 253.1 224 254.25 224 255.95 L 224 342.85 Q 224 344.55 222.85 345.75 221.65 346.9 219.95 346.9 218.25 346.9 217.1 345.75 215.9 344.55 215.9 342.85 L 215.9 255.95 Q 215.9 254.25 217.1 253.1 218.25 251.9 219.95 251.9 M 215.9 386.7 Q 215.9 378.7 223.9 378.7 L 304.1 378.7 Q 312.1 378.7 312.1 386.7 L 312.1 409.65 Q 312.1 417.65 304.1 417.65 L 223.9 417.65 Q 215.9 417.65 215.9 409.65 L 215.9 386.7 M 304.1 426.2 Q 312.1 426.2 312.1 434.2 L 312.1 457.15 Q 312.1 465.15 304.1 465.15 L 223.9 465.15 Q 215.9 465.15 215.9 457.15 L 215.9 434.2 Q 215.9 426.2 223.9 426.2 L 304.1 426.2 M 116.75 418.15 L 91 440.45 Q 88.5 442.7 85.2 442.45 81.95 442.25 79.75 439.75 L 75.7 435.1 Q 73.5 432.55 73.7 429.2 74 425.95 76.5 423.75 L 102.15 401.4 Q 104.7 399.3 107.95 399.45 111.25 399.75 113.45 402.25 L 117.5 406.9 Q 119.7 409.4 119.45 412.7 119.2 416 116.75 418.15 M 68.1 447.4 Q 68.7 448 69.15 448.7 69.9 449.8 70.2 451.15 70.4 452 70.4 453 70.4 453.95 70.2 454.85 69.7 456.95 68.1 458.55 65.8 460.85 62.55 460.85 59.3 460.85 57 458.55 54.7 456.25 54.7 453 54.7 449.75 57 447.4 59.3 445.1 62.55 445.1 65.8 445.1 68.1 447.4 M 451.5 423.75 Q 454 425.95 454.3 429.2 454.5 432.55 452.3 435.1 L 448.25 439.75 Q 446.05 442.25 442.8 442.45 439.5 442.7 437 440.45 L 411.25 418.15 Q 408.8 416 408.55 412.7 408.3 409.4 410.5 406.9 L 414.55 402.25 Q 416.75 399.75 420.05 399.45 423.3 399.3 425.85 401.4 L 451.5 423.75 M 471 447.4 Q 473.3 449.75 473.3 453 473.3 456.25 471 458.55 468.7 460.85 465.45 460.85 462.2 460.85 459.9 458.55 458.3 456.95 457.8 454.85 457.6 453.95 457.6 453 457.6 452 457.8 451.15 458.1 449.8 458.85 448.7 459.3 448 459.9 447.4 462.2 445.1 465.45 445.1 468.7 445.1 471 447.4 Z"/></g><path id="a" stroke="#000000" stroke-width="1" stroke-linejoin="round" stroke-linecap="round" fill="none" d=" M 462.35 47.5 Q 462.35 50.75 460.05 53.05 457.75 55.35 454.5 55.35 451.25 55.35 448.95 53.05 446.65 50.75 446.65 47.5 446.65 45.05 447.9 43.2 448.35 42.5 448.95 41.9 451.25 39.6 454.5 39.6 457.75 39.6 460.05 41.9 462.35 44.25 462.35 47.5 Z M 308.05 23.2 Q 309.75 23.2 310.9 24.35 312.1 25.55 312.1 27.25 312.1 28.95 310.9 30.1 309.75 31.3 308.05 31.3 L 219.95 31.3 Q 218.25 31.3 217.1 30.1 215.9 28.95 215.9 27.25 215.9 25.55 217.1 24.35 218.25 23.2 219.95 23.2 L 308.05 23.2 Z M 65.65 47.5 Q 65.65 50.75 67.95 53.05 70.25 55.35 73.5 55.35 76.75 55.35 79.05 53.05 81.35 50.75 81.35 47.5 81.35 45.05 80.1 43.2 79.65 42.5 79.05 41.9 76.75 39.6 73.5 39.6 70.25 39.6 67.95 41.9 65.65 44.25 65.65 47.5 Z M 312.1 386.7 Q 312.1 378.7 304.1 378.7 L 223.9 378.7 Q 215.9 378.7 215.9 386.7 L 215.9 409.65 Q 215.9 417.65 223.9 417.65 L 304.1 417.65 Q 312.1 417.65 312.1 409.65 L 312.1 386.7 Z M 304.1 426.2 Q 312.1 426.2 312.1 434.2 L 312.1 457.15 Q 312.1 465.15 304.1 465.15 L 223.9 465.15 Q 215.9 465.15 215.9 457.15 L 215.9 434.2 Q 215.9 426.2 223.9 426.2 L 304.1 426.2 Z M 54.7 453 Q 54.7 456.25 57 458.55 59.3 460.85 62.55 460.85 65.8 460.85 68.1 458.55 69.7 456.95 70.2 454.85 70.4 453.95 70.4 453 70.4 452 70.2 451.15 69.9 449.8 69.15 448.7 68.7 448 68.1 447.4 65.8 445.1 62.55 445.1 59.3 445.1 57 447.4 54.7 449.75 54.7 453 Z M 473.3 453 Q 473.3 456.25 471 458.55 468.7 460.85 465.45 460.85 462.2 460.85 459.9 458.55 458.3 456.95 457.8 454.85 457.6 453.95 457.6 453 457.6 452 457.8 451.15 458.1 449.8 458.85 448.7 459.3 448 459.9 447.4 462.2 445.1 465.45 445.1 468.7 445.1 471 447.4 473.3 449.75 473.3 453 Z"/></defs><g transform="matrix( 1, 0, 0, 1, -14,3.95) "><use xlink:href="#b"/><use xlink:href="#a"/></g><text x="0" y="515" fill="#000000" font-size="5px" font-weight="bold" font-family="'Helvetica Neue', Helvetica, Arial-Unicode, Arial, Sans-serif">Created by Dmitry Dyatchin</text><text x="0" y="520" fill="#000000" font-size="5px" font-weight="bold" font-family="'Helvetica Neue', Helvetica, Arial-Unicode, Arial, Sans-serif">from the Noun Project</text></svg>