<svg xmlns="http://www.w3.org/2000/svg" xmlns:xlink="http://www.w3.org/1999/xlink" version="1.1" x="0px" y="0px" viewBox="0 0 100 125" style="enable-background:new 0 0 100 100;" xml:space="preserve"><path d="M89,11H11c-3.3,0-6,2.7-6,6v50v6c0,3.3,2.7,6,6,6h31.6l-1.2,6H36c-1.1,0-2,0.9-2,2s0.9,2,2,2h7h14h7c1.1,0,2-0.9,2-2  s-0.9-2-2-2h-5.4l-1.2-6H89c3.3,0,6-2.7,6-6v-6V17C95,13.7,92.3,11,89,11z M9,17c0-1.1,0.9-2,2-2h78c1.1,0,2,0.9,2,2v48H9V17z   M54.6,85h-9.1l1.2-6h6.7L54.6,85z M91,73c0,1.1-0.9,2-2,2H55H45H11c-1.1,0-2-0.9-2-2v-4h82V73z M68,33H35.2l-5.4-10.9  c-0.3-0.7-1-1.1-1.8-1.1h-6c-1.1,0-2,0.9-2,2s0.9,2,2,2h4.8l5.3,10.7l3.9,15.8c0.2,0.9,1,1.5,1.9,1.5h2v4c0,1.1,0.9,2,2,2s2-0.9,2-2  v-4h12v4c0,1.1,0.9,2,2,2s2-0.9,2-2v-4h2c0.8,0,1.6-0.5,1.9-1.3l6-16c0.2-0.6,0.1-1.3-0.2-1.8C69.3,33.3,68.7,33,68,33z M60.6,49  H39.6l-3-12h28.6L60.6,49z"/><text x="0" y="115" fill="#000000" font-size="5px" font-weight="bold" font-family="'Helvetica Neue', Helvetica, Arial-Unicode, Arial, Sans-serif">Created by Mark Aventura</text><text x="0" y="120" fill="#000000" font-size="5px" font-weight="bold" font-family="'Helvetica Neue', Helvetica, Arial-Unicode, Arial, Sans-serif">from the Noun Project</text></svg>