<svg xmlns="http://www.w3.org/2000/svg" xmlns:xlink="http://www.w3.org/1999/xlink" version="1.1" x="0px" y="0px" viewBox="0 0 505.7 640" style="enable-background:new 0 0 505.7 512;" xml:space="preserve"><title>Asset 6</title><g><g><path d="M78,312.2H50.4c-9.2,0-16.7,7.5-16.7,16.7v27.6c0,9.2,7.5,16.7,16.7,16.7H78c9.2,0,16.7-7.5,16.7-16.7v-27.6    C94.7,319.7,87.2,312.2,78,312.2z M79.4,356.5c0,0.8-0.6,1.4-1.4,1.5c0,0,0,0,0,0H50.4c-0.8,0-1.4-0.7-1.4-1.5v-27.6    c0-0.8,0.6-1.4,1.4-1.4H78c0.8,0,1.4,0.6,1.4,1.4V356.5z"/><path d="M162.5,312.2h-27.6c-9.2,0-16.7,7.5-16.7,16.7v27.6c0,9.2,7.5,16.7,16.7,16.7h27.6c9.2,0,16.7-7.5,16.7-16.7v-27.6    C179.2,319.7,171.7,312.2,162.5,312.2z M164,356.5c0,0.8-0.6,1.4-1.4,1.4h-27.7c-0.8,0-1.4-0.6-1.4-1.4l0,0v-27.6    c0-0.8,0.6-1.4,1.4-1.4h0h27.6c0.8,0,1.4,0.6,1.4,1.4L164,356.5z"/><path d="M162.5,406.2h-27.6c-9.2,0-16.7,7.5-16.7,16.7v27.6c0,9.2,7.5,16.7,16.7,16.7h27.6c9.2,0,16.7-7.5,16.7-16.7v-27.6    C179.2,413.6,171.7,406.2,162.5,406.2z M164,450.5c0,0.8-0.6,1.4-1.4,1.4h0h-27.7c-0.8,0-1.4-0.6-1.4-1.4c0,0,0,0,0,0v-27.6    c0-0.8,0.6-1.4,1.4-1.4h0h27.6c0.8,0,1.4,0.6,1.4,1.4L164,450.5z"/><path d="M78,406.2H50.4c-9.2,0-16.7,7.5-16.7,16.7v27.6c0,9.2,7.5,16.7,16.7,16.7H78c9.2,0,16.7-7.5,16.7-16.7v-27.6    C94.7,413.6,87.2,406.2,78,406.2z M79.4,450.5c0,0.8-0.6,1.4-1.4,1.4c0,0,0,0,0,0H50.4c-0.8,0-1.4-0.7-1.4-1.4v-27.6    c0-0.8,0.6-1.4,1.4-1.4H78c0.8,0,1.4,0.6,1.4,1.4V450.5z"/><path d="M252.9,312.2h-27.7c-9.2,0-16.6,7.5-16.7,16.7v27.6c0,9.2,7.5,16.6,16.7,16.7h27.7c9.2,0,16.6-7.5,16.7-16.7v-27.6    C269.5,319.7,262,312.2,252.9,312.2z M254.3,356.5c0,0.8-0.6,1.4-1.4,1.4h-27.7c-0.8,0-1.4-0.6-1.4-1.4v-27.6    c0-0.8,0.6-1.4,1.4-1.4h27.7c0.8,0,1.4,0.6,1.4,1.4V356.5z"/><path d="M337.3,312.2h-27.6c-9.2,0-16.7,7.5-16.7,16.7v27.6c0,9.2,7.5,16.6,16.7,16.7h27.6c9.2,0,16.7-7.5,16.7-16.7v-27.6    C354,319.7,346.5,312.2,337.3,312.2z M338.8,356.5c0,0.8-0.6,1.4-1.4,1.4h0h-27.6c-0.8,0-1.4-0.6-1.4-1.4v-27.6    c0-0.8,0.6-1.4,1.4-1.4h27.6c0.8,0,1.4,0.6,1.4,1.4v0V356.5z"/><path d="M337.3,406.2h-27.6c-9.2,0-16.7,7.5-16.7,16.7v27.6c0,9.2,7.5,16.6,16.7,16.7h27.6c9.2,0,16.7-7.5,16.7-16.7v-27.6    C354,413.6,346.5,406.2,337.3,406.2z M338.8,450.5c0,0.8-0.6,1.4-1.4,1.4c0,0,0,0,0,0h-27.6c-0.8,0-1.4-0.6-1.4-1.4c0,0,0,0,0,0    v-27.6c0-0.8,0.6-1.4,1.4-1.4h27.6c0.8,0,1.4,0.6,1.4,1.4v0V450.5z"/><path d="M252.9,406.2h-27.7c-9.2,0-16.6,7.5-16.7,16.7v27.6c0,9.2,7.5,16.6,16.7,16.7h27.7c9.2,0,16.6-7.5,16.7-16.7v-27.6    C269.5,413.6,262,406.2,252.9,406.2z M254.3,450.5c0,0.8-0.6,1.4-1.4,1.4h0h-27.7c-0.8,0-1.4-0.6-1.4-1.4c0,0,0,0,0,0v-27.6    c0-0.8,0.6-1.4,1.4-1.4h27.7c0.8,0,1.4,0.6,1.4,1.4V450.5z"/><path d="M505.7,456.9c0-0.3,0-0.7-0.1-1V276.5c0-13.1-2.3-26.1-6.9-38.4c-0.1-0.3-0.2-0.7-0.4-1c-10.1-25.9-29.6-47.1-54.6-59.2    v-22.5c0-8.2-6.7-14.9-14.9-14.9h-67.3c-8.2,0-14.9,6.7-14.9,14.9v23.4c-33.8,17.2-56.4,50.7-59.6,88.5H141.7l-4.3-121    c0.1-0.5,0.2-1.1,0.2-1.6c0-0.7-0.1-1.5-0.3-2.1l-1-28.5c-0.3-8.1-7-14.6-15.1-14.6H53c-8.2,0-14.9,6.4-15.1,14.6l-1,28.5    c-0.2,0.7-0.3,1.4-0.3,2.1c0,0.5,0.1,1.1,0.2,1.6l-4.3,121H7.6c-4.2,0-7.6,3.4-7.6,7.6c0,0,0,0,0,0v229.4c0,4.2,3.4,7.6,7.6,7.6    h481.1c9.3,0,16.9-7.6,16.9-16.9v-37.2C505.7,457.5,505.7,457.2,505.7,456.9z M490.4,377.1l-98.5,0.1v-56.9l98.5-0.1V377.1z     M391.9,392.4l98.5-0.1v56.9l-98.5,0.1V392.4z M361.8,155.8h66.7v16.1c-21.8-6.7-45-6.5-66.7,0.6V155.8z M329.9,209.4    c7.9-7.8,17.1-14.1,27.2-18.7h0.1c45.5-20.6,99.1-2.1,122.3,42.1l-167.1,0.2C317.1,224.2,322.9,216.3,329.9,209.4z M306.2,248.2    L486,248c2.9,9.2,4.4,18.9,4.4,28.6V305l-98.5,0.1V275c0-4.2-3.4-7.6-7.6-7.6h-82C302.9,260.9,304.2,254.4,306.2,248.2    L306.2,248.2z M123.4,181.8H50.7l1-29.4h70.6L123.4,181.8z M50.2,197.1h73.7l1,29.7H49.2L50.2,197.1z M53.1,114.8H121l0.8,22.3    H52.3L53.1,114.8z M48.6,242h76.9l0.9,25.3H47.7L48.6,242z M294.2,496.8h-279V282.6h361.4v29.9c0,0.1,0,0.1,0,0.2s0,0.1,0,0.2    v183.9H294.2z M488.7,496.8h-96.8v-32.2l98.5-0.1v30.6C490.4,496,489.7,496.8,488.7,496.8C488.7,496.8,488.7,496.8,488.7,496.8    L488.7,496.8z"/><path d="M141.5,81.5c2.4,13.9,15.7,23.2,29.5,20.8c1.4-0.2,2.8-0.6,4.1-1.1c6.4,6,14.8,9.3,23.5,9.3c2,0,3.9-0.2,5.8-0.5    c11.2-1.9,20.7-9.3,25.3-19.7c15.3,6.3,32.9,0.8,41.9-13.1c17,9.1,38.3,2.7,47.4-14.4s2.7-38.3-14.4-47.4    c-6.4-3.4-13.7-4.8-20.9-3.9c-12.5-14.1-34-15.5-48.1-3c-0.7,0.6-1.4,1.3-2.1,2c-12-9.6-29-10-41.5-0.9c-18.1-5.3-37,5-42.4,23    c-2.3,7.9-1.7,16.4,1.7,24C143.7,62.5,139.9,72,141.5,81.5z M164.1,67.1c4.1-1,6.6-5.2,5.6-9.2c-0.3-1.2-0.8-2.2-1.6-3.1    c-6.8-7.9-5.9-19.8,2-26.6c5.6-4.8,13.5-5.9,20.2-2.8c2.9,1.3,6.3,0.8,8.6-1.5c7.4-7.3,19.3-7.3,26.7,0.1c0.9,0.9,1.6,1.8,2.3,2.8    c2.3,3.5,7.1,4.5,10.6,2.1c1.1-0.7,2-1.8,2.6-3c4.6-9.4,15.8-13.3,25.2-8.7c3.1,1.5,5.8,3.9,7.7,6.9c1.8,2.9,5.3,4.2,8.5,3.2    c0.7-0.2,1.3-0.3,2-0.5l0,0c10.7-1.9,20.9,5.3,22.8,16s-5.3,20.9-16,22.8c-6.4,1.1-12.9-1-17.5-5.6c-3-3-7.8-3-10.8-0.1    c-1,1-1.7,2.2-2,3.5c-2.6,10.1-13,16.1-23,13.5c-3-0.8-5.7-2.3-8-4.3c-3.1-2.8-7.9-2.6-10.8,0.5c-1.2,1.3-1.9,2.9-2,4.6    c-0.7,10.4-9.8,18.2-20.2,17.5c-5.6-0.4-10.8-3.3-14-7.9c-2.4-3.4-7.2-4.2-10.6-1.8c-1.2,0.9-2.6,1.5-4.1,1.7    c-5.6,1-11-2.8-11.9-8.4c0,0,0,0,0,0C155.5,73.5,158.9,68.4,164.1,67.1z"/></g></g><text x="0" y="527" fill="#000000" font-size="5px" font-weight="bold" font-family="'Helvetica Neue', Helvetica, Arial-Unicode, Arial, Sans-serif">Created by Jyoti Vyas</text><text x="0" y="532" fill="#000000" font-size="5px" font-weight="bold" font-family="'Helvetica Neue', Helvetica, Arial-Unicode, Arial, Sans-serif">from the Noun Project</text></svg>