<svg xmlns="http://www.w3.org/2000/svg" width="48" height="45" viewBox="0 0 48 45">
    <g fill="#FFF" fill-rule="nonzero">
        <path d="M37.173 2.187L34.56.107 7.573 5.227l2.454 2.826zM9.067 8.853l-2.454-2.88L0 20.96 2.027 24zM40.053 33.547c-.106-.16-.32-.214-.48-.214-.053 0-.16 0-.213.054l-.96.32a.706.706 0 0 0-.32 1.066l.907 1.12c.373.427.16 1.12-.374 1.334l-2.72 1.013c-.266.107-.533.16-.853.16a2.388 2.388 0 0 1-1.813-.8l-1.28-1.44c-.107-.16-.32-.213-.48-.213-.054 0-.16 0-.214.053l-1.28.533c-.373.16-.533.64-.266.96l2.773 3.627c.48.533 1.173.853 1.92.853.32 0 .693-.053 1.013-.213l6.24-2.56c1.28-.747 1.28-1.973.32-3.093l-1.92-2.56z"/>
        <path d="M19.733 37.173v7.2l10.88-4-1.76-2.293c-.373-.427-.48-1.013-.32-1.6.16-.533.534-1.013 1.067-1.173l1.28-.534c.213-.106.427-.106.64-.106.533 0 1.013.213 1.333.64l1.28 1.44c.214.266.534.426.907.426.16 0 .267 0 .427-.053l2.293-.853-.64-.8a1.84 1.84 0 0 1-.32-1.654c.16-.586.587-1.013 1.173-1.226l.907-.32c.213-.054.373-.107.587-.107.533 0 1.013.213 1.386.64l.054.053 2.026 2.507c.107.16.214.267.32.427l4.694-1.707v-6.4l-28.214 9.493zm26.56-4.8c0 .267-.16.48-.373.534l-2.667 1.013c-.373.16-.8-.16-.8-.533V32c0-.267.16-.48.374-.533l2.666-.907c.374-.107.747.16.747.533v1.28h.053zM38.613 27.84l1.867 1.12 3.413-1.173-4.96-2.72-.32.106zM16.16 22.613c0-.053-.053-.16 0-.213L10.4 24c2.347.32 4.8.48 6.4.533l-.64-1.92zM7.093 24.907l-3.146.853 2.773 1.813zM8.32 24.8l-.48 3.467.533.32c1.014.16 2.667.426 4.534.64l.266-3.787c-1.6-.107-3.306-.32-4.853-.64zM10.56 30.027l2.347 1.493-.054-1.227c-.693-.053-1.44-.106-2.293-.266zM19.467 27.467c-.64.053-1.067.106-1.174.106h-.053a.52.52 0 0 1-.533-.426l-.48-1.494c-.374 0-.854-.053-1.334-.053l-.213 3.84a29.2 29.2 0 0 0 2.133.053c.587 0 1.174 0 1.654-.053v-1.973zM20.64 21.653c.16-.533.587-.853 1.12-.853h.16c.053 0 1.547.213 3.733.48l-1.386-4.533c-1.974.48-4.214 1.013-6.72 1.44 0 0 .8 4.48 1.226 5.44 0 0 .534-.054 1.387-.214l.48-1.76zM28.907 21.653h.213c2.24-.586 4.427-1.333 6.027-2.186l-2.24-5.44s-2.134.906-5.76 1.973l1.76 5.653zM37.547 22.08l-2.027-1.067-.213 1.12h.586c.534 0 1.014 0 1.44-.053h.214zM38.613 24l6.4 3.467 1.494-.534-8.16-4.373c.16.213.266.48.266.747V24zM34.293 21.227c-.64.266-1.333.533-2.08.8.64.053 1.28.106 1.92.106l.16-.906zM18.933 24.853h-.16c-.266 0-.533-.106-.746-.266l.586 1.813c.214 0 .48-.053.8-.107v-.053l.374-1.547c-.427.107-.8.16-.854.16z"/>
        <path d="M20.693 26.027a72.08 72.08 0 0 0 6.56.96l.8-4.267c-3.466-.373-6.293-.8-6.293-.8l-1.067 4.107zM37.44 23.36v-.107c-.48.054-.96.054-1.547.054-1.546 0-3.306-.107-5.066-.267l-.48 4.267c2.72.16 5.013.213 6.346.213h.8v-4.16h-.053zM1.653 32.693l17.12 11.947v-7.893L1.653 25.653zM15.627 30.613v.854l2.506-.747c-.693 0-1.493-.053-2.506-.107zM25.813 28.427c.16-.054.32-.054.427.053l.96.533v-.8a72.08 72.08 0 0 1-6.56-.96v2.134c.267.053.693.106 1.173.213l4-1.173zM30.667 32.267l-4.8-2.667-3.36 1.013 4.746 2.827zM19.413 31.573l-4.48 1.334 4.48 2.88c.107.053.16.106.214.213l4.053-1.387-4.267-3.04zM34.773 30.827l2.667-.907v-1.28h-.747c-1.333 0-3.68-.053-6.453-.213v2.24c1.333.106 2.667.16 3.947.16h.586zM35.627 3.733l-5.12 9.974c.746-.267 1.28-.48 1.6-.587l5.013-9.707-1.493.32zM16.533 20.32L3.36 23.947l-.48 1.12.267.16 13.12-3.627z"/>
    </g>
</svg>
