<svg xmlns="http://www.w3.org/2000/svg" width="40" height="48" viewBox="0 0 40 48">
    <path fill="#FBCDC9" fill-rule="nonzero" d="M12.684 47.495S-.446 45.795.18 35.961c.624-9.831 7.085-18.34 3.334-25.906 0 0 6.253 1.136 9.169 9.644 0 0 8.076-10.687 1.614-19.196 0 0 9.973 3.515 11.533 12.48.834 4.791.19 9.742 2.276 12.39 0 0-1.46-9.076 4.377-13.05 0 0-.21 7.376 3.334 12.103 3.543 4.728 10.42 15.505-10.004 23.068 0 0 5.21-3.403 2.084-9.075-3.126-5.674-2.708-7.943-2.5-9.078 0 0-3.96 3.594-2.293 7.565 0 0-6.877-5.295-4.167-12.668 0 0-4.586 2.835-3.752 6.806.833 3.971.624 6.617-1.25 8.131 0 0-.417-5.485-2.5-6.807 0 0 0 4.159-1.042 6.24-1.044 2.08-1.044 6.052 2.29 8.887z"/>
</svg>
