<svg xmlns="http://www.w3.org/2000/svg" width="173" height="292" viewBox="0 0 173 292">
    <g fill="none" fill-rule="evenodd">
        <g fill="#FFCF77" transform="translate(0 23.126)">
            <ellipse cx="86.036" cy="85.6" rx="86.036" ry="85.6"/>
            <ellipse cx="86.036" cy="112.721" rx="86.036" ry="110.461"/>
            <path d="M0 79.103h172.071v189.281l-6.512-9.62-5.508 9.62-7.464-9.62-7.304 9.62-5.95-9.62-8.569 9.62-5.844-9.62-6.911 9.62-4.63-9.62-7.751 9.62-5.548-9.62-8.423 9.62-5.621-9.62-6.531 9.62-6.244-9.62-7.028 9.62-7.007-9.62-7.548 9.62-6.04-9.62-6.937 9.62-5.52-9.62-7.336 9.62-6.652-9.62-6.321 9.62-6.174-9.62L0 268.384z"/>
        </g>
        <g transform="translate(65.308 138.955)">
            <path stroke="#404040" stroke-linecap="square" stroke-width="5" d="M15.05.283L.283 8.193M25.84.283l15.332 7.91"/>
            <ellipse cx="20.728" cy="12.148" fill="#404040" rx="5.395" ry="3.673"/>
        </g>
        <g fill="#FAFAFA">
            <path d="M60.149 172.547l22.406 4.231-4.068 11.753zM110.219 172.547l-22.406 4.231 4.068 11.753z"/>
        </g>
        <g transform="translate(29.53 83.584)">
            <ellipse cx="31.234" cy="9.04" fill="#2D2323" rx="9.086" ry="9.04"/>
            <ellipse cx="81.776" cy="9.04" fill="#2D2323" rx="9.086" ry="9.04"/>
            <ellipse cx="101.937" cy="38.704" fill="#FFAD83" rx="11.074" ry="11.018"/>
            <ellipse cx="11.074" cy="38.704" fill="#FFAD83" rx="11.074" ry="11.018"/>
        </g>
        <g fill="#DB4848" transform="rotate(30 78.081 192.694)">
            <rect width="94.27" height="14.691" x=".443" y="33.538" rx="5"/>
            <rect width="55.086" height="40.681" x="19.932" y=".096" rx="10"/>
        </g>
    </g>
</svg>
