<svg xmlns="http://www.w3.org/2000/svg" width="410" height="221" viewBox="0 0 410 221">
    <g fill="none" fill-rule="evenodd" transform="translate(0 -79.976)">
        <ellipse cx="205" cy="240.976" fill="#D8D8D8" fill-opacity=".3" rx="205" ry="42"/>
        <g fill="#FFCF77" transform="rotate(67 114.078 259.257)">
            <ellipse cx="78.325" cy="85.557" rx="77" ry="85.5"/>
            <ellipse cx="77.762" cy="112.477" rx="77" ry="110.5"/>
            <path d="M.973 78.903h154v189l-5.829-9.605-4.929 9.605-6.68-9.605-6.537 9.605-5.325-9.605-7.67 9.605-5.23-9.605-6.185 9.605-4.143-9.605-6.937 9.605-4.965-9.605-7.54 9.605-5.03-9.605-5.845 9.605-5.588-9.605-6.29 9.605-6.27-9.605-6.756 9.605-5.406-9.605-6.209 9.605-4.94-9.605-6.565 9.605-5.954-9.605-5.657 9.605-5.526-9.605-5.994 9.605z"/>
        </g>
        <g stroke="#404040" stroke-linecap="square">
            <path stroke-width="5" d="M226.026 156.636l-13.05-10.5M230.242 166.569l-1.29 17.204"/>
            <path stroke-width="3" d="M214.404 160.639l5.08 11.966"/>
        </g>
        <g fill="#FAFAFA">
            <path d="M187.47 151.05l4.86 22.278-12.409.848zM207.033 197.14l-12.65-18.972-9.229 8.337z"/>
        </g>
        <g transform="rotate(67 67.43 241.995)">
            <g fill="#202020" transform="rotate(-45 27.036 -11.142)">
                <rect width="4.4" height="20.9" x="8.8" rx="2.2"/>
                <rect width="4.4" height="20.9" x="8.8" rx="2.2" transform="rotate(90 11 10.45)"/>
            </g>
            <g fill="#202020" transform="rotate(-45 52.036 -71.497)">
                <rect width="4.4" height="20.9" x="8.8" rx="2.2"/>
                <rect width="4.4" height="20.9" x="8.8" rx="2.2" transform="rotate(90 11 10.45)"/>
            </g>
            <ellipse cx="101.937" cy="45.704" fill="#ECCBBB" rx="11.074" ry="11.018"/>
            <ellipse cx="11.074" cy="45.704" fill="#ECCBBB" rx="11.074" ry="11.018"/>
        </g>
        <g fill="#DB4848" transform="rotate(11 -832.567 1388.007)">
            <rect width="94.27" height="14.691" x=".443" y="33.538" rx="5"/>
            <rect width="55.086" height="40.681" x="19.932" y=".096" rx="10"/>
        </g>
    </g>
</svg>
