<svg xmlns:dc="http://purl.org/dc/elements/1.1/" xmlns:cc="http://creativecommons.org/ns#" xmlns:rdf="http://www.w3.org/1999/02/22-rdf-syntax-ns#" xmlns:svg="http://www.w3.org/2000/svg" xmlns="http://www.w3.org/2000/svg" xmlns:sodipodi="http://sodipodi.sourceforge.net/DTD/sodipodi-0.dtd" xmlns:inkscape="http://www.inkscape.org/namespaces/inkscape" version="1.1" x="0px" y="0px" viewBox="0 0 100 125"><g transform="translate(0,-952.36218)"><path style="text-indent:0;text-transform:none;direction:ltr;block-progression:tb;baseline-shift:baseline;color:#000000;enable-background:accumulate;" d="m 18,958.36217 a 2.0002,2.0002 0 0 0 -1.75,1.0625 l -13,24 A 2.0002,2.0002 0 0 0 3,984.36217 l 0,5 c 0,4.64684 2.91247,8.64277 7,10.25 l 0,44.75003 a 2.0002,2.0002 0 0 0 2,2 l 76,0 a 2.0002,2.0002 0 0 0 2,-2 l 0,-44.75003 c 4.08753,-1.60723 7,-5.60316 7,-10.25 l 0,-5 a 2.0002,2.0002 0 0 0 -0.25,-0.9375 l -13,-24 A 2.0002,2.0002 0 0 0 82,958.36217 l -64,0 z m 1.1875,4 9.03125,0 -6.6875,20 -13.1875,0 10.84375,-20 z m 13.25,0 9.28125,0 -2.5,20 -13.4375,0 6.65625,-20 z m 13.34375,0 8.4375,0 2.5,20 -13.4375,0 2.5,-20 z m 12.5,0 9.28125,0 6.65625,20 -13.4375,0 -2.5,-20 z m 13.5,0 9.03125,0 10.84375,20 -13.1875,0 -6.6875,-20 z m -64.78125,24 14,0 0,3 c 0,3.91259 -3.08741,7 -7,7 -3.91259,0 -7,-3.08741 -7,-7 l 0,-3 z m 18,0 14,0 0,3 c 0,3.91259 -3.08741,7 -7,7 -3.91259,0 -7,-3.08741 -7,-7 l 0,-3 z m 18,0 14,0 0,3 c 0,3.91259 -3.08741,7 -7,7 -3.91259,0 -7,-3.08741 -7,-7 l 0,-3 z m 18,0 14,0 0,3 c 0,3.91259 -3.08741,7 -7,7 -3.91259,0 -7,-3.08741 -7,-7 l 0,-3 z m 18,0 14,0 0,3 c 0,3.91259 -3.08741,7 -7,7 -3.91259,0 -7,-3.08741 -7,-7 l 0,-3 z m -56,9.3125 c 1.99295,2.83506 5.28376,4.68753 9,4.68753 3.71624,0 7.00705,-1.85247 9,-4.68753 1.99295,2.83506 5.28376,4.68753 9,4.68753 3.71624,0 7.00705,-1.85247 9,-4.68753 1.99295,2.83506 5.28376,4.68753 9,4.68753 3.71624,0 7.00705,-1.85247 9,-4.68753 1.99295,2.83506 5.28376,4.68753 9,4.68753 l 0,42 -40,0 0,-30 a 2.0002,2.0002 0 0 0 -2,-2 l -20,0 a 2.0002,2.0002 0 0 0 -2,2 l 0,30 -8,0 0,-42 c 3.71624,0 7.00705,-1.85247 9,-4.68753 z m 31,14.68753 a 2.0002,2.0002 0 0 0 -2,2 l 0,14 a 2.0002,2.0002 0 0 0 2,2 l 22,0 a 2.0002,2.0002 0 0 0 2,-2 l 0,-14 a 2.0002,2.0002 0 0 0 -2,-2 l -22,0 z m -28,4 16,0 0,28 -16,0 0,-28 z m 30,0 18,0 0,10 -18,0 0,-10 z" fill="#000000" fill-opacity="1" stroke="none" marker="none" visibility="visible" display="inline" overflow="visible"/></g><text x="0" y="115" fill="#000000" font-size="5px" font-weight="bold" font-family="'Helvetica Neue', Helvetica, Arial-Unicode, Arial, Sans-serif">Created by Numero Uno</text><text x="0" y="120" fill="#000000" font-size="5px" font-weight="bold" font-family="'Helvetica Neue', Helvetica, Arial-Unicode, Arial, Sans-serif">from the Noun Project</text></svg>