<svg xmlns="http://www.w3.org/2000/svg" xmlns:xlink="http://www.w3.org/1999/xlink" viewBox="0 0 331 371.25" version="1.1" x="0px" y="0px"><title>Robotics and Automation-02</title><desc>Created with Sketch.</desc><g stroke="none" stroke-width="1" fill="none" fill-rule="evenodd"><g fill="#000000" fill-rule="nonzero"><path d="M210.49,92.58 C209.836758,92.5796334 209.18805,92.4715155 208.57,92.26 L119,62 C102.847171,56.1858847 94.3176727,38.5143909 99.8142394,22.2507637 C105.310806,5.98713651 122.811816,-2.88690852 139.18,2.29 L228.74,32.56 C230.933925,33.1065421 232.634325,34.8399959 233.138534,37.0440348 C233.642743,39.2480738 232.865135,41.5484109 231.127048,42.9944628 C229.38896,44.4405146 226.985552,44.7867145 224.91,43.89 L135.35,13.62 C125.118925,10.1626977 114.022303,15.6539252 110.565,25.8850001 C107.107698,36.116075 112.598925,47.2126974 122.83,50.67 L212.39,80.94 C215.121658,81.9150821 216.764712,84.7045987 216.293056,87.5664651 C215.821401,90.4283315 213.370092,92.543069 210.47,92.59 L210.49,92.58 Z"/><path d="M124.37,130.6 C122.444595,130.593194 120.639424,129.662778 119.516742,128.098547 C118.39406,126.534317 118.090272,124.526325 118.7,122.7 L146.76,39.7 C150.199087,29.4729111 144.716289,18.3910393 134.5,14.92 C124.272111,11.4690295 113.182079,16.9558653 109.72,27.18 L81.14,111.75 C79.9011871,114.61738 76.6696818,116.05467 73.7106336,115.054392 C70.7515854,114.054114 69.054951,110.950911 69.81,107.92 L98.39,23.35 C104.172933,7.14961957 121.876585,-1.42260964 138.171822,4.08736941 C154.46706,9.59734846 163.33547,27.1545035 158.1,43.54 L128.1,132.71 C127.28,135.18 126.87,130.6 124.37,130.6 Z"/><path d="M85.9,200.05 C66.439502,200.054045 48.8931488,188.333902 41.4440702,170.35552 C33.9949915,152.377138 38.1104434,131.681744 51.8710938,117.921094 C65.6317442,104.160443 86.3271376,100.044992 104.30552,107.49407 C122.283902,114.943149 134.004045,132.489502 134,151.95 C133.961447,178.498911 112.448911,200.011447 85.9,200.05 Z M85.9,115.8 C71.2800155,115.783819 58.0904229,124.577699 52.4834475,138.079774 C46.8764721,151.581849 49.9567436,167.132078 60.2874834,177.477126 C70.6182232,187.822174 86.1641733,190.923965 99.6739961,185.335683 C113.183819,179.747401 121.995946,166.569993 122,151.95 C121.978026,132.013524 105.836426,115.849567 85.9,115.8 Z"/><path d="M85.9,178.08 C75.32868,178.092137 65.7915304,171.733468 61.7376488,161.970323 C57.6837671,152.207178 59.9119279,140.963282 67.3826902,133.483933 C74.8534524,126.004583 86.0947812,123.763508 95.8625766,127.806171 C105.630372,131.848834 111.999993,141.378673 112,151.95 C111.98351,166.362658 100.31263,178.046953 85.9,178.08 Z M85.9,137.78 C78.0741251,137.78 71.73,144.124125 71.73,151.95 C71.73,159.775875 78.0741251,166.12 85.9,166.12 C93.7258749,166.12 100.07,159.775875 100.07,151.95 C100.064493,144.124788 93.7252065,137.781027 85.9,137.77 L85.9,137.78 Z"/><path d="M128,270.33 L43.77,270.33 C40.4562915,270.33 37.77,267.643708 37.77,264.33 L37.77,157.94 C37.77,154.626292 40.4562915,151.94 43.77,151.94 C47.0837085,151.94 49.77,154.626292 49.77,157.94 L49.77,258.42 L122,258.42 L122,157.94 C122,154.626292 124.686292,151.94 128,151.94 C131.313708,151.94 134,154.626292 134,157.94 L134,264.38 C133.972548,267.674166 131.29428,270.330114 128,270.33 Z"/><path d="M165.76,296.33 L6,296.33 C2.6862915,296.33 -1.42108547e-14,293.643708 -1.42108547e-14,290.33 L-1.42108547e-14,264.33 C-1.42108547e-14,261.016292 2.6862915,258.33 6,258.33 L165.76,258.33 C169.073708,258.33 171.76,261.016292 171.76,264.33 L171.76,290.33 C171.76,291.921299 171.127859,293.447422 170.002641,294.572641 C168.877422,295.697859 167.351299,296.33 165.76,296.33 Z M12,284.36 L159.78,284.36 L159.78,270.36 L12,270.36 L12,284.36 Z"/><path d="M233.89,118.39 C233.236758,118.389633 232.58805,118.281515 231.97,118.07 L207.68,109.86 C204.55917,108.793401 202.884278,105.407888 203.93,102.28 L231.14,21.78 C232.206599,18.6591695 235.592112,16.9842783 238.72,18.03 L263,26.24 C266.12083,27.3065987 267.795722,30.6921122 266.75,33.82 L239.54,114.32 C238.717051,116.742533 236.448463,118.376719 233.89,118.39 Z M217.18,100.45 L230.18,104.83 L253.56,35.66 L240.56,31.28 L217.18,100.45 Z"/><path d="M324.9,87.07 C323.077749,87.0664325 321.355869,86.2349264 320.22,84.81 L294,51.81 L277.71,61.81 C276.157603,62.7561158 274.259956,62.9473517 272.55,62.33 L258.63,57.33 C255.501307,56.2033391 253.878339,52.7536931 255.005,49.625 C256.131661,46.4963069 259.581307,44.8733391 262.71,46 L273.92,50.07 L292.27,38.86 C294.847365,37.2945408 298.186209,37.8852595 300.07,40.24 L329.58,77.34 C330.990737,79.140796 331.254737,81.587086 330.260687,83.6474037 C329.266637,85.7077213 327.187525,87.0235201 324.9,87.04 L324.9,87.07 Z"/><path d="M265.87,131.34 C263.307855,131.330977 261.034146,129.695995 260.21,127.27 L253.32,106.91 L242.11,102.84 C239.244521,101.553124 237.856612,98.2739747 238.927559,95.3209947 C239.998506,92.3680147 243.165764,90.7408728 246.19,91.59 L260.11,96.59 C261.819979,97.2122339 263.155184,98.5768648 263.74,100.3 L269.86,118.38 L311.12,109.89 C314.231521,109.493803 317.123134,111.56108 317.754908,114.633441 C318.386681,117.705801 316.54539,120.746312 313.53,121.61 L267.1,131.17 C266.696837,131.268288 266.284709,131.325249 265.87,131.34 Z"/></g></g><text x="0" y="312" fill="#000000" font-size="5px" font-weight="bold" font-family="'Helvetica Neue', Helvetica, Arial-Unicode, Arial, Sans-serif">Created by Philipp Petzka</text><text x="0" y="317" fill="#000000" font-size="5px" font-weight="bold" font-family="'Helvetica Neue', Helvetica, Arial-Unicode, Arial, Sans-serif">from the Noun Project</text></svg>