<svg xmlns="http://www.w3.org/2000/svg" data-name="Layer 1" viewBox="0 0 32 40" x="0px" y="0px"><title>Ads</title><path d="M29.29,14.91l-13-13A3,3,0,0,0,13.75,1l-9,1.12A3,3,0,0,0,2.14,4.78L1,13.75a3,3,0,0,0,.87,2.53l13,13a3,3,0,0,0,4.24,0L29.29,19.15h0a3,3,0,0,0,0-4.24ZM9.79,9.79A2,2,0,1,1,7,7,2,2,0,0,1,9.79,7a2,2,0,0,1,0,2.83Z"/><text x="0" y="47" fill="#000000" font-size="5px" font-weight="bold" font-family="'Helvetica Neue', Helvetica, Arial-Unicode, Arial, Sans-serif">Created by Yoyon Pujiyono</text><text x="0" y="52" fill="#000000" font-size="5px" font-weight="bold" font-family="'Helvetica Neue', Helvetica, Arial-Unicode, Arial, Sans-serif">from the Noun Project</text></svg>