<svg xmlns:dc="http://purl.org/dc/elements/1.1/" xmlns:cc="http://creativecommons.org/ns#" xmlns:rdf="http://www.w3.org/1999/02/22-rdf-syntax-ns#" xmlns:svg="http://www.w3.org/2000/svg" xmlns="http://www.w3.org/2000/svg" xmlns:sodipodi="http://sodipodi.sourceforge.net/DTD/sodipodi-0.dtd" xmlns:inkscape="http://www.inkscape.org/namespaces/inkscape" viewBox="0 0 33.866666 42.33333375" version="1.1" x="0px" y="0px"><g style="" transform="translate(0,-338.66667)" display="inline"><path style="color:#000000;font-style:normal;font-variant:normal;font-weight:normal;font-stretch:normal;font-size:medium;line-height:normal;font-family:sans-serif;font-variant-ligatures:normal;font-variant-position:normal;font-variant-caps:normal;font-variant-numeric:normal;font-variant-alternates:normal;font-feature-settings:normal;text-indent:0;text-align:start;text-decoration:none;text-decoration-line:none;text-decoration-style:solid;text-decoration-color:#000000;letter-spacing:normal;word-spacing:normal;text-transform:none;writing-mode:lr-tb;direction:ltr;text-orientation:mixed;dominant-baseline:auto;baseline-shift:baseline;text-anchor:start;white-space:normal;shape-padding:0;clip-rule:nonzero;display:inline;overflow:visible;visibility:visible;opacity:1;isolation:auto;mix-blend-mode:normal;color-interpolation:sRGB;color-interpolation-filters:linearRGB;solid-color:#000000;solid-opacity:1;vector-effect:none;fill:#000000;fill-opacity:1;fill-rule:nonzero;stroke:none;stroke-width:1.05833328;stroke-linecap:round;stroke-linejoin:round;stroke-miterlimit:4;stroke-dasharray:none;stroke-dashoffset:0;stroke-opacity:1;color-rendering:auto;image-rendering:auto;shape-rendering:auto;text-rendering:auto;enable-background:accumulate" d="m 16.502132,339.19583 c -0.343189,0 -0.656552,0.1377 -0.890463,0.35762 -0.130193,0.0208 -0.259827,0.0441 -0.387928,0.0709 -0.04989,0.0104 -0.09894,0.0229 -0.1485,0.0341 -0.10165,0.0232 -0.202732,0.0477 -0.302918,0.0746 -0.06336,0.0169 -0.126113,0.0349 -0.188854,0.0533 -0.08568,0.0252 -0.170536,0.0516 -0.255033,0.0794 -0.0681,0.0223 -0.136077,0.0447 -0.203379,0.0687 -0.06467,0.0232 -0.128174,0.0488 -0.192081,0.0736 -0.18487,0.0713 -0.366918,0.14804 -0.545039,0.23184 -0.01368,0.006 -0.02779,0.0121 -0.04143,0.0186 -0.10226,0.0488 -0.202517,0.1007 -0.302381,0.1535 -0.02606,0.0138 -0.05212,0.0275 -0.07802,0.0416 -0.105244,0.0571 -0.209132,0.11603 -0.311526,0.17748 -0.0059,0.004 -0.01185,0.007 -0.01776,0.0107 -0.230132,0.13888 -0.454712,0.28568 -0.669326,0.44556 a 0.55101128,0.54581437 0 0 0 -0.05596,0.0485 c -1.9731861,1.49802 -3.248561,3.85444 -3.2487059,6.50222 a 0.55101128,0.54581437 0 0 0 0,0.006 c 7.437e-4,0.0669 0.00611,0.13357 0.00861,0.20039 l -0.1893911,-0.0373 a 0.55101128,0.54581437 0 0 0 -0.1081467,-0.0107 v 5.4e-4 c -0.6599183,0 -1.2079071,0.54282 -1.2079071,1.19651 0,0.3317 0.1626316,0.6443 0.3766301,0.8357 0.2139988,0.19141 0.4620228,0.28965 0.7053746,0.34643 0.1612911,0.0376 0.3220844,0.0701 0.4831628,0.10553 -0.3798161,0.53355 -0.6002776,1.1958 -0.600994,1.91495 a 0.55101128,0.54581437 0 0 0 0,0.002 c 0.00107,1.33105 0.6732397,2.5559 1.7680092,2.93932 0.3661331,1.30783 0.9514861,2.48686 1.7072111,3.46483 0.286629,0.37092 0.600458,0.7111 0.935119,1.02011 l -0.484239,1.14161 c -0.1453,0.0587 -0.289027,0.11982 -0.430971,0.18334 -0.02883,0.0129 -0.05794,0.0253 -0.08662,0.0384 -0.201408,0.0919 -0.399158,0.18853 -0.593463,0.28994 -0.03053,0.0159 -0.06111,0.0318 -0.09147,0.048 a 0.55101128,0.54581437 0 0 0 -0.0028,0.002 c -0.0093,0.005 -0.01814,0.0105 -0.02744,0.0155 -0.191946,0.10289 -0.381458,0.20954 -0.566022,0.32137 -0.02026,0.0123 -0.04009,0.0249 -0.06026,0.0373 -0.01704,0.0105 -0.0336,0.0215 -0.05058,0.032 -0.1553051,0.0964 -0.3075731,0.19595 -0.4573371,0.29847 -0.03503,0.024 -0.07074,0.0471 -0.105455,0.0714 -0.01335,0.009 -0.02705,0.0183 -0.04035,0.0277 -7.16e-4,5.2e-4 -0.0014,10e-4 -0.0021,0.002 -0.1503746,0.10623 -0.2967859,0.21658 -0.4411954,0.32883 -0.038692,0.0301 -0.077424,0.0601 -0.1156793,0.0906 -0.031652,0.0252 -0.063345,0.0502 -0.094696,0.0757 -0.1332626,0.10847 -0.2639629,0.2196 -0.3916955,0.33311 -0.023203,0.0206 -0.045852,0.0416 -0.068869,0.0624 -0.020625,0.0186 -0.043014,0.0356 -0.063489,0.0544 a 0.55101128,0.54581437 0 0 0 -0.0382,0.0394 c -0.1057054,0.0977 -0.2093745,0.19682 -0.3109893,0.29794 -0.031416,0.0312 -0.063675,0.0617 -0.094697,0.0933 -0.1381487,0.14063 -0.2712439,0.2855 -0.4013801,0.43224 -0.019892,0.0224 -0.041634,0.0435 -0.061336,0.0661 a 0.55101128,0.54581437 0 0 0 -0.033897,0.0426 c -1.6823431,1.94571 -2.6601576,4.39624 -2.6627758,6.99948 0,0.15261 0.0068,0.29721 0.012375,0.4333 a 0.55101128,0.54581437 0 0 0 0.548804,0.52338 H 28.542992 a 0.55101128,0.54581437 0 0 0 0.548805,-0.52338 c 0.0056,-0.13626 0.01237,-0.28077 0.01237,-0.4333 -0.0014,-2.61954 -0.989736,-5.0849 -2.689679,-7.03732 a 0.55101128,0.54581437 0 0 0 -0.0086,-0.0112 c -0.0053,-0.006 -0.01137,-0.0115 -0.01667,-0.0176 -0.26922,-0.30712 -0.555681,-0.60147 -0.859255,-0.88152 a 0.55101128,0.54581437 0 0 0 -0.01883,-0.0192 c -0.0099,-0.009 -0.02078,-0.0171 -0.03067,-0.0261 -0.171954,-0.15683 -0.348767,-0.30926 -0.531048,-0.45676 -0.0085,-0.007 -0.01731,-0.0134 -0.02582,-0.0203 -0.02049,-0.0165 -0.04126,-0.0327 -0.06188,-0.049 -0.01653,-0.0131 -0.03288,-0.0264 -0.0495,-0.0394 -0.178774,-0.14037 -0.361878,-0.27667 -0.54988,-0.40772 -0.01791,-0.0125 -0.03635,-0.0244 -0.05434,-0.0368 -0.377792,-0.26033 -0.77334,-0.50156 -1.185846,-0.72164 -0.02869,-0.0153 -0.05725,-0.0307 -0.08609,-0.0458 -0.199607,-0.1045 -0.403014,-0.20397 -0.610141,-0.29846 -0.02839,-0.013 -0.05703,-0.0256 -0.08555,-0.0384 -0.143016,-0.064 -0.287777,-0.12535 -0.434201,-0.18441 l -0.481011,-1.13308 c 0.334243,-0.30884 0.647619,-0.64892 0.934043,-1.01957 0.747961,-0.96793 1.330146,-2.13257 1.696988,-3.42433 0.517672,-0.1506 0.960449,-0.49563 1.276239,-0.93909 0.395365,-0.55521 0.618042,-1.27057 0.618212,-2.04287 -6.35e-4,-0.73108 -0.227536,-1.4021 -0.618212,-1.9384 0.127292,-0.0278 0.254861,-0.053 0.38201,-0.0821 0.245287,-0.056 0.493938,-0.15445 0.708065,-0.34643 0.214127,-0.19197 0.378244,-0.5042 0.378244,-0.8357 0,-0.65369 -0.547988,-1.19651 -1.207906,-1.19651 a 0.55101128,0.54581437 0 0 0 -0.130208,0.0139 c -0.05502,0.0132 -0.111438,0.0245 -0.166793,0.0373 0.0024,-0.0688 0.0077,-0.13732 0.0081,-0.20625 a 0.55101128,0.54581437 0 0 0 0,-0.004 c -1.32e-4,-2.64754 -1.275312,-5.00367 -3.248154,-6.50172 a 0.55101128,0.54581437 0 0 0 -0.0565,-0.049 c -0.21197,-0.15791 -0.434013,-0.30279 -0.661254,-0.44023 -0.01023,-0.006 -0.02041,-0.0125 -0.03067,-0.0187 -0.100024,-0.0599 -0.201242,-0.118 -0.303995,-0.17375 -0.02673,-0.0145 -0.0538,-0.0284 -0.08071,-0.0426 -0.101282,-0.0535 -0.202934,-0.10622 -0.306685,-0.15563 -0.194048,-0.0924 -0.392967,-0.17617 -0.595076,-0.25369 -0.05878,-0.0226 -0.117067,-0.0464 -0.176478,-0.0677 -0.07027,-0.0251 -0.141383,-0.0481 -0.212527,-0.0714 -0.08168,-0.0268 -0.163652,-0.0524 -0.246423,-0.0768 -0.0645,-0.0189 -0.129093,-0.0375 -0.194233,-0.0549 -0.09857,-0.0264 -0.198101,-0.0502 -0.298077,-0.073 -0.05044,-0.0115 -0.100413,-0.0241 -0.151189,-0.0346 -0.128484,-0.0268 -0.25842,-0.0506 -0.389006,-0.0714 -0.233327,-0.21942 -0.545556,-0.35708 -0.88831,-0.35708 z m 0.430972,1.34148 c 0.202667,-10e-6 0.403172,0.0104 0.601533,0.0267 l 0.02529,3.93756 v 1.29725 a 0.5510919,0.54589424 0 0 0 0.51168,0.54469 0.5510919,0.54589424 0 0 0 0.05542,0.001 0.5510919,0.54589424 0 0 0 0.534815,-0.54576 v -1.05261 l 2.921035,-2.51401 c 1.541367,1.30143 2.518462,3.23788 2.51858,5.4059 -9.1e-4,0.13068 -0.0182,0.2603 -0.02635,0.39066 -2.573069,0.46111 -5.414897,0.59054 -8.434902,0.59054 a 0.55109502,0.54589733 0 0 0 -0.109762,0.0107 0.55109502,0.54589733 0 0 0 -0.104919,0.0325 0.55109502,0.54589733 0 0 0 -0.3352,0.46368 0.55109502,0.54589733 0 0 0 0,5.4e-4 0.55109502,0.54589733 0 0 0 0.138815,0.40187 0.55109502,0.54589733 0 0 0 0,5.4e-4 0.55109502,0.54589733 0 0 0 0.03873,0.0384 0.55109502,0.54589733 0 0 0 0.08824,0.0656 0.55109502,0.54589733 0 0 0 0.09954,0.0464 0.55109502,0.54589733 0 0 0 0.106533,0.0261 0.55109502,0.54589733 0 0 0 0.07802,0.005 c 0.433781,0 0.864846,-0.002 1.293993,-0.006 0.0033,-3e-5 0.0064,3e-5 0.0097,0 0.01137,-1.2e-4 0.02253,-4.1e-4 0.0339,-5.5e-4 0.421055,-0.004 0.838952,-0.0121 1.254718,-0.0224 2.260254,-0.0561 4.438192,-0.21165 6.467278,-0.60918 a 0.55101128,0.54581437 0 0 0 0.107072,-0.0331 c 0.231021,-0.0466 0.460505,-0.0951 0.687619,-0.14816 0.06605,0.001 0.103842,0.0363 0.103842,0.10286 0,0.0293 0.01187,0.003 -0.01399,0.0261 -0.02586,0.0232 -0.106135,0.0678 -0.215756,0.0927 -0.60677,0.13855 -1.215078,0.26058 -1.824503,0.37042 -0.223233,0.0402 -0.446809,0.0772 -0.670403,0.11351 -0.07658,0.0124 -0.153127,0.0248 -0.229744,0.0368 -0.221864,0.0346 -0.443868,0.0679 -0.666098,0.0986 -0.05629,0.008 -0.112631,0.0148 -0.168945,0.0224 -0.778203,0.10407 -1.558634,0.18525 -2.341564,0.24038 -0.0033,2.2e-4 -0.0064,3e-4 -0.0097,5.4e-4 -0.271404,0.019 -0.543134,0.0349 -0.815135,0.048 -0.0053,2.6e-4 -0.01076,2.7e-4 -0.01614,5.4e-4 -2.74374,0.13027 -5.518319,-0.0461 -8.330524,-0.56071 a 0.55101128,0.54581437 0 0 0 -0.01022,-0.002 c -0.143108,-0.0262 -0.2865481,-0.0526 -0.4288191,-0.0805 a 0.55101128,0.54581437 0 0 0 -0.03873,-0.006 c -0.4384941,-0.0861 -0.8773241,-0.17759 -1.3176679,-0.28034 -0.1111587,-0.0259 -0.1918184,-0.0732 -0.2179075,-0.0965 -0.026088,-0.0233 -0.013989,0.005 -0.013989,-0.024 0,-0.0626 0.038524,-0.0912 0.097387,-0.0965 l 1.4866134,0.29207 a 0.55135785,0.54615768 0 0 0 0.05487,0.007 0.55135785,0.54615768 0 0 0 0.4611041,-0.90978 0.55135785,0.54615768 0 0 0 -0.03873,-0.0384 0.55135785,0.54615768 0 0 0 -0.08878,-0.065 0.55135785,0.54615768 0 0 0 -0.09953,-0.0458 0.55135785,0.54615768 0 0 0 -0.07533,-0.0203 l -0.2706371,-0.0528 c -0.01046,-0.1432 -0.02845,-0.28539 -0.03013,-0.42903 7.43e-4,-2.16672 0.9772131,-4.10221 2.5175031,-5.40324 l 2.91996,2.51188 v 1.05421 a 0.5512255,0.54602657 0 1 0 1.102451,0 v -1.29671 l 0.02529,-3.93757 c 0.198971,-0.0164 0.3993,-0.0272 0.602609,-0.0272 z m 1.728733,0.3491 c 0.677177,0.17243 1.304602,0.44081 1.889069,0.78932 l -1.889069,1.62449 z m -3.45908,5.4e-4 v 2.41328 l -1.889069,-1.62449 c 0.584614,-0.34876 1.211697,-0.61625 1.889069,-0.78879 z m 7.980795,9.76505 c 0.05434,0.42408 0.109403,0.84893 0.11245,1.27966 3.3e-5,0.005 5.25e-4,0.0103 5.51e-4,0.0155 -1e-6,0.002 3e-6,0.005 0,0.007 -1.99e-4,0.20511 -0.0082,0.40787 -0.01937,0.60918 -0.0024,0.042 -0.0047,0.084 -0.0076,0.12579 -0.01313,0.19577 -0.03011,0.38984 -0.05327,0.58146 -0.0043,0.0362 -0.01034,0.0716 -0.01506,0.10766 -0.02091,0.15949 -0.04553,0.31703 -0.07318,0.47327 -0.0092,0.0519 -0.01806,0.10409 -0.02797,0.15563 -0.03494,0.18165 -0.07407,0.36159 -0.117833,0.53831 -0.32296,1.30365 -0.879263,2.46454 -1.597449,3.39394 -0.344456,0.44576 -0.724341,0.83645 -1.131507,1.16773 a 0.55101128,0.54581437 0 0 0 -0.03551,0.0261 c -0.483183,0.3867 -1.002225,0.68849 -1.549028,0.89433 -0.0071,0.003 -0.0144,0.005 -0.02153,0.007 -0.13307,0.0494 -0.267844,0.0937 -0.404069,0.13164 -5.51e-4,1.5e-4 -0.0011,3.8e-4 -0.0016,5.5e-4 0,0 -5.52e-4,0 -5.52e-4,0 -0.136484,0.0379 -0.274336,0.0694 -0.413756,0.0954 -0.01466,0.003 -0.02943,0.005 -0.04412,0.007 -0.120788,0.0214 -0.24253,0.0379 -0.365331,0.0501 -0.02314,0.002 -0.04619,0.005 -0.06941,0.007 -0.137313,0.0117 -0.275787,0.0186 -0.41537,0.0186 -0.139224,0 -0.277312,-0.007 -0.414292,-0.0186 -0.02411,-0.002 -0.04804,-0.005 -0.0721,-0.007 -0.121897,-0.0122 -0.242721,-0.0284 -0.362641,-0.0496 -0.01502,-0.003 -0.03021,-0.005 -0.04519,-0.007 -0.277876,-0.0518 -0.55043,-0.12757 -0.816212,-0.22598 -0.0098,-0.004 -0.01977,-0.007 -0.02959,-0.0107 -0.545538,-0.20581 -1.063233,-0.50694 -1.54526,-0.89272 a 0.55101128,0.54581437 0 0 0 -0.03336,-0.024 c -0.408423,-0.33173 -0.78953,-0.72313 -1.134734,-1.16986 -0.714433,-0.92453 -1.268364,-2.07831 -1.592069,-3.37369 -0.04982,-0.19962 -0.09366,-0.40311 -0.132359,-0.60919 -0.0034,-0.0175 -0.0064,-0.0352 -0.0097,-0.0528 -0.03528,-0.19309 -0.06539,-0.38868 -0.09039,-0.5868 -0.0015,-0.0122 -0.004,-0.024 -0.0053,-0.0362 -0.0245,-0.19967 -0.04239,-0.40236 -0.05596,-0.60651 -0.0025,-0.0367 -0.0039,-0.0735 -0.0059,-0.11033 -0.01154,-0.20462 -0.01933,-0.41035 -0.01937,-0.61877 v -0.002 c 0.0012,-0.43143 0.05622,-0.85774 0.109762,-1.28286 4.242309,0.70859 8.410188,0.67025 12.505199,-0.008 z m 1.197146,0.73389 c 0.146809,0.2692 0.367167,0.44688 0.367484,0.81278 -5.78e-4,0.55926 -0.16887,1.06341 -0.416985,1.41184 -0.01628,0.0229 -0.03515,0.0338 -0.05487,0.0426 0.07905,-0.55538 0.122148,-1.12601 0.122136,-1.70977 a 0.55101128,0.54581437 0 0 0 0,-5.4e-4 0.55101128,0.54581437 0 0 0 0,-0.002 c 0,0 0,-5.5e-4 0,-5.5e-4 0,0 0,-5.4e-4 0,-5.4e-4 -9.09e-4,-0.18513 -0.0077,-0.36991 -0.01776,-0.5543 z m -14.9081009,0.28514 c -0.00223,0.09 -0.00623,0.18009 -0.00646,0.27022 a 0.55101128,0.54581437 0 0 0 0,0.002 c -1.03e-5,0.49322 0.029846,0.97729 0.086625,1.45074 -0.189348,-0.32368 -0.3202864,-0.72191 -0.3206737,-1.19759 4.408e-4,-0.23592 0.161158,-0.33743 0.2405053,-0.5255 z m 10.9583249,8.66075 0.446576,1.05368 a 0.55101128,0.54581437 0 0 0 0.0011,0.003 l 0.02852,0.0666 -1.986992,0.97001 -1.986993,0.96945 -3.973987,-1.93895 0.476169,-1.12295 c 0.893181,0.60115 1.899299,0.98295 2.971074,1.07819 0.02696,0.003 0.05367,0.006 0.08072,0.008 0.12781,0.01 0.256775,0.0147 0.386315,0.016 0.02003,2.1e-4 0.03965,0.003 0.05972,0.003 0.01899,0 0.03755,-0.002 0.0565,-0.002 0.131158,-10e-4 0.261252,-0.007 0.39062,-0.0165 0.02612,-0.002 0.05198,-0.005 0.07802,-0.007 1.072777,-0.095 2.079191,-0.47736 2.972688,-1.07926 z m 1.550642,1.79397 c 0.03776,0.018 0.07335,0.0387 0.110837,0.057 l -2.361473,8.72947 h -2.246331 v -6.5699 l 4.375368,-2.13507 a 0.55101128,0.54581437 0 0 0 0.121599,-0.0815 z m -10.094766,0.002 a 0.55101128,0.54581437 0 0 0 0.119444,0.0794 l 4.375905,2.13559 v 6.56937 H 14.14604 l -2.36201,-8.73162 c 0.03478,-0.017 0.06775,-0.0361 0.102768,-0.0528 z m -1.095456,0.60065 2.215123,8.18373 h -1.683537 l -1.9391082,-7.16577 c 0.4349961,-0.37109 0.9066132,-0.71016 1.4075222,-1.01797 z m 12.294285,0.003 c 0.500895,0.30847 0.972155,0.64836 1.406984,1.0201 l -1.93857,7.16096 H 20.872118 Z M 8.4788313,364.61544 10.1812,370.91246 H 8.4271791 v -6.24374 c 0.016612,-0.0182 0.034897,-0.0352 0.051652,-0.0533 z m 16.9187677,0.006 c 0.01288,0.0139 0.02702,0.027 0.03982,0.041 v 6.24958 h -1.742184 z m 1.142266,1.49711 c 0.896817,1.43228 1.4129,3.06771 1.439804,4.79351 h -1.439804 z m -19.2151364,0.007 v 4.78606 H 5.8870774 c 0.027737,-1.7226 0.5429826,-3.35544 1.4376512,-4.78606 z"/></g><text x="0" y="48.866667" fill="#000000" font-size="5px" font-weight="bold" font-family="'Helvetica Neue', Helvetica, Arial-Unicode, Arial, Sans-serif">Created by Nine One</text><text x="0" y="53.866667" fill="#000000" font-size="5px" font-weight="bold" font-family="'Helvetica Neue', Helvetica, Arial-Unicode, Arial, Sans-serif">from the Noun Project</text></svg>