<?xml version="1.0" encoding="UTF-8"?>
<svg width="50px" height="50px" viewBox="0 0 50 50" version="1.1" xmlns="http://www.w3.org/2000/svg" xmlns:xlink="http://www.w3.org/1999/xlink">
    <!-- Generator: Sketch 58 (84663) - https://sketch.com -->
    <title>comprar-drone</title>
    <desc>Created with Sketch.</desc>
    <g id="comprar-drone" stroke="none" stroke-width="1" fill="none" fill-rule="evenodd">
        <g id="Group-10-Copy" transform="translate(4.000000, 4.000000)">
            <g id="Group-34">
                <polygon id="Fill-1" fill="#D9D8DB" points="29.6551724 26.6896552 31.137931 26.6896552 31.137931 20.7586207 29.6551724 20.7586207"></polygon>
                <polygon id="Fill-2" fill="#D9D8DB" points="11.862069 26.6896552 13.3448276 26.6896552 13.3448276 20.7586207 11.862069 20.7586207"></polygon>
                <g id="Group-33">
                    <path d="M41.5172414,5.93103448 L28.9137931,5.93103448 L26.6896552,4.44827586 L16.3103448,4.44827586 L14.0862069,5.93103448 L1.48275862,5.93103448 C1.0733319,5.93103448 0.74137931,6.26298707 0.74137931,6.67241379 L0.74137931,11.1206897 C0.74137931,11.5301164 1.0733319,11.862069 1.48275862,11.862069 L7.12465517,11.862069 C8.57497845,11.8603082 9.81382328,12.9077845 10.0531034,14.3382759 L10.3793103,16.3103448 L32.6206897,16.3103448 L32.9468966,14.3382759 C33.1862694,12.9077845 34.4250216,11.8603082 35.8753448,11.862069 L41.5172414,11.862069 C41.9266681,11.862069 42.2586207,11.5301164 42.2586207,11.1206897 L42.2586207,6.67241379 C42.2586207,6.26298707 41.9266681,5.93103448 41.5172414,5.93103448" id="Fill-3" fill="#FF8800"></path>
                    <path d="M28.9137931,11.862069 L28.9137931,16.3103448 L14.0862069,16.3103448 L14.0862069,11.862069 C14.0886164,11.0441422 14.7510388,10.3817198 15.5689655,10.3793103 L27.4310345,10.3793103 C28.2488685,10.3817198 28.9113836,11.0441422 28.9137931,11.862069" id="Fill-5" fill="#BDBFC1"></path>
                    <path d="M41.5172414,0 C42.3350754,0.00240948276 42.9975905,0.664831897 43,1.48275862 C42.9939763,2.29920259 42.3336853,2.95949353 41.5172414,2.96551724 L31.137931,2.96551724 C30.320097,2.96310776 29.6575819,2.30068534 29.6551724,1.48275862 C29.6611961,0.666314655 30.3214871,0.0060237069 31.137931,0 L41.5172414,0 Z" id="Fill-7" fill="#C0C0C0"></path>
                    <path d="M37.8103448,4.44827586 L37.8103448,5.93103448 L34.8448276,5.93103448 L34.8448276,4.44827586 C34.8448276,3.62942241 35.5086401,2.96551724 36.3275862,2.96551724 C37.1465323,2.96551724 37.8103448,3.62942241 37.8103448,4.44827586" id="Fill-9" fill="#F06F31"></path>
                    <path d="M31.8793103,30.3965517 L31.8793103,41.5172414 C31.878847,41.6577328 31.8588297,41.7973901 31.82,41.9324138 C31.6314116,42.5622155 31.0540625,42.9953664 30.3965517,43 L12.6034483,43 C11.7855216,42.9975905 11.1230991,42.3350754 11.1206897,41.5172414 L11.1206897,30.3965517 L31.8793103,30.3965517 Z" id="Fill-11" fill="#7CA7F2"></path>
                    <polygon id="Fill-13" fill="#4D649B" points="10.9037006 30.3965517 31.8793103 30.3965517 31.8793103 26.6896552 10.9037006 26.6896552"></polygon>
                    <polygon id="Fill-15" fill="#A8ABAE" points="31.8793103 16.3103448 31.8793103 20.7586207 30.3965517 20.7586207 28.9137931 20.7586207 28.9137931 16.3103448"></polygon>
                    <polygon id="Fill-16" fill="#7CA7F2" points="31.8793103 26.6896552 11.1206897 26.6896552 14.0862069 23.7241379 28.9137931 23.7241379"></polygon>
                    <path d="M21.5,10.3793103 C23.1377996,10.3793103 24.4655172,11.707028 24.4655172,13.3448276 C24.4655172,14.9826272 23.1377996,16.3103448 21.5,16.3103448 C19.8622004,16.3103448 18.5344828,14.9826272 18.5344828,13.3448276 C18.5344828,11.707028 19.8622004,10.3793103 21.5,10.3793103" id="Fill-17" fill="#FFD500"></path>
                    <polygon id="Fill-19" fill="#A8ABAE" points="14.0862069 16.3103448 14.0862069 20.7586207 12.6034483 20.7586207 11.1206897 20.7586207 11.1206897 16.3103448"></polygon>
                    <path d="M12.9073953,0.437432328 C13.1890267,0.71202069 13.3469405,1.08938276 13.3448304,1.48277716 C13.3423996,2.30061121 12.6799772,2.96303362 11.8620504,2.96553578 L1.48274009,2.96553578 C0.666388793,2.9594194 0.00609784483,2.29912845 -1.85344828e-05,1.48277716 C0.00248362069,0.664850431 0.664906034,0.00242801724 1.48274009,-2.76622695e-06 L11.8620504,-2.76622695e-06 C12.2554448,-0.00211293103 12.6328069,0.155800862 12.9073953,0.437432328" id="Fill-20" fill="#C0C0C0"></path>
                    <path d="M8.15517241,4.44827586 L8.15517241,5.93103448 L5.18965517,5.93103448 L5.18965517,4.44827586 C5.18965517,3.62942241 5.85356034,2.96551724 6.67241379,2.96551724 C7.49126724,2.96551724 8.15517241,3.62942241 8.15517241,4.44827586" id="Fill-21" fill="#F06F31"></path>
                    <polygon id="Fill-24" fill="#939699" points="28.9137931 17.7931034 31.8793103 17.7931034 31.8793103 16.3103448 28.9137931 16.3103448"></polygon>
                    <polygon id="Fill-25" fill="#939699" points="11.1206897 17.7931034 14.0862069 17.7931034 14.0862069 16.3103448 11.1206897 16.3103448"></polygon>
                    <polygon id="Fill-26" fill="#F9BA48" points="2.96551724 9.63793103 5.93103448 9.63793103 5.93103448 8.15517241 2.96551724 8.15517241"></polygon>
                    <polygon id="Fill-27" fill="#F9BA48" points="7.4137931 9.63793103 12.4509095 9.63793103 12.4509095 8.15517241 7.4137931 8.15517241"></polygon>
                    <polygon id="Fill-28" fill="#F9BA48" points="37.0689655 9.63793103 40.0344828 9.63793103 40.0344828 8.15517241 37.0689655 8.15517241"></polygon>
                    <polygon id="Fill-29" fill="#F9BA48" points="29.6551724 9.63793103 35.5862069 9.63793103 35.5862069 8.15517241 29.6551724 8.15517241"></polygon>
                    <polygon id="Fill-30" fill="#F9BA48" points="20.7586207 8.15517241 22.2413793 8.15517241 22.2413793 6.67241379 20.7586207 6.67241379"></polygon>
                    <polygon id="Fill-31" fill="#F9BA48" points="23.7241379 8.15517241 25.2068966 8.15517241 25.2068966 6.67241379 23.7241379 6.67241379"></polygon>
                    <polygon id="Fill-32" fill="#F9BA48" points="17.7931034 8.15517241 19.2758621 8.15517241 19.2758621 6.67241379 17.7931034 6.67241379"></polygon>
                </g>
            </g>
        </g>
    </g>
</svg>