<?xml version="1.0" encoding="UTF-8"?>
<svg width="50px" height="50px" viewBox="0 0 50 50" version="1.1" xmlns="http://www.w3.org/2000/svg" xmlns:xlink="http://www.w3.org/1999/xlink">
    <!-- Generator: Sketch 58 (84663) - https://sketch.com -->
    <title>comprar-tienda</title>
    <desc>Created with Sketch.</desc>
    <g id="comprar-tienda" stroke="none" stroke-width="1" fill="none" fill-rule="evenodd">
        <g id="Group-10" transform="translate(2.000000, 4.000000)">
            <g id="Group-34-Copy" transform="translate(0.777778, 0.861111)">
                <polygon id="Fill-1" fill="#FFA53D" points="3.47222222 7.63888889 3.47222222 15.3067228 3.47222222 21.1189569 3.47222222 41.6666667 7.00874486 41.6666667 41.6666667 41.6666667 41.6666667 15.3067228 41.6666667 7.63888889"></polygon>
                <polygon id="Fill-2" fill="#CC5A5B" points="4.16666667 37.5 24.3055556 37.5 24.3055556 20.8333333 4.16666667 20.8333333"></polygon>
                <polygon id="Fill-3" fill="#A9CEFF" points="6.25 35.4166667 23.6111111 35.4166667 23.6111111 22.2222222 6.25 22.2222222"></polygon>
                <g id="Group-33">
                    <path d="M12.8289472,7.90229872 L3.07049706,7.90229872 C2.93510232,7.90229872 2.83695905,7.77226998 2.87421051,7.64152286 L5.78412274,1.30244251 C6.14804087,0.508620681 6.93963442,0 7.81146189,0 L14.2616957,0 L12.8289472,7.90229872 Z" id="Fill-4" fill="#FEAD9A"></path>
                    <polygon id="Fill-6" fill="#FEAD9A" points="32.8874264 7.90229872 22.8581868 7.90229872 22.8581868 0 31.4546779 0"></polygon>
                    <path d="M17.843567,17.9597698 L17.843567,17.9597698 C15.0740641,17.9597698 12.8289472,15.7083331 12.8289472,12.9310343 L12.8289472,7.90229872 L22.8581868,7.90229872 L22.8581868,12.9310343 C22.8581868,15.7083331 20.6130699,17.9597698 17.843567,17.9597698" id="Fill-8" fill="#F8CD0E"></path>
                    <path d="M37.9020462,17.9597698 L37.9020462,17.9597698 C35.1325433,17.9597698 32.8874264,15.7083331 32.8874264,12.9310343 L32.8874264,7.90229872 L42.8400139,7.90229872 C42.88228,7.90229872 42.916666,7.93678147 42.916666,7.97916653 L42.916666,12.9310343 C42.916666,15.7083331 40.6715491,17.9597698 37.9020462,17.9597698" id="Fill-10" fill="#F8CD0E"></path>
                    <polygon id="Fill-12" fill="#FFEA8A" points="22.8581868 7.90229872 12.8289472 7.90229872 14.2616957 0 22.8581868 0"></polygon>
                    <path d="M42.6619949,7.90229872 L32.8870682,7.90229872 L31.4543197,0 L37.9045535,0 C38.776381,0 39.5686909,0.508620681 39.932609,1.3031609 L42.8475359,7.65732746 C42.8819218,7.78017228 42.7902259,7.90229872 42.6619949,7.90229872" id="Fill-14" fill="#FFEA8A"></path>
                    <path d="M7.81432739,17.9597698 L7.81432739,17.9597698 C5.04482451,17.9597698 2.79970759,15.7083331 2.79970759,12.9310343 L2.79970759,8.10488492 C2.79970759,7.99281596 2.88997075,7.90229872 3.00172513,7.90229872 L12.8289472,7.90229872 L12.8289472,12.9310343 C12.8289472,15.7083331 10.5838303,17.9597698 7.81432739,17.9597698" id="Fill-16" fill="#DE3618"></path>
                    <path d="M27.8728066,17.9597698 L27.8728066,17.9597698 C25.1033037,17.9597698 22.8581868,15.7083331 22.8581868,12.9310343 L22.8581868,7.90229872 L32.8874264,7.90229872 L32.8874264,12.9310343 C32.8874264,15.7083331 30.6423095,17.9597698 27.8728066,17.9597698" id="Fill-18" fill="#DE3618"></path>
                    <polygon id="Fill-20" fill="#BF0711" points="27.8728066 41.666666 39.3347947 41.666666 39.3347947 20.833333 27.8728066 20.833333"></polygon>
                    <polygon id="Fill-22" fill="#A9CEFF" points="29.3055551 40.2298844 37.9020462 40.2298844 37.9020462 22.2701146 29.3055551 22.2701146"></polygon>
                    <path d="M36.4692977,33.7643672 C36.0731427,33.7643672 35.7529234,33.4432466 35.7529234,33.0459764 L35.7529234,30.8908041 C35.7529234,30.493534 36.0731427,30.1724133 36.4692977,30.1724133 C36.8654526,30.1724133 37.1856719,30.493534 37.1856719,30.8908041 L37.1856719,33.0459764 C37.1856719,33.4432466 36.8654526,33.7643672 36.4692977,33.7643672" id="Fill-23" fill="#FFFFFF"></path>
                    <path d="M14.2616957,27.2988501 C14.4450875,27.2988501 14.6284793,27.2284478 14.7681723,27.0883616 L17.6336693,24.2147984 C17.9137717,23.9339076 17.9137717,23.4798847 17.6336693,23.1989939 C17.353567,22.9181031 16.9008185,22.9181031 16.6207161,23.1989939 L13.7552191,26.072557 C13.4751168,26.3534478 13.4751168,26.8074708 13.7552191,27.0883616 C13.8949121,27.2284478 14.0783039,27.2988501 14.2616957,27.2988501" id="Fill-24" fill="#FFFFFF"></path>
                    <path d="M14.2616957,30.8908041 C14.4450875,30.8908041 14.6284793,30.8204018 14.7681723,30.6803156 L16.2009208,29.243534 C16.4810231,28.9626432 16.4810231,28.5086202 16.2009208,28.2277294 C15.9208185,27.9468386 15.4680699,27.9468386 15.1879676,28.2277294 L13.7552191,29.664511 C13.4751168,29.9454018 13.4751168,30.3994248 13.7552191,30.6803156 C13.8949121,30.8204018 14.0783039,30.8908041 14.2616957,30.8908041" id="Fill-25" fill="#FFFFFF"></path>
                    <path d="M16.618567,26.7887926 C16.4889033,26.9238501 16.4108185,27.1120685 16.4108185,27.2988501 C16.4108185,27.4856317 16.4889033,27.6716949 16.618567,27.8017237 C16.7539617,27.9374995 16.9330553,28.0172409 17.1271927,28.0172409 C17.31345,28.0172409 17.4997073,27.9382179 17.6358184,27.8089076 C17.7647658,27.6716949 17.843567,27.4856317 17.843567,27.2988501 C17.843567,27.1120685 17.7647658,26.9238501 17.6358184,26.7887926 C17.37076,26.5229881 16.8836255,26.5229881 16.618567,26.7887926" id="Fill-26" fill="#FFFFFF"></path>
                    <path d="M18.053393,26.3699708 C18.193086,26.510057 18.3764778,26.5804593 18.5598696,26.5804593 C18.7432614,26.5804593 18.9266532,26.510057 19.0663462,26.3699708 L21.215469,24.2147984 C21.4955713,23.9339076 21.4955713,23.4798847 21.215469,23.1989939 C20.9353666,22.9181031 20.4826181,22.9181031 20.2025158,23.1989939 L18.053393,25.3541662 C17.7732907,25.635057 17.7732907,26.08908 18.053393,26.3699708" id="Fill-27" fill="#FFFFFF"></path>
                    <path d="M20.2025158,26.7909478 L13.7551475,33.256465 C13.4750451,33.5373558 13.4750451,33.9913787 13.7551475,34.2722695 C13.8948404,34.4123557 14.0782323,34.482758 14.2616241,34.482758 C14.4450159,34.482758 14.6284077,34.4123557 14.7681007,34.2722695 L21.215469,27.8067524 C21.4955713,27.5258616 21.4955713,27.0718386 21.215469,26.7909478 C20.9353666,26.510057 20.4826181,26.510057 20.2025158,26.7909478" id="Fill-28" fill="#FFFFFF"></path>
                    <path d="M22.6503666,25.3520111 C22.3853081,25.0862065 21.8981736,25.0862065 21.6331152,25.3520111 C21.5034514,25.4870685 21.4253666,25.6752869 21.4253666,25.8620685 C21.4253666,26.0488501 21.5034514,26.2349133 21.6331152,26.372126 C21.7685099,26.5014363 21.9554836,26.5804593 22.1417409,26.5804593 C22.3279982,26.5804593 22.5142555,26.5014363 22.6503666,26.372126 C22.779314,26.2349133 22.8581151,26.0488501 22.8581151,25.8620685 C22.8581151,25.6752869 22.779314,25.4870685 22.6503666,25.3520111" id="Fill-29" fill="#FFFFFF"></path>
                    <path d="M7.09795313,41.666666 L2.79970759,41.666666 L2.14350877,37.7191086 C2.1119883,37.5294534 2.25812865,37.3563212 2.45011695,37.3563212 L7.81432739,37.3563212 L7.09795313,41.666666 Z" id="Fill-30" fill="#9F0000"></path>
                    <polygon id="Fill-31" fill="#F9BA48" points="4.2324561 37.3563212 5.66520462 37.3563212 5.66520462 29.4540225 4.2324561 29.4540225"></polygon>
                    <path d="M8.53909914,26.3503587 C8.83362854,25.7986346 9.04386827,25.1829737 8.88497741,24.59533 C8.8161893,24.3395829 8.65923613,24.0946117 8.44318331,23.9020829 C8.07889695,23.5752151 7.92000609,23.1046691 8.04498732,22.6721979 C8.16318662,22.2634335 8.09246081,21.802945 7.83571643,21.4358473 C7.36776347,20.7677439 6.43670178,20.3934623 5.51145317,20.2950428 C4.83132278,20.2232037 4.08046658,20.3000715 3.57666629,20.685129 L2.97791902,21.0687496 C2.29778863,21.306537 1.7765491,21.8331174 1.62734671,22.431537 C1.54693243,22.7562496 1.57599783,23.0974852 1.70194791,23.411422 C1.88990417,23.8805312 1.73391985,24.3884335 1.37447772,24.7821116 C0.564521869,25.6707611 0.350406747,26.9423128 0.94721632,27.950215 C1.02278636,28.0773702 1.12063988,28.203807 1.23496379,28.3180311 C1.62637786,28.7081173 1.77364256,29.2253587 1.60990747,29.7153012 C1.57212245,29.8266518 1.54693243,29.9415943 1.53239973,30.0558185 C1.46845585,30.578807 1.61184516,31.1010771 1.75717217,31.6125713 C1.90831226,32.1441805 2.09433082,32.7181747 2.61750805,33.0515081 C3.32670384,33.5033759 4.35368135,33.3280885 5.16557489,33.0177437 C6.3126894,32.5788069 7.37454539,31.8561058 7.77952332,30.8647265 C8.01592192,30.2864219 7.95972881,29.6154449 7.64291593,29.0723415 C7.32319652,28.5234909 7.32319652,27.8719104 7.78630525,27.3984909 C8.09536735,27.0838357 8.34242326,26.72033 8.53909914,26.3503587" id="Fill-32" fill="#61B251"></path>
                </g>
            </g>
        </g>
    </g>
</svg>