<?xml version="1.0" encoding="UTF-8"?>
<svg width="50px" height="50px" viewBox="0 0 50 50" version="1.1" xmlns="http://www.w3.org/2000/svg" xmlns:xlink="http://www.w3.org/1999/xlink">
    <!-- Generator: Sketch 58 (84663) - https://sketch.com -->
    <title>comprar-bici</title>
    <desc>Created with Sketch.</desc>
    <defs>
        <polygon id="path-1" points="0.0654433594 0.07734375 11.1873867 0.07734375 11.1873867 4.62462012 0.0654433594 4.62462012"></polygon>
    </defs>
    <g id="comprar-bici" stroke="none" stroke-width="1" fill="none" fill-rule="evenodd">
        <g id="Group-10" transform="translate(3.000000, 5.000000)">
            <g id="Group-49">
                <path d="M25.3365293,16.9864453 L20.5358555,16.9864453 C20.5794492,17.0334668 20.6066953,17.0958691 20.6066953,17.1650391 L20.6066953,20.315127 L21.7659727,20.315127 L18.8878184,23.1931055 C19.1542148,23.7851367 19.1601035,24.3773437 19.1601035,24.3773437 L19.1601035,26.423877 L26.3989512,19.931748 C26.7665098,19.626416 27.0008262,19.1660449 27.0008262,18.6508301 C27.0008262,17.731582 26.2557773,16.9864453 25.3365293,16.9864453" id="Fill-1" fill="#FFD6B3"></path>
                <path d="M20.4656836,16.9013848 L18.3295898,16.9013848 L16.0566504,19.1743242 C16.0222852,19.2086895 16.0222852,19.2642363 16.0566504,19.2986016 L18.2925879,21.5345391 L20.4656836,21.5345391 C20.6113184,21.5345391 20.7293555,21.416502 20.7293555,21.2708672 L20.7293555,17.1650566 C20.7293555,17.0194219 20.6113184,16.9013848 20.4656836,16.9013848" id="Fill-3" fill="#00345F"></path>
                <path d="M7.76566406,37.3586133 C4.89208008,37.3586133 2.55418945,35.0207227 2.55418945,32.1471387 C2.55418945,29.2735547 4.89208008,26.9356641 7.76566406,26.9356641 C10.6393359,26.9356641 12.9772266,29.2735547 12.9772266,32.1471387 C12.9772266,35.0207227 10.6394238,37.3586133 7.76566406,37.3586133 M7.76566406,25.0405664 C3.84082031,25.0405664 0.659179688,28.2222949 0.659179688,32.1471387 C0.659179688,36.0719824 3.84082031,39.2537109 7.76566406,39.2537109 C11.6905957,39.2537109 14.8722363,36.0719824 14.8722363,32.1471387 C14.8722363,28.2222949 11.6906836,25.0405664 7.76566406,25.0405664" id="Fill-5" fill="#9CA9B1"></path>
                <path d="M7.76566406,27.5948613 C5.2555957,27.5948613 3.21336914,29.6369121 3.21336914,32.1471563 C3.21336914,34.6572246 5.25550781,36.6994512 7.76566406,36.6994512 C10.2759082,36.6994512 12.3180469,34.6572246 12.3180469,32.1471563 C12.3180469,29.6369121 10.2759082,27.5948613 7.76566406,27.5948613 M7.76566406,38.0178105 C4.52856445,38.0178105 1.89500977,35.3842559 1.89500977,32.1471563 C1.89500977,28.9100566 4.52856445,26.276502 7.76566406,26.276502 C11.0027637,26.276502 13.6364063,28.9100566 13.6364063,32.1471563 C13.6364063,35.3842559 11.0028516,38.0178105 7.76566406,38.0178105" id="Fill-7" fill="#C4CDD4"></path>
                <path d="M36.1919707,37.3586133 C33.3183867,37.3586133 30.9804961,35.0207227 30.9804961,32.1471387 C30.9804961,29.2735547 33.3183867,26.9356641 36.1919707,26.9356641 C39.0654668,26.9356641 41.4034453,29.2735547 41.4034453,32.1471387 C41.4034453,35.0207227 39.0654668,37.3586133 36.1919707,37.3586133 M36.1919707,25.0405664 C32.267127,25.0405664 29.0853984,28.2222949 29.0853984,32.1471387 C29.0853984,36.0719824 32.2670391,39.2537109 36.1919707,39.2537109 C40.1168145,39.2537109 43.2983672,36.0719824 43.2983672,32.1471387 C43.2983672,28.2222949 40.1168145,25.0405664 36.1919707,25.0405664" id="Fill-9" fill="#9CA9B1"></path>
                <path d="M36.1919707,27.5948613 C33.6817266,27.5948613 31.6396758,29.6369121 31.6396758,32.1471563 C31.6396758,34.6572246 33.6817266,36.6994512 36.1919707,36.6994512 C38.702127,36.6994512 40.7442656,34.6572246 40.7442656,32.1471563 C40.7442656,29.6369121 38.702127,27.5948613 36.1919707,27.5948613 M36.1919707,38.0178105 C32.9548711,38.0178105 30.3213164,35.3842559 30.3213164,32.1471563 C30.3213164,28.9100566 32.9548711,26.276502 36.1919707,26.276502 C39.4290703,26.276502 42.062625,28.9100566 42.062625,32.1471563 C42.062625,35.3842559 39.4290703,38.0178105 36.1919707,38.0178105" id="Fill-11" fill="#C4CDD4"></path>
                <path d="M16.3814766,32.7761191 C16.3814766,32.6320664 16.4731465,32.5004062 16.6095527,32.4484629 C16.6462031,32.4344883 16.6691426,32.3981016 16.6658906,32.3590781 L16.5935566,31.4879062 L9.31375195,31.4879062 L15.505998,25.0456113 C15.4953633,25.0387559 15.4853438,25.0311094 15.4761152,25.021793 L14.5705781,24.1163437 L7.47332227,31.5000352 C7.2405,31.7421738 7.17045117,32.0676328 7.29033398,32.3494102 C7.41030469,32.6311875 7.69357617,32.8061777 8.02940625,32.8061777 L16.3814766,32.8061777 L16.3814766,32.7761191 Z" id="Fill-13" fill="#FF8800"></path>
                <path d="M38.5093125,20.8240225 C38.5093125,19.4416787 37.384752,18.3172061 36.0024961,18.3172061 L33.6523887,18.3172061 C33.7559238,18.5052041 33.8149863,18.7208877 33.8149863,18.9501943 C33.8149863,19.2013857 33.7430918,19.4355264 33.6206602,19.6355654 L36.002584,19.6355654 C36.6578965,19.6355654 37.191041,20.16871 37.191041,20.8240225 C37.191041,21.4794229 36.6578965,22.0124795 36.002584,22.0124795 L18.6777598,22.0124795 C18.673541,22.0525576 18.6569297,22.0898232 18.6280137,22.1186514 L18.3676816,22.3790713 C18.3503672,22.3964736 18.3410508,22.4203799 18.3420247,22.4449014 C18.3431602,22.4695107 18.354498,22.4925381 18.3732188,22.5083584 C18.6458555,22.7384561 18.8240977,23.0386025 18.9412559,23.3308389 L29.5979941,23.3308389 L22.8534434,30.3479385 C23.2557188,30.5456924 23.6003379,30.8431143 23.8555723,31.2076846 L31.4266465,23.3308389 L31.8419297,23.3308389 L35.5825547,32.3985146 C35.687584,32.6528701 35.9331504,32.8065029 36.1923398,32.8065029 C36.2760996,32.8065029 36.3612656,32.7904189 36.4433555,32.7564932 C36.6978867,32.6515518 36.8515195,32.4056338 36.8514316,32.1466201 C36.8514316,32.0629482 36.8352598,31.9778701 36.8014219,31.8956924 L33.268043,23.330751 L36.002584,23.330751 C37.384752,23.3308389 38.5093125,22.2062783 38.5093125,20.8240225" id="Fill-15" fill="#FF8800"></path>
                <path d="M21.6945615,29.9909971 C20.54671,29.9909971 19.5654111,30.7011533 19.1641025,31.7057432 L19.1641025,32.3366221 C19.1641025,32.3851377 19.2033896,32.4245127 19.2519932,32.4245127 L21.0656162,32.4245127 C21.2595029,32.4245127 21.4171787,32.5821885 21.4171787,32.7760752 L21.4171787,33.8870127 C21.4171787,34.0808994 21.2595029,34.2385752 21.0656162,34.2385752 L19.4349814,34.2385752 C19.9246201,34.9634971 20.7539561,35.4402158 21.6945615,35.4402158 C23.1993369,35.4402158 24.4191709,34.2203818 24.4191709,32.7156064 C24.4191709,31.2109189 23.1993369,29.9909971 21.6945615,29.9909971" id="Fill-17" fill="#9CA9B1"></path>
                <path d="M19.2519053,24.3772383 C19.2519053,24.3772383 19.2385459,23.0538691 18.3608701,22.3857246 L15.9493271,24.7971797 L16.5856553,32.4564082 C16.6319736,32.439709 16.6811045,32.4290742 16.73296,32.4290742 L19.2519053,32.4290742 L19.2519053,24.3772383 Z" id="Fill-19" fill="#FFBA89"></path>
                <path d="M20.1119326,6.43412109 C20.1119326,8.45956055 21.7540811,10.101709 23.7795205,10.101709 C25.8051357,10.101709 27.4471084,8.45956055 27.4471084,6.43412109 L27.4471084,4.49841797 L20.1119326,4.49841797 L20.1119326,6.43412109 Z" id="Fill-21" fill="#FFD6B3"></path>
                <path d="M20.1215918,4.49842676 C20.1152637,4.5871084 20.1119238,4.67666895 20.1119238,4.76702051 L20.1119238,6.43412988 C20.1119238,7.88907129 20.9592773,9.1461709 22.187373,9.73890527 L22.187373,4.49842676 L20.1215918,4.49842676 Z" id="Fill-23" fill="#835331"></path>
                <g id="Group-27" transform="translate(16.259766, 0.010547)">
                    <mask id="mask-2" fill="white">
                        <use xlink:href="#path-1"></use>
                    </mask>
                    <g id="Clip-26"></g>
                    <path d="M7.51988672,0.0773349609 C5.49435938,0.0773349609 3.85229883,1.08623145 3.85229883,3.11175879 L3.85229883,3.21731543 L0.769007812,3.21731543 C0.380443359,3.21731543 0.0654433594,3.53240332 0.0654433594,3.92096777 C0.0654433594,4.30962012 0.380443359,4.62462012 0.769007812,4.62462012 L11.1873867,4.62462012 L11.1873867,3.21740332 L11.1873867,3.21300879 C11.1873867,1.18748145 9.54541406,0.0773349609 7.51988672,0.0773349609" id="Fill-25" fill="#6C8EDB" mask="url(#mask-2)"></path>
                </g>
                <path d="M21.5050957,33.8870215 C21.5050957,34.1287207 21.3073418,34.3264746 21.0656426,34.3264746 L16.7330742,34.3264746 C16.491375,34.3264746 16.2936211,34.1287207 16.2936211,33.8870215 L16.2936211,32.776084 C16.2936211,32.5343848 16.491375,32.3366309 16.7330742,32.3366309 L21.0656426,32.3366309 C21.3073418,32.3366309 21.5050957,32.5343848 21.5050957,32.776084 L21.5050957,33.8870215 Z" id="Fill-31" fill="#FF9400"></path>
                <path d="M18.1054688,33.8870215 L18.1054688,32.776084 C18.1054688,32.5343848 18.3032227,32.3366309 18.5449219,32.3366309 L16.7330566,32.3366309 C16.4913574,32.3366309 16.2936035,32.5343848 16.2936035,32.776084 L16.2936035,33.8870215 C16.2936035,34.1287207 16.4913574,34.3264746 16.7330566,34.3264746 L18.5449219,34.3264746 C18.3032227,34.3264746 18.1054688,34.1287207 18.1054688,33.8870215" id="Fill-33" fill="#000000"></path>
                <path d="M16.0514561,19.3037871 L21.4980381,13.8572051 C21.4199033,13.9086211 21.3289365,13.9354277 21.2370908,13.9354277 C21.1630869,13.9354277 21.0884678,13.9180254 21.0194736,13.8823418 C19.4732139,13.0816582 18.5127451,11.5017363 18.5127451,9.75904102 C18.5127451,9.40835742 18.5523838,9.05767383 18.6306943,8.71657031 C18.6473936,8.64344531 18.6814072,8.57585742 18.7291318,8.5189043 C18.6715635,8.56434375 18.6154014,8.61250781 18.5623154,8.66559375 L11.9876572,15.240252 L16.0514561,19.3037871 Z" id="Fill-35" fill="#FF8800"></path>
                <path d="M12.8724609,16.1248359 L18.4293457,10.5679512 C18.3959473,10.3424238 18.3782813,10.1125898 18.3782813,9.87976758 C18.3782813,9.52908398 18.4179199,9.17840039 18.4962305,8.83729687 C18.5155664,8.75283398 18.5587207,8.67645703 18.61875,8.61458203 C18.6001172,8.63180859 18.5805176,8.64736523 18.5624121,8.6654707 L11.9877539,15.2401289 L12.8724609,16.1248359 Z" id="Fill-37" fill="#F06F31"></path>
                <path d="M33.5477812,16.3232314 L30.8490117,16.3232314 L26.5765605,13.9995791 L21.2425664,8.66549707 C20.8859941,8.3090127 20.4100664,8.11266504 19.902498,8.11266504 C19.4358867,8.11266504 18.9887871,8.28194238 18.6431133,8.5892959 C18.5695488,8.65477441 18.5182207,8.74143457 18.496248,8.83732324 C18.4179375,9.17842676 18.3782988,9.52911035 18.3782988,9.87979395 C18.3782988,11.6224893 19.3387676,13.2024111 20.8849395,14.0030947 C20.9538457,14.0387783 21.0285527,14.0561807 21.1025566,14.0561807 C21.2254277,14.0561807 21.3468047,14.0083682 21.4377715,13.9174014 L21.9187969,13.4362881 L25.3445098,16.1915713 C25.374832,16.215917 25.4079668,16.2364834 25.4432988,16.2527432 L31.0055449,18.8131729 C31.0608281,18.8385732 31.1188359,18.8518447 31.1765801,18.8550967 C31.1786016,18.8568545 31.1807109,18.8583486 31.1827324,18.8600186 C31.2292266,18.174999 31.7999004,17.6315713 32.4965215,17.6315713 C33.2234648,17.6315713 33.8148809,18.2229873 33.8148809,18.9498428 C33.8148809,18.9766494 33.8125078,19.0029287 33.8108379,19.0292959 C34.1563359,18.9182021 34.4063848,18.594501 34.4063848,18.212001 L34.4063848,17.1815713 C34.4063848,16.7075771 34.0220391,16.3232314 33.5477812,16.3232314" id="Fill-39" fill="#FFBA89"></path>
                <path d="M32.4966973,17.5438301 C33.2732988,17.5438301 33.9029473,18.1734785 33.9029473,18.9500801 C33.9029473,19.7267695 33.2732988,20.3563301 32.4966973,20.3563301 C31.7200078,20.3563301 31.0904473,19.7267695 31.0904473,18.9500801 C31.0904473,18.1734785 31.7200078,17.5438301 32.4966973,17.5438301" id="Fill-41" fill="#00669C"></path>
                <path d="M25.6844883,7.16398242 C25.295748,7.16398242 24.980748,6.84889453 24.980748,6.46033008 L24.980748,5.80607227 C24.980748,5.41741992 25.295748,5.10241992 25.6844883,5.10241992 C26.0731406,5.10241992 26.3881406,5.41741992 26.3881406,5.80607227 L26.3881406,6.46033008 C26.3881406,6.84898242 26.0731406,7.16398242 25.6844883,7.16398242" id="Fill-43" fill="#835331"></path>
                <path d="M44.3408203,39.9128555 L0.659179687,39.9128555 C0.295048828,39.9128555 0,39.6178066 0,39.2536758 C0,38.8896328 0.295048828,38.5944961 0.659179687,38.5944961 L44.3408203,38.5944961 C44.7049512,38.5944961 45,38.8896328 45,39.2536758 C45,39.6178066 44.7049512,39.9128555 44.3408203,39.9128555" id="Fill-45" fill="#C4CDD4"></path>
                <path d="M18.6901084,21.8079844 L12.0635947,15.1814707 C12.0606943,15.1786582 12.0580576,15.175582 12.0550693,15.1725938 L10.118751,17.1090879 C9.3817002,17.8461387 9.3817002,19.0520859 10.118751,19.7891367 L15.4138096,25.0841074 C15.4653135,25.1356113 15.5328135,25.1613633 15.6002256,25.1613633 C15.6677256,25.1613633 15.7351377,25.1356113 15.7866416,25.0841953 L18.6900205,22.1809043 C18.7395029,22.1315098 18.7672766,22.0644492 18.7672766,21.9944883 C18.7672766,21.9244395 18.7395908,21.8573789 18.6901084,21.8079844" id="Fill-47" fill="#4D649B"></path>
            </g>
        </g>
    </g>
</svg>