<?xml version="1.0" encoding="UTF-8"?>
<svg width="50px" height="50px" viewBox="0 0 50 50" version="1.1" xmlns="http://www.w3.org/2000/svg" xmlns:xlink="http://www.w3.org/1999/xlink">
    <!-- Generator: Sketch 58 (84663) - https://sketch.com -->
    <title>reparar-robot</title>
    <desc>Created with Sketch.</desc>
    <g id="reparar-robot" stroke="none" stroke-width="1" fill="none" fill-rule="evenodd">
        <g id="Group-49" transform="translate(4.000000, 2.000000)">
            <polygon id="Fill-1" fill="#FF9900" points="20.0000003 6.4000001 21.6000003 6.4000001 21.6000003 2.40000004 20.0000003 2.40000004"></polygon>
            <g id="Group-48">
                <path d="M36.8000005,22.4000003 L36.8000005,32.0000005 C36.8000005,32.8837005 37.5163006,33.6000005 38.4000006,33.6000005 C39.2837006,33.6000005 40.0000006,32.8837005 40.0000006,32.0000005 L40.0000006,22.4000003 L36.8000005,22.4000003 Z" id="Fill-2" fill="#FF8800"></path>
                <polygon id="Fill-4" fill="#FF8800" points="36.6160205 19.2000003 36.0000205 19.2000003 29.3360204 19.2000003 32.0000205 22.4000003 36.0000205 22.4000003 36.6160205 22.4000003 36.8000205 22.4000003 36.8000205 19.2000003"></polygon>
                <polygon id="Fill-6" fill="#FF8800" points="12.2640102 19.2000003 9.60001014 22.4000003 4.80001007 22.4000003 4.80001007 19.2000003"></polygon>
                <path d="M4.80000007,22.4000003 L4.80000007,32.0000005 C4.80000007,32.8837005 4.08360006,33.6000005 3.20000005,33.6000005 C2.31640003,33.6000005 1.60000002,32.8837005 1.60000002,32.0000005 L1.60000002,22.4000003 L4.80000007,22.4000003 Z" id="Fill-8" fill="#FF8800"></path>
                <polygon id="Fill-10" fill="#FF8800" points="29.3360404 19.2000003 28.0000404 17.6000003 24.0000404 17.6000003 17.6000403 17.6000003 13.6000402 17.6000003 12.2640402 19.2000003 9.60004014 22.4000003 9.60004014 33.6000005 13.6000402 33.6000005 28.0000404 33.6000005 32.0000405 33.6000005 32.0000405 22.4000003"></polygon>
                <path d="M38.4000006,18.4000003 C39.7255006,18.4000003 40.8000006,19.4745003 40.8000006,20.8000003 C40.7974006,22.1255003 39.7206006,23.1978003 38.3951006,23.1952051 C37.8064006,23.1939003 37.2388006,22.9765003 36.8000005,22.5840003 C36.7348005,22.5267003 36.6732005,22.4653003 36.6160005,22.4000003 C35.7323005,21.4121003 35.8169005,19.8948003 36.8049005,19.0111003 C37.2437006,18.6187003 37.8113006,18.4012003 38.4000006,18.4000003" id="Fill-12" fill="#F06F31"></path>
                <path d="M13.6000002,6.4000001 L28.0000002,6.4000001 C28.8837004,6.4000001 29.6000004,7.11640011 29.6000004,8.00000012 L29.6000004,16.0000002 C29.6000004,16.8836003 28.8837004,17.6000003 28.0000002,17.6000003 L13.6000002,17.6000003 C12.7164002,17.6000003 12.0000002,16.8836003 12.0000002,16.0000002 L12.0000002,8.00000012 C12.0000002,7.11640011 12.7164002,6.4000001 13.6000002,6.4000001" id="Fill-14" fill="#F0F0F0"></path>
                <path d="M34.4000005,41.6000006 C34.3960005,44.2493007 32.2493005,46.3960007 29.6000004,46.4000007 L12.0000002,46.4000007 C9.34900014,46.4000007 7.20000011,44.2510007 7.20000011,41.6000006 C7.20400011,38.9507006 9.35070014,36.8040005 12.0000002,36.8000005 L29.6000004,36.8000005 C32.2510005,36.8000005 34.4000005,38.9490006 34.4000005,41.6000006" id="Fill-16" fill="#F0F0F0"></path>
                <polygon id="Fill-18" fill="#FF8800" points="32.0000005 33.6000005 29.6000004 36.8000005 12.0000002 36.8000005 9.60000014 33.6000005 13.6000002 33.6000005 28.0000004 33.6000005"></polygon>
                <path d="M28.8000004,39.2000006 C30.1255004,39.2000006 31.2000005,40.2745006 31.2000005,41.6000006 C31.2000005,42.9255006 30.1255004,44.0000007 28.8000004,44.0000007 C27.4745004,44.0000007 26.4000004,42.9255006 26.4000004,41.6000006 C26.4000004,40.2745006 27.4745004,39.2000006 28.8000004,39.2000006" id="Fill-20" fill="#C0C0C0"></path>
                <path d="M12.8000002,39.2000006 C14.1255002,39.2000006 15.2000002,40.2745006 15.2000002,41.6000006 C15.2000002,42.9255006 14.1255002,44.0000007 12.8000002,44.0000007 C11.4745002,44.0000007 10.4000002,42.9255006 10.4000002,41.6000006 C10.4000002,40.2745006 11.4745002,39.2000006 12.8000002,39.2000006" id="Fill-22" fill="#C0C0C0"></path>
                <path d="M20.8000003,39.2000006 C22.1255003,39.2000006 23.2000003,40.2745006 23.2000003,41.6000006 C23.2000003,42.9255006 22.1255003,44.0000007 20.8000003,44.0000007 C19.4745003,44.0000007 18.4000003,42.9255006 18.4000003,41.6000006 C18.4000003,40.2745006 19.4745003,39.2000006 20.8000003,39.2000006" id="Fill-24" fill="#C0C0C0"></path>
                <path d="M28.0000004,25.6000004 L28.0000004,33.6000005 L13.6000002,33.6000005 L13.6000002,25.6000004 C13.6000002,23.8327004 15.0327002,22.4000003 16.8000003,22.4000003 L24.8000004,22.4000003 C26.5673004,22.4000003 28.0000004,23.8327004 28.0000004,25.6000004" id="Fill-26" fill="#F8CD0E"></path>
                <path d="M24.0000004,16.0000002 L24.0000004,17.6000003 L17.6000003,17.6000003 L17.6000003,16.0000002 C17.6026003,15.1174002 18.3174003,14.4026002 19.2000003,14.4000002 L22.4000003,14.4000002 C23.2825003,14.4026002 23.9974004,15.1174002 24.0000004,16.0000002" id="Fill-28" fill="#F8CD0E"></path>
                <path d="M24.8000004,9.60000014 C25.6837004,9.60000014 26.4000004,10.3164002 26.4000004,11.2000002 C26.4000004,12.0836002 25.6837004,12.8000002 24.8000004,12.8000002 C23.9163004,12.8000002 23.2000003,12.0836002 23.2000003,11.2000002 C23.2000003,10.3164002 23.9163004,9.60000014 24.8000004,9.60000014" id="Fill-30" fill="#FF623F"></path>
                <path d="M16.8000003,9.60000014 C17.6836003,9.60000014 18.4000003,10.3164002 18.4000003,11.2000002 C18.4000003,12.0836002 17.6836003,12.8000002 16.8000003,12.8000002 C15.9164002,12.8000002 15.2000002,12.0836002 15.2000002,11.2000002 C15.2000002,10.3164002 15.9164002,9.60000014 16.8000003,9.60000014" id="Fill-32" fill="#FF623F"></path>
                <path d="M20.8000003,0 C21.6837003,0 22.4000003,0.716400011 22.4000003,1.60000002 C22.4000003,2.48360004 21.6837003,3.20000005 20.8000003,3.20000005 C19.9164003,3.20000005 19.2000003,2.48360004 19.2000003,1.60000002 C19.2000003,0.716400011 19.9164003,0 20.8000003,0" id="Fill-34" fill="#FF4F19"></path>
                <path d="M4.98398007,19.2000003 C5.80548009,20.1085003 5.80548009,21.4915003 4.98398007,22.4000003 C4.92668007,22.4653003 4.86528007,22.5267003 4.79998001,22.5840003 C3.81208006,23.4677003 2.29478003,23.3831003 1.41108002,22.3952003 C1.01868002,21.9564003 0.801180012,21.3887003 0.799980012,20.8000003 C0.799980012,19.4745003 1.87448003,18.4000003 3.19998005,18.4000003 C3.88258006,18.3952003 4.53358007,18.6871003 4.98398007,19.2000003" id="Fill-36" fill="#F06F31"></path>
                <path d="M41.6000006,36.0000005 L40.0000006,36.0000005 C40.0000006,35.1163005 39.2837006,34.4000005 38.4000006,34.4000005 C37.5163006,34.4000005 36.8000005,35.1163005 36.8000005,36.0000005 L35.2000005,36.0000005 C35.2000005,34.2327005 36.6327005,32.8000005 38.4000006,32.8000005 C40.1673006,32.8000005 41.6000006,34.2327005 41.6000006,36.0000005" id="Fill-38" fill="#F06F31"></path>
                <path d="M6.4000001,36.0000005 L4.80000007,36.0000005 C4.80000007,35.1163005 4.08360006,34.4000005 3.20000005,34.4000005 C2.31640003,34.4000005 1.60000002,35.1163005 1.60000002,36.0000005 L0,36.0000005 C0,34.2327005 1.43270002,32.8000005 3.20000005,32.8000005 C4.96730007,32.8000005 6.4000001,34.2327005 6.4000001,36.0000005" id="Fill-40" fill="#F06F31"></path>
                <path d="M20.8000003,40.0000006 C19.9164003,40.0000006 19.2000003,40.7163006 19.2000003,41.6000006 C19.2000003,42.4837006 19.9164003,43.2000006 20.8000003,43.2000006 C21.6837003,43.2000006 22.4000003,42.4837006 22.4000003,41.6000006 C22.4000003,40.7163006 21.6837003,40.0000006 20.8000003,40.0000006 M20.8000003,44.8000007 C19.0327003,44.8000007 17.6000003,43.3673006 17.6000003,41.6000006 C17.6000003,39.8327006 19.0327003,38.4000006 20.8000003,38.4000006 C22.5673003,38.4000006 24.0000004,39.8327006 24.0000004,41.6000006 C24.0000004,43.3673006 22.5673003,44.8000007 20.8000003,44.8000007" id="Fill-42" fill="#7CA7F2"></path>
                <path d="M28.8000004,40.0000006 C27.9163004,40.0000006 27.2000004,40.7163006 27.2000004,41.6000006 C27.2000004,42.4837006 27.9163004,43.2000006 28.8000004,43.2000006 C29.6837004,43.2000006 30.4000005,42.4837006 30.4000005,41.6000006 C30.4000005,40.7163006 29.6837004,40.0000006 28.8000004,40.0000006 M28.8000004,44.8000007 C27.0327004,44.8000007 25.6000004,43.3673006 25.6000004,41.6000006 C25.6000004,39.8327006 27.0327004,38.4000006 28.8000004,38.4000006 C30.5673005,38.4000006 32.0000005,39.8327006 32.0000005,41.6000006 C32.0000005,43.3673006 30.5673005,44.8000007 28.8000004,44.8000007" id="Fill-44" fill="#7CA7F2"></path>
                <path d="M12.8000002,40.0000006 C11.9164002,40.0000006 11.2000002,40.7163006 11.2000002,41.6000006 C11.2000002,42.4837006 11.9164002,43.2000006 12.8000002,43.2000006 C13.6836002,43.2000006 14.4000002,42.4837006 14.4000002,41.6000006 C14.4000002,40.7163006 13.6836002,40.0000006 12.8000002,40.0000006 M12.8000002,44.8000007 C11.0327002,44.8000007 9.60000014,43.3673006 9.60000014,41.6000006 C9.60000014,39.8327006 11.0327002,38.4000006 12.8000002,38.4000006 C14.5673002,38.4000006 16.0000002,39.8327006 16.0000002,41.6000006 C16.0000002,43.3673006 14.5673002,44.8000007 12.8000002,44.8000007" id="Fill-46" fill="#7CA7F2"></path>
            </g>
        </g>
    </g>
</svg>