<?xml version="1.0" encoding="UTF-8"?>
<svg width="50px" height="50px" viewBox="0 0 50 50" version="1.1" xmlns="http://www.w3.org/2000/svg" xmlns:xlink="http://www.w3.org/1999/xlink">
    <!-- Generator: Sketch 58 (84663) - https://sketch.com -->
    <title>reparar-reparador</title>
    <desc>Created with Sketch.</desc>
    <g id="reparar-reparador" stroke="none" stroke-width="1" fill="none" fill-rule="evenodd">
        <g id="Group-41" transform="translate(18.000000, 1.000000)">
            <polygon id="Fill-1" fill="#7CA7F2" points="3.11111111 28 10.8888889 28 10.8888889 15.5555556 3.11111111 15.5555556"></polygon>
            <g id="Group-40">
                <path d="M14,28 L10.8888889,28 L10.8888889,15.5555556 L12.4444444,15.5555556 C13.3035972,15.5555556 14,16.2520556 14,17.1111111 L14,28 Z" id="Fill-2" fill="#6C8EDB"></path>
                <path d="M0,28 L3.11111111,28 L3.11111111,15.5555556 L1.55555556,15.5555556 C0.696402778,15.5555556 0,16.2520556 0,17.1111111 L0,28 Z" id="Fill-4" fill="#6C8EDB"></path>
                <polygon id="Fill-6" fill="#FF8800" points="5.44444444 15.5555556 5.44444444 21.7777778 7 21.7777778 8.55555556 21.7777778 8.55555556 15.5555556"></polygon>
                <path d="M0,8.55555556 L14,8.55555556 L13.2222222,7.77777778 L13.2222222,4.66666667 L12.4444444,4.66666667 C12.4444444,2.51893056 10.7033889,0.777777778 8.55555556,0.777777778 L7.77777778,0 L6.22222222,0 L5.44444444,0.777777778 C3.29661111,0.777777778 1.55555556,2.51893056 1.55555556,4.66666667 L0.777777778,4.66666667 L0.777777778,7.77777778 L0,8.55555556 Z" id="Fill-8" fill="#FFEC00"></path>
                <path d="M14,8.55555556 L10.8888889,8.55555556 L10.1111111,7.77777778 L10.1111111,4.66666667 L9.33333333,4.66666667 C9.33333333,3.59333333 8.89777778,2.62111111 8.19388889,1.91722222 C7.49,1.21333333 6.51777778,0.777777778 5.44444444,0.777777778 L6.22222222,0 L7.77777778,0 L8.55555556,0.777777778 C9.62888889,0.777777778 10.6011111,1.21333333 11.305,1.91722222 C12.0088889,2.62111111 12.4444444,3.59333333 12.4444444,4.66666667 L13.2222222,4.66666667 L13.2222222,7.77777778 L14,8.55555556 Z" id="Fill-10" fill="#FFC300"></path>
                <path d="M5.44444444,3.88888889 C5.01491667,3.88888889 4.66666667,3.54063889 4.66666667,3.11111111 L4.66666667,0.777777778 C4.66666667,0.34825 5.01491667,0 5.44444444,0 C5.87397222,0 6.22222222,0.34825 6.22222222,0.777777778 L6.22222222,3.11111111 C6.22222222,3.54063889 5.87397222,3.88888889 5.44444444,3.88888889" id="Fill-12" fill="#FFC300"></path>
                <path d="M8.55555556,3.88888889 C8.12602778,3.88888889 7.77777778,3.54063889 7.77777778,3.11111111 L7.77777778,0.777777778 C7.77777778,0.34825 8.12602778,0 8.55555556,0 C8.98508333,0 9.33333333,0.34825 9.33333333,0.777777778 L9.33333333,3.11111111 C9.33333333,3.54063889 8.98508333,3.88888889 8.55555556,3.88888889" id="Fill-14" fill="#FF8900"></path>
                <polygon id="Fill-16" fill="#FFC300" points="13.2222222 7.77777778 7 5.44444444 0.777777778 7.77777778 0 8.55555556 14 8.55555556"></polygon>
                <polygon id="Fill-18" fill="#FFF595" points="0.777777778 7.77777778 7 5.44444444 13.2222222 7.77777778"></polygon>
                <polygon id="Fill-20" fill="#FFC9B2" points="2.33333333 15.5555556 11.6666667 15.5555556 11.6666667 8.55555556 2.33333333 8.55555556"></polygon>
                <path d="M2.33333333,11.6666667 L2.33333333,11.6666667 C1.04465278,11.6666667 0,10.6220139 0,9.33333333 L0,8.55555556 L2.33333333,8.55555556 L2.33333333,11.6666667 Z" id="Fill-22" fill="#FEAC94"></path>
                <path d="M11.6666667,11.6666667 L11.6666667,11.6666667 C12.9553472,11.6666667 14,10.6220139 14,9.33333333 L14,8.55555556 L11.6666667,8.55555556 L11.6666667,11.6666667 Z" id="Fill-23" fill="#FEAC94"></path>
                <path d="M10.1111111,8.55555556 L10.1111111,12.4444444 C10.1111111,13.3035 9.41470833,14 8.55555556,14 L2.33333333,14 L2.33333333,15.5555556 L11.6666667,15.5555556 L11.6666667,8.55555556 L10.1111111,8.55555556 Z" id="Fill-26" fill="#FEAC94"></path>
                <path d="M10.8888889,21.7777778 L10.8888889,24.8888889 L14,24.8888889 C14,23.1706806 12.6070972,21.7777778 10.8888889,21.7777778" id="Fill-27" fill="#FFC9B2"></path>
                <polygon id="Fill-28" fill="#FF8800" points="14 28 14 48.2222222 8.55555556 48.2222222 8.55555556 32.6666667 5.44444444 32.6666667 5.44444444 48.2222222 0 48.2222222 0 28"></polygon>
                <polygon id="Fill-29" fill="#A9CEFF" points="0 24.8888889 10.8888889 24.8888889 10.8888889 21.7777778 0 21.7777778"></polygon>
                <polygon id="Fill-30" fill="#FFC9B2" points="0 28 3.11111111 28 3.11111111 24.8888889 0 24.8888889"></polygon>
                <polygon id="Fill-31" fill="#6C8EDB" points="3.11111111 28 14 28 14 24.8888889 3.11111111 24.8888889"></polygon>
                <polygon id="Fill-32" fill="#A9CEFF" points="3.11111111 15.5555556 3.11111111 19.4444444 7 15.5555556"></polygon>
                <polygon id="Fill-33" fill="#A9CEFF" points="10.8888889 15.5555556 10.8888889 19.4444444 7 15.5555556"></polygon>
                <polygon id="Fill-35" fill="#7CA7F2" points="0 24.8888889 10.8888889 24.8888889 10.8888889 23.3333333 0 23.3333333"></polygon>
                <path d="M3.88888889,45.1111111 L1.55555556,45.1111111 C0.696402778,45.1111111 0,45.8075139 0,46.6666667 L0,48.2222222 L5.44444444,48.2222222 L5.44444444,46.6666667 C5.44444444,45.8075139 4.74804167,45.1111111 3.88888889,45.1111111" id="Fill-38" fill="#9F0000"></path>
                <path d="M6.86902829,13.0724956 L6.86902829,13.0724956 C6.31677829,13.0724956 5.86902829,12.7142956 5.86902829,12.2724956 L5.86902829,9.07249564 L7.86902829,9.07249564 L7.86902829,12.2724956 C7.86902829,12.7142956 7.42127829,13.0724956 6.86902829,13.0724956" id="Fill-1" fill="#FEAC94"></path>
                <path d="M12.4444444,45.1111111 L10.1111111,45.1111111 C9.25195833,45.1111111 8.55555556,45.8075139 8.55555556,46.6666667 L8.55555556,48.2222222 L14,48.2222222 L14,46.6666667 C14,45.8075139 13.3035972,45.1111111 12.4444444,45.1111111" id="Fill-39" fill="#9F0000"></path>
            </g>
        </g>
    </g>
</svg>