<?xml version="1.0" encoding="UTF-8"?>
<svg width="50px" height="50px" viewBox="0 0 50 50" version="1.1" xmlns="http://www.w3.org/2000/svg" xmlns:xlink="http://www.w3.org/1999/xlink">
    <!-- Generator: Sketch 58 (84663) - https://sketch.com -->
    <title>reparar-industria</title>
    <desc>Created with Sketch.</desc>
    <defs>
        <polygon id="path-1" points="0 0.0871439973 31.6814504 0.0871439973 31.6814504 5.81343254 0 5.81343254"></polygon>
        <polygon id="path-3" points="0.069602381 0.00775793651 15.9103413 0.00775793651 15.9103413 15.0564206 0.069602381 15.0564206"></polygon>
    </defs>
    <g id="reparar-industria" stroke="none" stroke-width="1" fill="none" fill-rule="evenodd">
        <g id="Group-40" transform="translate(2.000000, 2.000000)">
            <g id="Group-3" transform="translate(0.000000, 19.188663)">
                <mask id="mask-2" fill="white">
                    <use xlink:href="#path-1"></use>
                </mask>
                <g id="Clip-2"></g>
                <path d="M30.4854504,0.197873016 L23.7610536,4.22935317 L23.7610536,0.879019841 C23.7610536,0.594440476 23.6082679,0.331765873 23.3610179,0.190936508 C23.1136766,0.0501071429 22.8099306,0.0527539683 22.5651448,0.197873016 L15.840748,4.22935317 L15.840748,0.879019841 C15.8406567,0.594440476 15.6879623,0.331765873 15.4407123,0.190936508 C15.193371,0.0501071429 14.8895337,0.0527539683 14.644748,0.197873016 L7.92035119,4.22935317 L7.92035119,0.879019841 C7.92035119,0.594440476 7.76756548,0.331765873 7.52031548,0.190936508 C7.27297421,0.0501071429 6.9691369,0.0527539683 6.72444246,0.197873016 L-4.56349206e-05,4.22935317 L-4.56349206e-05,5.81343254 L31.6814504,5.81343254 L31.6814504,0.879019841 C31.6814504,0.594440476 31.528756,0.331765873 31.2814147,0.190936508 C31.0341647,0.0501071429 30.7303274,0.0527539683 30.4854504,0.197873016" id="Fill-1" fill="#399D25" mask="url(#mask-2)"></path>
            </g>
            <path d="M40.7118349,8.75195016 L37.6146239,9.15242562 C36.5824533,10.8303304 34.1037995,14.3634064 32.1338312,14.3622199 C30.0507796,14.3622199 26.8421226,14.7373048 26.184706,13.8819238 L26.1372456,13.9135944 C19.8009282,13.9135944 19.8009282,9.95339603 19.8009282,9.95339603 L19.8246583,9.81877302 C18.4517774,9.6133246 17.3005909,8.67470556 16.8228845,7.37137222 C16.2644044,5.52069365 16.9734798,3.5219754 18.5732575,2.43695952 C19.8602536,1.70762222 21.4000671,1.5718127 22.7948528,2.06466984 C22.8106425,2.07261032 22.8344639,2.08055079 22.8502536,2.08849127 L22.9690869,1.7558127 C23.6308845,1.46968175 24.3211583,1.25465 25.0283171,1.11427698 C26.9688052,0.734138095 29.131079,0.837090476 30.7073091,2.02515 L30.8893925,1.85876508 C31.5373171,1.52106667 32.2271345,1.27071349 32.9408647,1.11427698 C34.6827496,0.613570635 36.5584361,0.95008254 38.0178409,2.02515 C38.9677774,2.81481667 39.5425036,3.96718968 39.601829,5.20115794 L40.7118349,8.75195016 Z" id="Fill-4" fill="#E3F1DF"></path>
            <path d="M37.4039599,8.36930754 L40.2164401,8.36930754 C40.7520115,8.36976389 41.1859083,8.80402579 41.1859083,9.33959722 L41.1859083,13.1215456 L36.4336702,13.1215456 L36.4336702,9.33959722 C36.4336702,8.80375198 36.8681147,8.36930754 37.4039599,8.36930754" id="Fill-17" fill="#F1C154"></path>
            <polygon id="Fill-19" fill="#BBE5B3" points="43.562 29.754306 41.185881 11.5374845 36.4336429 11.5374845 34.0575238 29.754306"></polygon>
            <g id="Group-23" transform="translate(30.027778, 28.954536)">
                <mask id="mask-4" fill="white">
                    <use xlink:href="#path-3"></use>
                </mask>
                <g id="Clip-22"></g>
                <path d="M0.069602381,0.00775793651 L15.0969079,0.00775793651 C15.5461381,0.00775793651 15.910396,0.371924603 15.910396,0.821154762 L15.910396,15.0564206 L0.069602381,15.0564206 L0.069602381,0.00775793651 Z" id="Fill-21" fill="#F8CD0E" mask="url(#mask-4)"></path>
            </g>
            <path d="M35.6416671,33.7144679 L31.6814687,33.7144679 C31.2440123,33.7144679 30.889429,33.3598845 30.889429,32.9224282 C30.889429,32.4849718 31.2440123,32.1304798 31.6814687,32.1304798 L35.6416671,32.1304798 C36.0791234,32.1304798 36.4337067,32.4849718 36.4337067,32.9224282 C36.4337067,33.3598845 36.0791234,33.7144679 35.6416671,33.7144679" id="Fill-24" fill="#FCF1CD"></path>
            <path d="M42.7699786,33.7144679 L38.8097802,33.7144679 C38.3723238,33.7144679 38.0178317,33.3598845 38.0178317,32.9224282 C38.0178317,32.4849718 38.3723238,32.1304798 38.8097802,32.1304798 L42.7699786,32.1304798 C43.2074349,32.1304798 43.5620183,32.4849718 43.5620183,32.9224282 C43.5620183,33.3598845 43.2074349,33.7144679 42.7699786,33.7144679" id="Fill-26" fill="#FCF1CD"></path>
            <polygon id="Fill-28" fill="#399D25" points="0 44.0109563 31.681496 44.0109563 31.681496 23.4180159 0 23.4180159"></polygon>
            <path d="M3.96019841,32.9224556 L7.92039683,32.9224556 C8.3577619,32.9224556 8.71234524,33.2770389 8.71234524,33.7144952 L8.71234524,36.882654 C8.71234524,37.3201103 8.3577619,37.6746024 7.92039683,37.6746024 L3.96019841,37.6746024 C3.52274206,37.6746024 3.16815873,37.3201103 3.16815873,36.882654 L3.16815873,33.7144952 C3.16815873,33.2770389 3.52274206,32.9224556 3.96019841,32.9224556" id="Fill-32" fill="#A9CEFF"></path>
            <path d="M12.6725893,32.9224556 L16.6327877,32.9224556 C17.070244,32.9224556 17.4248274,33.2770389 17.4248274,33.7144952 L17.4248274,36.882654 C17.4248274,37.3201103 17.070244,37.6746024 16.6327877,37.6746024 L12.6725893,37.6746024 C12.2351329,37.6746024 11.8805496,37.3201103 11.8805496,36.882654 L11.8805496,33.7144952 C11.8805496,33.2770389 12.2351329,32.9224556 12.6725893,32.9224556" id="Fill-33" fill="#A9CEFF"></path>
            <path d="M28.5133464,31.388246 L28.5133464,44.0109563 L20.5929496,44.0109563 L20.5929496,31.388246 C20.580902,30.9377381 20.9345726,30.5617976 21.3849893,30.5462817 L27.7212155,30.5462817 C28.1717234,30.5617976 28.5253028,30.9377381 28.5133464,31.388246" id="Fill-34" fill="#A9CEFF"></path>
            <path d="M26.1372091,33.7144679 C26.1372091,34.1519242 25.7825345,34.5065075 25.3451694,34.5065075 L20.5929313,34.5065075 L20.5929313,32.9224282 L25.3451694,32.9224282 C25.7825345,32.9224282 26.1372091,33.2770115 26.1372091,33.7144679" id="Fill-35" fill="#A7A7A7"></path>
            <path d="M26.1372091,36.8826266 C26.1372091,37.3200829 25.7825345,37.6746663 25.3451694,37.6746663 L20.5929313,37.6746663 L20.5929313,36.0905869 L25.3451694,36.0905869 C25.7825345,36.0905869 26.1372091,36.4451702 26.1372091,36.8826266" id="Fill-36" fill="#A7A7A7"></path>
            <path d="M26.1372091,40.0507762 C26.1372091,40.4882325 25.7825345,40.8428159 25.3451694,40.8428159 L20.5929313,40.8428159 L20.5929313,39.2587365 L25.3451694,39.2587365 C25.7825345,39.2587365 26.1372091,39.6133198 26.1372091,40.0507762" id="Fill-37" fill="#A7A7A7"></path>
            <path d="M37.2256917,37.6746389 L40.3938504,37.6746389 C40.8313067,37.6746389 41.1858901,38.0293135 41.1858901,38.4667698 L41.1858901,43.2189167 L36.433652,43.2189167 L36.433652,38.4667698 C36.433652,38.0293135 36.7883266,37.6746389 37.2256917,37.6746389" id="Fill-38" fill="#FF8800"></path>
            <path d="M45.9381282,43.2189258 L9.12698413e-06,43.2189258 L9.12698413e-06,45.5950448 C9.12698413e-06,46.0324099 0.35459246,46.3870845 0.79204881,46.3870845 L45.1460885,46.3870845 C45.5834536,46.3870845 45.9381282,46.0324099 45.9381282,45.5950448 L45.9381282,43.2189258 Z" id="Fill-39" fill="#A7A7A7"></path>
        </g>
    </g>
</svg>