<?xml version="1.0" encoding="UTF-8"?>
<svg width="50px" height="50px" viewBox="0 0 50 50" version="1.1" xmlns="http://www.w3.org/2000/svg" xmlns:xlink="http://www.w3.org/1999/xlink">
    <!-- Generator: Sketch 58 (84663) - https://sketch.com -->
    <title>vender-tienda</title>
    <desc>Created with Sketch.</desc>
    <g id="vender-tienda" stroke="none" stroke-width="1" fill="none" fill-rule="evenodd">
        <g id="Group-18" transform="translate(2.000000, 4.000000)">
            <path d="M8.81766935,30.9205722 C8.82783935,30.5495922 8.75286935,30.1809522 8.59896934,29.8427322 C8.43885934,29.5178322 8.20377933,29.2366722 7.91163931,29.0226522 C7.4531793,28.7032421 6.95799928,28.4408021 6.43554926,28.2416321 C6.00831924,28.0791821 5.59521922,27.8809121 5.20155921,27.6480821 C5.0015792,27.5309021 4.83291919,27.3677321 4.70952919,27.1716221 C4.60332918,26.9864921 4.54941918,26.7756221 4.55328918,26.5624121 C4.54239918,26.240662 4.68135919,25.932952 4.9281392,25.726762 C5.24682921,25.496362 5.63733922,25.385482 6.02937924,25.414372 C6.78150927,25.440922 7.5219393,25.613542 8.20845933,25.922062 L8.68491935,24.703642 C7.86249931,24.331852 6.97140928,24.138172 6.06852924,24.133492 C5.28831921,24.092092 4.51746918,24.324022 3.88944915,24.789502 C3.34584913,25.222942 3.04362912,25.891552 3.07719912,26.5858121 C3.06315912,27.1489421 3.24198913,27.7002821 3.58488914,28.1478521 C4.06521916,28.6774121 4.67280919,29.0756622 5.34996921,29.3037222 C5.92326924,29.5013622 6.46371926,29.7863922 6.95106928,30.1472022 C7.20180929,30.3690522 7.34391929,30.6876522 7.34157929,31.0219122 C7.35327929,31.3741722 7.19631929,31.7099623 6.91983927,31.9278523 C6.53247926,32.1832723 6.07005924,32.3011723 5.60772922,32.2637323 C5.16492921,32.2605823 4.72437919,32.2028023 4.29561917,32.0919223 C3.83796915,31.9857223 3.39273913,31.8311023 2.96784912,31.6312123 L2.96784912,33.0448423 C3.76686915,33.3946723 4.63455918,33.5601823 5.50611922,33.5289523 C6.37308925,33.5765623 7.23141929,33.3321223 7.94286932,32.8338823 C8.52633934,32.3747923 8.85204935,31.6625323 8.81766935,30.9205722 L8.81766935,30.9205722 Z M17.8462897,33.4042123 L14.4254796,24.227272 L12.8009795,24.227272 L9.38016937,33.4042123 L10.9577794,33.4042123 L11.8559795,30.8660322 L15.3471696,30.8660322 L16.2609396,33.4042123 L17.8462897,33.4042123 Z M24.42241,33.4042123 L24.42241,32.1233323 L20.5485398,32.1233323 L20.5485398,24.258592 L19.0567898,24.258592 L19.0567898,33.4042123 L24.42241,33.4042123 Z M31.1626002,33.4042123 L31.1626002,32.1311623 L27.4918601,32.1311623 L27.4918601,29.2649322 L30.9361602,29.2649322 L30.9361602,28.0151921 L27.4918601,28.0151921 L27.4918601,25.523722 L31.1626002,25.523722 L31.1626002,24.258592 L25.99228,24.258592 L25.99228,33.4042123 L31.1626002,33.4042123 Z M39.1446106,27.2420021 C38.2291305,26.327422 36.7453005,26.328322 35.8307204,27.2443421 C34.9161404,28.1597321 34.9169504,29.6436522 35.8329704,30.5583222 C36.7484505,31.4728123 38.2323705,31.4720023 39.1469506,30.5558922 C39.5858806,30.1161522 39.8326606,29.5194522 39.8319422,28.8978221 C39.8318506,28.2760121 39.5842606,27.6809321 39.1446106,27.2420021 L39.1446106,27.2420021 Z M41.3860606,25.000462 L43.6665707,27.2888021 C44.5648608,28.1830421 44.5889808,29.6295222 43.7212907,30.5534622 L32.7871003,42.1749827 L1.56204906,42.1749827 C0.700569028,42.1726427 0.00234900009,41.4745126 9.00000036e-06,40.6129426 L9.00000036e-06,17.9634517 C0.00234900009,17.1019717 0.700569028,16.4037517 1.56204906,16.4014117 L32.7871003,16.4014117 L41.3860606,25.000462 Z" id="Fill-1" fill="#404040"></path>
            <polygon id="Fill-3" fill="#FEAD9A" points="31.1625912 32.1311713 31.1625912 33.4042213 25.992271 33.4042213 25.992271 24.258511 31.1625912 24.258511 31.1625912 25.523731 27.4917611 25.523731 27.4917611 28.0152011 30.9360612 28.0152011 30.9360612 29.2648512 27.4917611 29.2648512 27.4917611 32.1311713"></polygon>
            <polygon id="Fill-5" fill="#FEAD9A" points="24.422437 32.1233503 24.422437 33.4041403 19.0568168 33.4041403 19.0568168 24.25852 20.5485668 24.25852 20.5485668 32.1233503"></polygon>
            <path d="M14.9564796,29.5772502 L14.0973396,27.0856901 C14.0348796,26.9218001 13.9489296,26.6562101 13.8395795,26.29693 C13.7302295,25.93765 13.6521095,25.67989 13.6130495,25.50808 C13.4802995,26.07976 13.3138895,26.6437001 13.1131895,27.1950401 L12.2931095,29.5771602 L14.9564796,29.5772502 Z M14.4253896,24.22729 L17.8461997,33.4041403 L16.2607596,33.4041403 L15.3469896,30.8659602 L11.8557995,30.8659602 L10.9575994,33.4041403 L9.37998937,33.4041403 L12.8007995,24.22729 L14.4253896,24.22729 Z" id="Fill-7" fill="#FEAD9A"></path>
            <path d="M14.0973486,27.0858161 L14.9564886,29.5772862 L12.2932085,29.5772862 L13.1132885,27.1951661 C13.3139885,26.6437361 13.4803985,26.079796 13.6131485,25.508206 C13.6522085,25.680016 13.7303285,25.937686 13.8396785,26.296966 C13.9489386,26.6562461 14.0348886,26.9218361 14.0973486,27.0858161" id="Fill-9" fill="#404040"></path>
            <path d="M8.59895134,29.8427682 C8.75285135,30.1809882 8.82782135,30.5496282 8.81765135,30.9206082 C8.85203135,31.6625683 8.52632134,32.3748283 7.94294132,32.8340083 C7.23140129,33.3323383 6.37307125,33.5767783 5.50619122,33.5291683 C4.63454118,33.5603983 3.76685115,33.3947983 2.96792112,33.0449683 L2.96792112,31.6313383 C3.39281113,31.8313183 3.83795115,31.9858483 4.29569117,32.0921383 C4.72445119,32.2030183 5.16500121,32.2607083 5.60780122,32.2638583 C6.07013124,32.3013883 6.53255126,32.1834883 6.91991127,31.9280683 C7.19639129,31.7101783 7.35335129,31.3742982 7.34165129,31.0221282 C7.34399129,30.6878682 7.20188129,30.3691782 6.95114128,30.1474182 C6.46379126,29.7866082 5.92334124,29.5014882 5.35004121,29.3039382 C4.67288119,29.0758782 4.06529116,28.6775381 3.58496114,28.1480681 C3.24206113,27.7004981 3.06323112,27.1490681 3.07727112,26.5859381 C3.04370112,25.891678 3.34592113,25.223158 3.88952115,24.789628 C4.51745118,24.324238 5.28830121,24.092218 6.06860124,24.133618 C6.97148128,24.138388 7.86257131,24.332068 8.68499135,24.703768 L8.20853133,25.922188 C7.5220113,25.613758 6.78158127,25.441138 6.02945124,25.414588 C5.63741122,25.385698 5.24690121,25.496578 4.9282112,25.726978 C4.68143119,25.933168 4.54238118,26.240878 4.55336118,26.5626281 C4.54949118,26.7758381 4.60331118,26.9867081 4.70960119,27.1718381 C4.83299119,27.3678581 5.0017412,27.5310281 5.20163121,27.6482981 C5.59529122,27.8810381 6.00839124,28.0793981 6.43562126,28.2418481 C6.95816128,28.4410181 7.4532513,28.7034581 7.91171131,29.0228682 C8.20376133,29.2367082 8.43884134,29.5178682 8.59895134,29.8427682" id="Fill-11" fill="#FEAD9A"></path>
            <path d="M38.0409945,29.4498912 L36.9366045,28.3455011 L42.0054047,23.2767009 C43.6197347,21.6693909 44.5249548,19.4841008 44.5179348,17.2058407 L44.5179348,16.4014207 C44.5155948,13.8147305 42.4186847,11.7176405 39.8318146,11.7153005 L33.9741644,11.7153005 C30.7392042,11.7153005 28.1166041,9.09261036 28.1166041,5.85765023 C28.1166041,2.6226901 30.7392042,0 33.9741644,0 L42.1749647,0 L42.1749647,1.56204006 L33.9741644,1.56204006 C31.6014043,1.56204006 29.6785542,3.48489014 29.6785542,5.85765023 C29.6785542,8.23041033 31.6014043,10.1532604 33.9741644,10.1532604 L39.8318146,10.1532604 C43.2808847,10.1571304 46.0760148,12.9524405 46.0800258,16.4014207 L46.0800258,17.2058407 C46.0885248,19.8980108 45.0201348,22.4816409 43.1122247,24.381091 L38.0409945,29.4498912 Z" id="Fill-13" fill="#A9CEFF"></path>
            <polygon id="Fill-15" fill="#7CA7F2" points="3.12408012 21.0875408 31.2407112 21.0875408 31.2407112 19.5255008 3.12408012 19.5255008"></polygon>
            <polygon id="Fill-17" fill="#7CA7F2" points="3.12408012 39.0509116 31.2407112 39.0509116 31.2407112 37.4889615 3.12408012 37.4889615"></polygon>
        </g>
    </g>
</svg>