<?xml version="1.0" encoding="UTF-8"?>
<svg width="50px" height="50px" viewBox="0 0 50 50" version="1.1" xmlns="http://www.w3.org/2000/svg" xmlns:xlink="http://www.w3.org/1999/xlink">
    <!-- Generator: Sketch 58 (84663) - https://sketch.com -->
    <title>vender-ecommerce</title>
    <desc>Created with Sketch.</desc>
    <defs>
        <polygon id="path-1" points="0 0.0736354933 31.4170215 0.0736354933 31.4170215 6.35704159 0 6.35704159"></polygon>
        <polygon id="path-3" points="8.99969363e-06 0.0572560509 31.4170305 0.0572560509 31.4170305 4.21999684 8.99969363e-06 4.21999684"></polygon>
    </defs>
    <g id="vender-ecommerce" stroke="none" stroke-width="1" fill="none" fill-rule="evenodd">
        <g id="Group-64" transform="translate(9.000000, 2.000000)">
            <path d="M26.1809367,0 L5.23612975,0 C3.45581036,0 2.0944267,1.36138366 2.0944267,3.14170305 L2.0944267,8.37790479 L2.0944267,42.9367283 C2.0944267,44.7170477 3.45581036,46.0784314 5.23612975,46.0784314 L26.1808467,46.0784314 C27.9610761,46.0784314 29.3225498,44.7170477 29.3225498,42.9367283 L29.3225498,8.37790479 L29.3225498,3.14170305 C29.3225498,1.36138366 27.9610761,0 26.1809367,0" id="Fill-1" fill="#4D649B"></path>
            <path d="M29.3226578,18.7455519 L29.3226578,14.6613109 L2.0944447,14.6613109 L2.0944447,18.7455519 C3.56058479,19.0597312 5.13139131,18.7455519 6.2833521,17.8030139 C8.06367149,19.1643976 10.7864388,19.1643976 12.5666682,17.8030139 C14.3470776,19.1643976 17.0698449,19.1643976 18.8501643,17.8030139 C20.6304837,19.1643976 23.353251,19.1643976 25.1334804,17.8030139 C26.2856212,18.7455519 27.8565177,19.0597312 29.3226578,18.7455519" id="Fill-6" fill="#474852"></path>
            <path d="M27.2281231,8.3778868 L27.2281231,38.7478029 C27.2281231,39.2714051 26.8091873,39.7950073 26.1809187,39.7950073 L5.23611175,39.7950073 C4.60775314,39.7950073 4.1889074,39.3761615 4.1889074,38.7478029 L4.1889074,8.3778868 C4.1889074,7.85428462 4.60784314,7.33068244 5.23611175,7.33068244 L26.1808287,7.33068244 C26.8091873,7.33068244 27.2281231,7.74952819 27.2281231,8.3778868" id="Fill-8" fill="#F0F0F0"></path>
            <path d="M4.1889074,14.6613289 L4.1889074,15.7085332 L4.1889074,18.7454799 L4.1889074,38.7477489 C4.1889074,39.2713511 4.60784314,39.7948633 5.23611175,39.7948633 L5.23611175,19.7927742 C5.23611175,18.9549927 5.65504749,18.2218777 6.2833161,17.8030319 C8.06363549,19.1644156 10.7864028,19.1644156 12.5667222,17.8030319 C14.3470416,19.1644156 17.0698089,19.1644156 18.8501283,17.8030319 C20.6304477,19.1644156 23.353215,19.1644156 25.1335344,17.8030319 C25.761893,18.3266341 26.494918,18.536057 27.2280331,18.7455699 L27.2280331,14.6613289 L4.1889074,14.6613289 Z" id="Fill-10" fill="#D7D7D7"></path>
            <path d="M15.7085152,40.9366923 C16.8131904,40.9366923 17.7085152,41.8322275 17.7085152,42.9367783 C17.7085152,44.041329 16.8131904,44.9366923 15.7085152,44.9366923 C14.604012,44.9366923 13.7085152,44.041329 13.7085152,42.9367783 C13.7085152,41.8322275 14.604012,40.9366923 15.7085152,40.9366923" id="Fill-12" fill="#FFFFFF"></path>
            <g id="Group-16" transform="translate(0.000000, 6.209789)">
                <mask id="mask-2" fill="white">
                    <use xlink:href="#path-1"></use>
                </mask>
                <g id="Clip-15"></g>
                <polygon id="Fill-14" fill="#FEAD9A" mask="url(#mask-2)" points="31.4170215 6.35704159 -8.99969363e-06 6.35704159 5.23610275 0.0736354933 26.1809097 0.0736354933"></polygon>
            </g>
            <polygon id="Fill-20" fill="#FFFFFF" points="12.5667942 12.5668302 6.2833881 12.5668302 9.42509115 6.2834241 13.6139985 6.2834241"></polygon>
            <polygon id="Fill-22" fill="#FFFFFF" points="18.8502363 12.5668302 25.1335524 12.5668302 21.9919393 6.2834241 17.8030319 6.2834241"></polygon>
            <g id="Group-30" transform="translate(0.000000, 12.509574)">
                <mask id="mask-4" fill="white">
                    <use xlink:href="#path-3"></use>
                </mask>
                <g id="Clip-29"></g>
                <path d="M8.99969363e-06,0.0572560509 L8.99969363e-06,3.1989591 C1.78032839,4.56034275 4.5030957,4.56034275 6.2834151,3.1989591 C8.06373449,4.56034275 10.7865018,4.56034275 12.5668212,3.1989591 C14.3471406,4.56034275 17.0699079,4.56034275 18.8502273,3.1989591 C20.6305467,4.56034275 23.353314,4.56034275 25.1335434,3.1989591 C26.9139528,4.56034275 29.6367201,4.56034275 31.4170395,3.1989591 L31.4170395,0.0572560509 L8.99969363e-06,0.0572560509 Z" id="Fill-28" fill="#DE3618" mask="url(#mask-4)"></path>
            </g>
            <path d="M18.8502363,12.5668302 L18.8502363,15.7085332 C20.6305557,17.0699169 23.353323,17.0699169 25.1335524,15.7085332 L25.1335524,12.5668302 L18.8502363,12.5668302 Z" id="Fill-31" fill="#F9FAFB"></path>
            <path d="M6.2833971,12.5668302 L6.2833971,15.7085332 C8.06371649,17.0699169 10.7864838,17.0699169 12.5668032,15.7085332 L12.5668032,12.5668302 L6.2833971,12.5668302 Z" id="Fill-35" fill="#F9FAFB"></path>
            <polygon id="Fill-37" fill="#D7D7D7" points="26.1809367 38.7477219 20.944645 38.7477219 26.1809367 33.5116102"></polygon>
            <polygon id="Fill-39" fill="#D7D7D7" points="18.8502363 38.7477219 26.1809367 31.4171115 26.1809367 29.3226128 16.7557376 38.7477219"></polygon>
            <path d="M18.3265981,4.1888984 L13.0903964,4.1888984 C12.7762171,4.1888984 12.5667942,3.97947553 12.5667942,3.66529622 C12.5667942,3.35111692 12.7762171,3.14169405 13.0903964,3.14169405 L18.3265981,3.14169405 C18.6407774,3.14169405 18.8502003,3.35111692 18.8502003,3.66529622 C18.8502003,3.97947553 18.6407774,4.1888984 18.3265981,4.1888984" id="Fill-41" fill="#FFFFFF"></path>
            <path d="M10.9959337,3.14172105 L10.9959337,3.14172105 C11.310113,3.14172105 11.5195358,3.35114392 11.5195358,3.66532322 C11.5195358,3.97950253 11.310113,4.1889254 10.9959337,4.1889254 C10.6817544,4.1889254 10.4723315,3.97950253 10.4723315,3.66532322 C10.4723315,3.35114392 10.6817544,3.14172105 10.9959337,3.14172105" id="Fill-43" fill="#FFFFFF"></path>
            <path d="M12.5667942,30.3699251 C13.1452045,30.3699251 13.6139985,30.8388092 13.6139985,31.4171295 C13.6139985,31.9954498 13.1452045,32.4642438 12.5667942,32.4642438 C11.9884739,32.4642438 11.5195898,31.9954498 11.5195898,31.4171295 C11.5195898,30.8388092 11.9884739,30.3699251 12.5667942,30.3699251" id="Fill-58" fill="#FF8800"></path>
            <path d="M18.8502363,30.3699251 C19.4285566,30.3699251 19.8974406,30.8388092 19.8974406,31.4171295 C19.8974406,31.9954498 19.4285566,32.4642438 18.8502363,32.4642438 C18.271826,32.4642438 17.8030319,31.9954498 17.8030319,31.4171295 C17.8030319,30.8388092 18.271826,30.3699251 18.8502363,30.3699251" id="Fill-60" fill="#FF8800"></path>
            <path d="M21.7825165,23.4581784 C21.5730936,23.1439991 21.2589143,23.0392427 20.944645,23.0392427 L13.6140345,23.0392427 C13.6140345,21.2589233 12.2526509,19.8975396 10.4723315,19.8975396 C9.84397289,19.8975396 9.42512714,20.3164754 9.42512714,20.944744 C9.42512714,21.5730126 9.84406288,21.9919483 10.4723315,21.9919483 C11.1006901,21.9919483 11.5195358,22.4108841 11.5195358,23.0391527 L11.5195358,24.086267 L11.5195358,28.2751744 C11.5195358,28.903623 11.9384716,29.3224688 12.5667402,29.3224688 L19.8974406,29.3224688 C20.4210428,29.3224688 20.8398886,29.0082895 20.944555,28.4846873 L21.991853,24.2957799 C21.991853,23.9816906 21.991853,23.6676013 21.7825165,23.4581784" id="Fill-62" fill="#FF8800"></path>
        </g>
    </g>
</svg>