<?xml version="1.0" encoding="UTF-8"?>
<svg width="50px" height="50px" viewBox="0 0 50 50" version="1.1" xmlns="http://www.w3.org/2000/svg" xmlns:xlink="http://www.w3.org/1999/xlink">
    <!-- Generator: Sketch 58 (84663) - https://sketch.com -->
    <title>vender-blackfriday</title>
    <desc>Created with Sketch.</desc>
    <g id="vender-blackfriday" stroke="none" stroke-width="1" fill="none" fill-rule="evenodd">
        <g id="Group-18" transform="translate(5.000000, 2.000000)">
            <polygon id="Fill-1" fill="#4D649B" points="8.58350769 11.3731297 10.7293846 11.3731297 10.7293846 4.9354989 8.58350769 4.9354989"></polygon>
            <polygon id="Fill-2" fill="#4D649B" points="30.2567385 11.3731297 32.4026154 11.3731297 32.4026154 4.9354989 30.2567385 4.9354989"></polygon>
            <polygon id="Fill-3" fill="#A9CEFF" points="3.21881538 17.2026899 3.21881538 46.1362547 25.1066879 46.1362547 29.1301846 43.9902877 33.1535912 46.1362547 37.7673077 46.1362547 37.7673077 17.2026899"></polygon>
            <polygon id="Fill-4" fill="#4D649B" points="25.1066879 46.1362637 33.1536813 46.1362637 33.1536813 28.6473758 25.1066879 28.6473758"></polygon>
            <polygon id="Fill-5" fill="#F9FAFB" points="7.83244176 41.5226374 20.4930615 41.5226374 20.4930615 28.6473758 7.83244176 28.6473758"></polygon>
            <polygon id="Fill-6" fill="#A9CEFF" points="7.51056923 6.00843736 33.475644 6.00843736 33.475644 0 7.51056923 0"></polygon>
            <polygon id="Fill-7" fill="#DE3618" points="3.21881538 10.3002002 0 17.2027079 6.83105055 19.3485848 13.662011 17.2027079 16.3187209 13.751409 14.7349495 10.3002002"></polygon>
            <polygon id="Fill-8" fill="#DE3618" points="26.2512277 10.3002002 24.6674563 13.751409 27.324076 17.2027079 34.1551266 19.3485848 40.986087 17.2027079 37.7673618 10.3002002"></polygon>
            <g id="Group-17" transform="translate(0.000000, 10.272527)">
                <path d="M1.8021978e-05,6.93018945 C1.8021978e-05,10.7030004 3.05834769,13.76124 6.83106857,13.76124 C10.6036993,13.76124 13.6621191,10.7029103 13.6621191,6.93018945 L1.8021978e-05,6.93018945 Z" id="Fill-9" fill="#BF0711"></path>
                <polygon id="Fill-11" fill="#FCF1CD" points="26.2512097 0.0276727473 14.7349855 0.0276727473 13.662047 6.93018044 20.4930976 9.07605736 27.324058 6.93018044"></polygon>
                <path d="M13.662002,6.93018945 C13.662002,10.7030004 16.7204218,13.76124 20.4930525,13.76124 C24.2656833,13.76124 27.3241031,10.7029103 27.3241031,6.93018945 L13.662002,6.93018945 Z" id="Fill-13" fill="#F8CD0E"></path>
                <path d="M27.324076,6.93018945 C27.324076,10.7028202 30.3824057,13.76124 34.1552167,13.76124 C37.9279376,13.76124 40.986087,10.7029103 40.986087,6.93018945 L27.324076,6.93018945 Z" id="Fill-15" fill="#BF0711"></path>
            </g>
        </g>
    </g>
</svg>